<?xml version="1.0" encoding="UTF-8" standalone="no"?>
<!-- Created with Inkscape (http://www.inkscape.org/) -->
<svg
   xmlns:svg="http://www.w3.org/2000/svg"
   xmlns="http://www.w3.org/2000/svg"
   version="1.0"
   width="56.160931"
   height="22.33145"
   id="svg2">
  <defs
     id="defs4">
    <marker
       refX="0"
       refY="0"
       orient="auto"
       id="Arrow1Mend"
       style="overflow:visible">
      <path
         d="M 0,0 L 5,-5 L -12.5,0 L 5,5 L 0,0 z"
         transform="matrix(-0.4,0,0,-0.4,-4,0)"
         id="path3399"
         style="fill-rule:evenodd;stroke:#000000;stroke-width:1pt;marker-start:none" />
    </marker>
  </defs>
  <g
     id="g2441">
    <path
       d="M 29.48122,0.19221 L 35.19489,0.19221 L 35.19489,12.47188 L 29.48122,12.47188 L 29.48122,0.19221 z"
       id="rect3363"
       style="fill:#666666;fill-opacity:1;stroke:none;stroke-width:0;stroke-linejoin:miter;stroke-miterlimit:4;stroke-dashoffset:0;stroke-opacity:1" />
    <path
       d="M 4.11434,0.2 L 35.21533,0.2 L 35.21533,12.46123 L 4.11434,12.46123 C 1.94579,12.46123 0.2,10.71543 0.2,8.54688 L 0.2,4.11434 C 0.2,1.9458 1.94579,0.2 4.11434,0.2 z"
       id="rect3157"
       style="fill:none;fill-opacity:0.2;stroke:#000000;stroke-width:0.40000001;stroke-linejoin:miter;stroke-miterlimit:4;stroke-dasharray:none;stroke-dashoffset:0;stroke-opacity:1" />
    <path
       d="M 0.2,4.37348 L 3.8618,4.37348 L 3.8618,8.28783 L 0.2,8.28783 L 0.2,4.37348 z"
       id="rect3329"
       style="fill:#000000;fill-opacity:1;stroke:#000000;stroke-width:0.30000001;stroke-linejoin:miter;stroke-miterlimit:4;stroke-dashoffset:0;stroke-opacity:1" />
    <path
       d="M 4.03308,1.04452 L 28.52928,1.04452"
       id="path3333"
       style="fill:none;fill-rule:evenodd;stroke:#000000;stroke-width:0.40000001;stroke-linecap:butt;stroke-linejoin:miter;stroke-miterlimit:4;stroke-dasharray:none;stroke-opacity:1" />
    <path
       d="M 4.03308,11.65112 L 28.84495,11.65112"
       id="path3341"
       style="fill:none;fill-opacity:1;fill-rule:evenodd;stroke:#000000;stroke-width:0.40000001;stroke-linecap:butt;stroke-linejoin:miter;marker:none;marker-start:none;marker-mid:none;marker-end:none;stroke-miterlimit:4;stroke-dasharray:none;stroke-dashoffset:0;stroke-opacity:1;visibility:visible;display:inline;overflow:visible;enable-background:accumulate" />
    <path
       d="M 37.81498,18.53278 L 37.81498,9.75708 C 37.81498,9.75708 32.57481,9.75708 28.78674,9.75708 C 27.39778,9.75708 26.38763,11.58798 26.38763,11.58798"
       id="path3343"
       style="fill:none;fill-opacity:1;fill-rule:evenodd;stroke:#000000;stroke-width:0.30000001;stroke-linecap:butt;stroke-linejoin:miter;marker:none;marker-start:none;marker-mid:none;marker-end:none;stroke-miterlimit:4;stroke-dasharray:none;stroke-dashoffset:0;stroke-opacity:1;visibility:visible;display:inline;overflow:visible;enable-background:accumulate" />
    <path
       d="M 55.17698,18.72219 L 46.96949,18.72219 L 46.96949,6.28468"
       id="path3345"
       style="fill:none;fill-opacity:1;fill-rule:evenodd;stroke:#000000;stroke-width:0.30000001;stroke-linecap:butt;stroke-linejoin:miter;marker:none;marker-start:none;marker-mid:none;marker-end:none;stroke-miterlimit:4;stroke-dasharray:none;stroke-dashoffset:0;stroke-opacity:1;visibility:visible;display:inline;overflow:visible;enable-background:accumulate" />
    <path
       d="M 46.90635,16.38621 L 51.70458,16.38621 L 51.70458,11.96679"
       id="path3347"
       style="fill:none;fill-opacity:1;fill-rule:evenodd;stroke:#000000;stroke-width:0.30000001;stroke-linecap:butt;stroke-linejoin:miter;marker:none;marker-start:none;marker-mid:none;marker-end:none;stroke-miterlimit:4;stroke-dasharray:none;stroke-dashoffset:0;stroke-opacity:1;visibility:visible;display:inline;overflow:visible;enable-background:accumulate" />
    <path
       d="M 51.64144,10.64097 L 51.64144,6.34782"
       id="path3349"
       style="fill:none;fill-opacity:1;fill-rule:evenodd;stroke:#000000;stroke-width:0.30000001;stroke-linecap:butt;stroke-linejoin:miter;marker:none;marker-start:none;marker-mid:none;marker-end:none;stroke-miterlimit:4;stroke-dasharray:none;stroke-dashoffset:0;stroke-opacity:1;visibility:visible;display:inline;overflow:visible;enable-background:accumulate" />
    <g
       transform="translate(-233.85292,-601.95764)"
       id="g4727">
      <path
         d="M 287.32527,612.75642 L 283.53719,612.75642"
         id="path3351"
         style="opacity:1;fill:none;fill-opacity:1;fill-rule:evenodd;stroke:#000000;stroke-width:0.40000001;stroke-linecap:butt;stroke-linejoin:miter;marker:none;marker-start:none;marker-mid:none;marker-end:none;stroke-miterlimit:4;stroke-dasharray:none;stroke-dashoffset:0;stroke-opacity:1;visibility:visible;display:inline;overflow:visible;enable-background:accumulate" />
      <path
         d="M 283.53719,614.01911 L 287.32527,614.01911"
         id="path3353"
         style="opacity:1;fill:none;fill-opacity:1;fill-rule:evenodd;stroke:#000000;stroke-width:0.40000001;stroke-linecap:butt;stroke-linejoin:miter;marker:none;marker-start:none;marker-mid:none;marker-end:none;stroke-miterlimit:4;stroke-dasharray:none;stroke-dashoffset:0;stroke-opacity:1;visibility:visible;display:inline;overflow:visible;enable-background:accumulate" />
    </g>
    <path
       d="M 55.11384,15.31292 L 55.11384,22.13145"
       id="path3355"
       style="fill:none;fill-opacity:1;fill-rule:evenodd;stroke:#000000;stroke-width:0.40000001;stroke-linecap:butt;stroke-linejoin:miter;marker:none;marker-start:none;marker-mid:none;marker-end:none;stroke-miterlimit:4;stroke-dasharray:none;stroke-dashoffset:0;stroke-opacity:1;visibility:visible;display:inline;overflow:visible;enable-background:accumulate" />
    <path
       d="M 45.63106,8.4944 L 48.3458,8.4944 L 48.3458,14.36592 L 45.63106,14.36592 L 45.63106,8.4944 z"
       id="rect3357"
       style="fill:#ffffff;fill-opacity:1;stroke:#000000;stroke-width:0.40000001;stroke-linejoin:miter;stroke-miterlimit:4;stroke-dashoffset:0;stroke-opacity:1" />
    <path
       d="M 29.4023,0.20798 L 29.4023,12.4403"
       id="path3361"
       style="fill:none;fill-opacity:1;fill-rule:evenodd;stroke:#000000;stroke-width:0.40000001;stroke-linecap:butt;stroke-linejoin:miter;marker:none;marker-start:none;marker-mid:none;marker-end:none;stroke-miterlimit:4;stroke-dasharray:none;stroke-dashoffset:0;stroke-opacity:1;visibility:visible;display:inline;overflow:visible;enable-background:accumulate" />
    <path
       d="M 38.6895,18.69599 C 38.69021,19.01545 38.52019,19.31094 38.24364,19.47087 C 37.9671,19.63081 37.62619,19.63081 37.34965,19.47087 C 37.0731,19.31094 36.90308,19.01545 36.90379,18.69599 C 36.90308,18.37653 37.0731,18.08104 37.34965,17.92111 C 37.62619,17.76117 37.9671,17.76117 38.24364,17.92111 C 38.52019,18.08104 38.69021,18.37653 38.6895,18.69599 z"
       id="path3369"
       style="fill:#ffffff;fill-opacity:1;stroke:#000000;stroke-width:0.30000001;stroke-linejoin:miter;stroke-miterlimit:4;stroke-dasharray:none;stroke-dashoffset:0;stroke-opacity:1" />
    <path
       d="M 47.91047,18.69599 C 47.91118,19.01545 47.74116,19.31094 47.46461,19.47087 C 47.18807,19.63081 46.84716,19.63081 46.57062,19.47087 C 46.29407,19.31094 46.12405,19.01545 46.12476,18.69599 C 46.12405,18.37653 46.29407,18.08104 46.57062,17.92111 C 46.84716,17.76117 47.18807,17.76117 47.46461,17.92111 C 47.74116,18.08104 47.91118,18.37653 47.91047,18.69599 z"
       id="path3373"
       style="fill:#ffffff;fill-opacity:1;stroke:#000000;stroke-width:0.30000001;stroke-linejoin:miter;stroke-miterlimit:4;stroke-dasharray:none;stroke-dashoffset:0;stroke-opacity:1" />
    <path
       d="M 47.48637,16.37013 C 47.48707,16.558 47.38724,16.73189 47.22466,16.82603 C 47.06208,16.92016 46.86156,16.92016 46.69898,16.82603 C 46.5364,16.73189 46.43657,16.558 46.43727,16.37013 C 46.43657,16.18226 46.5364,16.00837 46.69898,15.91423 C 46.86156,15.8201 47.06208,15.8201 47.22466,15.91423 C 47.38724,16.00837 47.48707,16.18226 47.48637,16.37013 z"
       id="path3381"
       style="fill:#000000;fill-opacity:1;stroke:none;stroke-width:0.30000001;stroke-linejoin:miter;stroke-miterlimit:4;stroke-dasharray:none;stroke-dashoffset:0;stroke-opacity:1" />
    <path
       d="M 52.14038,6.292 C 52.14108,6.47987 52.04125,6.65376 51.87867,6.7479 C 51.71609,6.84203 51.51557,6.84203 51.35299,6.7479 C 51.19041,6.65376 51.09058,6.47987 51.09128,6.292 C 51.09058,6.10413 51.19041,5.93024 51.35299,5.8361 C 51.51557,5.74197 51.71609,5.74197 51.87867,5.8361 C 52.04125,5.93024 52.14108,6.10413 52.14038,6.292 z"
       id="path3383"
       style="fill:#000000;fill-opacity:1;stroke:none;stroke-width:0.30000001;stroke-linejoin:miter;stroke-miterlimit:4;stroke-dasharray:none;stroke-dashoffset:0;stroke-opacity:1" />
    <path
       d="M 47.45288,6.31432 C 47.45358,6.50219 47.35375,6.67608 47.19117,6.77022 C 47.02859,6.86435 46.82807,6.86435 46.66549,6.77022 C 46.50291,6.67608 46.40308,6.50219 46.40378,6.31432 C 46.40308,6.12645 46.50291,5.95256 46.66549,5.85842 C 46.82807,5.76429 47.02859,5.76429 47.19117,5.85842 C 47.35375,5.95256 47.45358,6.12645 47.45288,6.31432 z"
       id="path3385"
       style="fill:#000000;fill-opacity:1;stroke:none;stroke-width:0.30000001;stroke-linejoin:miter;stroke-miterlimit:4;stroke-dasharray:none;stroke-dashoffset:0;stroke-opacity:1" />
    <path
       d="M 0.2,6.33061 L 56.01093,6.33061 L 53.93808,5.75286 L 53.93808,6.89286 L 56.01093,6.33061"
       id="path3331"
       style="fill:#000000;fill-opacity:1;fill-rule:evenodd;stroke:#000000;stroke-width:0.30000001;stroke-linecap:round;stroke-linejoin:round;marker-end:none;stroke-miterlimit:4;stroke-dasharray:none;stroke-opacity:1" />
    <g
       transform="translate(-233.85292,-602.05232)"
       id="g4719">
      <path
         d="M 273.75,604.58093 L 273.75,607.39343"
         id="path4680"
         style="fill:none;fill-rule:evenodd;stroke:#000000;stroke-width:0.30000001;stroke-linecap:butt;stroke-linejoin:miter;stroke-miterlimit:4;stroke-dasharray:none;stroke-opacity:1" />
      <path
         d="M 275.15625,605.98718 L 272.34375,605.98718"
         id="path4684"
         style="fill:none;fill-rule:evenodd;stroke:#000000;stroke-width:0.30000001;stroke-linecap:butt;stroke-linejoin:miter;stroke-miterlimit:4;stroke-dasharray:none;stroke-opacity:1" />
    </g>
    <path
       d="M 35.11583,18.74736 L 32.30333,18.74736"
       id="path4686"
       style="fill:none;fill-rule:evenodd;stroke:#000000;stroke-width:0.30000001;stroke-linecap:butt;stroke-linejoin:miter;stroke-miterlimit:4;stroke-dasharray:none;stroke-opacity:1" />
    <text
       x="39.69025"
       y="20.523388"
       id="text4688"
       xml:space="preserve"
       style="font-size:5.28632832px;font-style:normal;font-weight:normal;fill:#000000;fill-opacity:1;stroke:none;stroke-width:1px;stroke-linecap:butt;stroke-linejoin:miter;stroke-opacity:1;font-family:Bitstream Vera Sans"><tspan
         x="39.69025"
         y="20.523388"
         id="tspan4690">U</tspan></text>
    <text
       x="43.225964"
       y="21.015249"
       id="text2437"
       xml:space="preserve"
       style="font-size:2.61250925px;font-style:normal;font-weight:normal;fill:#000000;fill-opacity:1;stroke:none;stroke-width:1px;stroke-linecap:butt;stroke-linejoin:miter;stroke-opacity:1;font-family:Bitstream Vera Sans"><tspan
         x="43.225964"
         y="21.015249"
         id="tspan2439">D</tspan></text>
  </g>
</svg>
