<?xml version="1.0" encoding="UTF-8" standalone="no"?>
<!-- Created with matplotlib (http://matplotlib.sourceforge.net/) -->
<svg
   xmlns:dc="http://purl.org/dc/elements/1.1/"
   xmlns:cc="http://creativecommons.org/ns#"
   xmlns:rdf="http://www.w3.org/1999/02/22-rdf-syntax-ns#"
   xmlns:svg="http://www.w3.org/2000/svg"
   xmlns="http://www.w3.org/2000/svg"
   xmlns:xlink="http://www.w3.org/1999/xlink"
   xmlns:sodipodi="http://sodipodi.sourceforge.net/DTD/sodipodi-0.dtd"
   xmlns:inkscape="http://www.inkscape.org/namespaces/inkscape"
   width="217.44"
   height="252.59"
   viewBox="0 0 720 216"
   version="1.0"
   id="svg1"
   sodipodi:version="0.32"
   inkscape:version="0.46"
   sodipodi:docname="GP1-FA-Kurven4.svg"
   inkscape:output_extension="org.inkscape.output.svg.inkscape">
  <metadata
     id="metadata1256">
    <rdf:RDF>
      <cc:Work
         rdf:about="">
        <dc:format>image/svg+xml</dc:format>
        <dc:type
           rdf:resource="http://purl.org/dc/dcmitype/StillImage" />
      </cc:Work>
    </rdf:RDF>
  </metadata>
  <defs
     id="defs1254">
    <inkscape:perspective
       sodipodi:type="inkscape:persp3d"
       inkscape:vp_x="0 : 135 : 1"
       inkscape:vp_y="0 : 1000 : 0"
       inkscape:vp_z="900 : 135 : 1"
       inkscape:persp3d-origin="450 : 90 : 1"
       id="perspective1258" />
  </defs>
  <sodipodi:namedview
     inkscape:window-height="736"
     inkscape:window-width="1280"
     inkscape:pageshadow="2"
     inkscape:pageopacity="0.0"
     guidetolerance="10.0"
     gridtolerance="10.0"
     objecttolerance="10.0"
     borderopacity="1.0"
     bordercolor="#666666"
     pagecolor="#ffffff"
     id="base"
     showgrid="false"
     inkscape:zoom="9.8844444"
     inkscape:cx="145.69485"
     inkscape:cy="6.1704082"
     inkscape:window-x="0"
     inkscape:window-y="0"
     inkscape:current-layer="g659" />
  <g
     id="axes3"
     transform="matrix(4.1390894,0,0,4.1285459,-1993.3468,-395.17224)">
    <path
       id="path546"
       d="M 526.69565,194.4 L 648,194.4 L 648,21.6 L 526.69565,21.6 L 526.69565,194.4"
       style="opacity:1;fill:#ffffff" />
    <g
       id="line2d45">
      <defs
         id="defs549">
        <clipPath
           id="p89fd195dff0080818b2649715a768222">
          <rect
             id="rect552"
             height="172.8"
             width="121.30435"
             y="21.6"
             x="526.69568" />
        </clipPath>
      </defs>
      <path
         id="path554"
         d="M 648,189.82007 L 645.57397,186.68246 L 643.17245,183.57654 L 640.79544,180.50231 L 638.44293,177.45977 L 636.11492,174.44893 L 633.81142,171.46978 L 631.53243,168.52233 L 629.27794,165.60657 L 627.04796,162.7225 L 624.84248,159.87012 L 622.66151,157.04944 L 620.50504,154.26045 L 618.37308,151.50315 L 616.26562,148.77755 L 614.18267,146.08364 L 612.12423,143.42142 L 610.09028,140.79089 L 608.08085,138.19206 L 606.09592,135.62492 L 604.13549,133.08948 L 602.19958,130.58573 L 600.28816,128.11367 L 598.40125,125.6733 L 596.53885,123.26463 L 594.70095,120.88765 L 592.88756,118.54236 L 591.09867,116.22877 L 589.33429,113.94687 L 587.59441,111.69666 L 585.87904,109.47814 L 584.18817,107.29132 L 582.52181,105.13619 L 580.87996,103.01276 L 579.2626,100.92102 L 577.66976,98.860966 L 576.10142,96.83261 L 574.55759,94.835947 L 573.03826,92.870976 L 571.54343,90.937699 L 570.07311,89.036115 L 568.6273,87.166224 L 567.20599,85.328026 L 565.80919,83.521521 L 564.43689,81.746709 L 563.0891,80.003591 L 561.76581,78.292165 L 560.46703,76.612432 L 559.19276,74.964393 L 557.94299,73.348046 L 556.71772,71.763393 L 555.51696,70.210433 L 554.3407,68.689165 L 553.18896,67.199591 L 552.06171,65.74171 L 550.95897,64.315522 L 549.88074,62.921027 L 548.82701,61.558225 L 547.79779,60.227116 L 546.79307,58.9277 L 545.81286,57.659978 L 544.85715,56.423948 L 543.92595,55.219612 L 543.01925,54.046968 L 542.13706,52.906018 L 541.27938,51.79676 L 540.44619,50.719196 L 539.63752,49.673325 L 538.85335,48.659146 L 538.09369,47.676661 L 537.35852,46.725869 L 536.64787,45.80677 L 535.96172,44.919364 L 535.30008,44.063652 L 534.66294,43.239632 L 534.05031,42.447305 L 533.46218,41.686671 L 532.89856,40.957731 L 532.35944,40.260483 L 531.84483,39.594929 L 531.35472,38.961068 L 530.88912,38.358899 L 530.44803,37.788424 L 530.03144,37.249642 L 529.63935,36.742553 L 529.27177,36.267157 L 528.9287,35.823454 L 528.61013,35.411444 L 528.31607,35.031127 L 528.04651,34.682503 L 527.80145,34.365573 L 527.58091,34.080335 L 527.38486,33.826791 L 527.21333,33.604939 L 527.06629,33.414781 L 526.94377,33.256315 L 526.84575,33.129543 L 526.77223,33.034464 L 526.72322,32.971078 L 526.69872,32.939385 L 526.69872,32.939385 L 526.72322,32.971078 L 526.77223,33.034464 L 526.84575,33.129543 L 526.94377,33.256315 L 527.06629,33.414781 L 527.21333,33.604939 L 527.38486,33.826791 L 527.58091,34.080335 L 527.80145,34.365573 L 528.04651,34.682503 L 528.31607,35.031127 L 528.61013,35.411444 L 528.9287,35.823454 L 529.27177,36.267157 L 529.63935,36.742553 L 530.03144,37.249642 L 530.44803,37.788424 L 530.88912,38.358899 L 531.35472,38.961068 L 531.84483,39.594929 L 532.35944,40.260483 L 532.89856,40.957731 L 533.46218,41.686671 L 534.05031,42.447305 L 534.66294,43.239632 L 535.30008,44.063652 L 535.96172,44.919364 L 536.64787,45.80677 L 537.35852,46.725869 L 538.09369,47.676661 L 538.85335,48.659146 L 539.63752,49.673325 L 540.44619,50.719196 L 541.27938,51.79676 L 542.13706,52.906018 L 543.01925,54.046968 L 543.92595,55.219612 L 544.85715,56.423948 L 545.81286,57.659978 L 546.79307,58.9277 L 547.79779,60.227116 L 548.82701,61.558225 L 549.88074,62.921027 L 550.95897,64.315522 L 552.06171,65.74171 L 553.18896,67.199591 L 554.3407,68.689165 L 555.51696,70.210433 L 556.71772,71.763393 L 557.94299,73.348046 L 559.19276,74.964393 L 560.46703,76.612432 L 561.76581,78.292165 L 563.0891,80.003591 L 564.43689,81.746709 L 565.80919,83.521521 L 567.20599,85.328026 L 568.6273,87.166224 L 570.07311,89.036115 L 571.54343,90.937699 L 573.03826,92.870976 L 574.55759,94.835947 L 576.10142,96.83261 L 577.66976,98.860966 L 579.2626,100.92102 L 580.87996,103.01276 L 582.52181,105.13619 L 584.18817,107.29132 L 585.87904,109.47814 L 587.59441,111.69666 L 589.33429,113.94687 L 591.09867,116.22877 L 592.88756,118.54236 L 594.70095,120.88765 L 596.53885,123.26463 L 598.40125,125.6733 L 600.28816,128.11367 L 602.19958,130.58573 L 604.13549,133.08948 L 606.09592,135.62492 L 608.08085,138.19206 L 610.09028,140.79089 L 612.12423,143.42142 L 614.18267,146.08364 L 616.26562,148.77755 L 618.37308,151.50315 L 620.50504,154.26045 L 622.66151,157.04944 L 624.84248,159.87012 L 627.04796,162.7225 L 629.27794,165.60657 L 631.53243,168.52233 L 633.81142,171.46978 L 636.11492,174.44893 L 638.44293,177.45977 L 640.79544,180.50231 L 643.17245,183.57654 L 645.57397,186.68246 L 648,189.82007"
         clip-path="url(#p89fd195dff0080818b2649715a768222)"
         style="opacity:1;fill:none;stroke:#0000ff;stroke-width:1;stroke-linecap:square;stroke-linejoin:miter" />
    </g>
    <g
       id="matplotlib.axis5">
      <g
         id="xtick11">
        <g
           id="line2d46">
          <g
             id="g559">
            <path
               id="use561"
               d="M 526.69568,194.39999 L 526.69568,190.39999"
               style="opacity:1;stroke:#000000;stroke-width:0.5;stroke-linecap:butt;stroke-linejoin:miter" />
          </g>
        </g>
        <g
           id="line2d47">
          <g
             id="g564">
            <path
               id="use566"
               d="M 526.69568,21.6 L 526.69568,25.6"
               style="opacity:1;stroke:#000000;stroke-width:0.5;stroke-linecap:butt;stroke-linejoin:miter" />
          </g>
        </g>
        <g
           id="g568"
           transform="matrix(0.12,0,0,0.12,523.67222,207.30625)"
           style="opacity:1;fill:#000000">
          <path
             id="use570"
             d="M 31.78125,-66.40625 C 26.708333,-66.40625 22.890625,-63.90625 20.328125,-58.90625 C 17.776042,-53.916667 16.5,-46.40625 16.5,-36.375 C 16.5,-26.385417 17.776042,-18.890625 20.328125,-13.890625 C 22.890625,-8.890625 26.708333,-6.390625 31.78125,-6.390625 C 36.895833,-6.390625 40.729167,-8.890625 43.28125,-13.890625 C 45.84375,-18.890625 47.125,-26.385417 47.125,-36.375 C 47.125,-46.40625 45.84375,-53.916667 43.28125,-58.90625 C 40.729167,-63.90625 36.895833,-66.40625 31.78125,-66.40625 M 31.78125,-74.21875 C 39.958333,-74.21875 46.203125,-70.984375 50.515625,-64.515625 C 54.828125,-58.057292 56.984375,-48.677083 56.984375,-36.375 C 56.984375,-24.104167 54.828125,-14.734375 50.515625,-8.265625 C 46.203125,-1.8072917 39.958333,1.421875 31.78125,1.421875 C 23.614583,1.421875 17.375,-1.8072917 13.0625,-8.265625 C 8.75,-14.734375 6.59375,-24.104167 6.59375,-36.375 C 6.59375,-48.677083 8.75,-58.057292 13.0625,-64.515625 C 17.375,-70.984375 23.614583,-74.21875 31.78125,-74.21875" />
        </g>
      </g>
      <g
         id="xtick12">
        <g
           id="line2d48">
          <g
             id="g574">
            <path
               id="use576"
               d="M 550.95654,194.39999 L 550.95654,190.39999"
               style="opacity:1;stroke:#000000;stroke-width:0.5;stroke-linecap:butt;stroke-linejoin:miter" />
          </g>
        </g>
        <g
           id="line2d49">
          <g
             id="g579">
            <path
               id="use581"
               d="M 550.95654,21.6 L 550.95654,25.6"
               style="opacity:1;stroke:#000000;stroke-width:0.5;stroke-linecap:butt;stroke-linejoin:miter" />
          </g>
        </g>
        <g
           id="g583"
           transform="matrix(0.12,0,0,0.12,548.12058,207.15)"
           style="opacity:1;fill:#000000">
          <path
             id="use585"
             d="M 10.796875,-72.90625 L 49.515625,-72.90625 L 49.515625,-64.59375 L 19.828125,-64.59375 L 19.828125,-46.734375 C 21.255208,-47.223958 22.682292,-47.588542 24.109375,-47.828125 C 25.546875,-48.067708 26.984375,-48.1875 28.421875,-48.1875 C 36.557292,-48.1875 43,-45.958333 47.75,-41.5 C 52.510417,-37.041667 54.890625,-31.005208 54.890625,-23.390625 C 54.890625,-15.546875 52.447917,-9.4479167 47.5625,-5.09375 C 42.677083,-0.75 35.791667,1.421875 26.90625,1.421875 C 23.84375,1.421875 20.723958,1.1614583 17.546875,0.640625 C 14.380208,0.11979167 11.104167,-0.66145833 7.71875,-1.703125 L 7.71875,-11.625 C 10.645833,-10.03125 13.671875,-8.84375 16.796875,-8.0625 C 19.921875,-7.28125 23.223958,-6.890625 26.703125,-6.890625 C 32.338542,-6.890625 36.796875,-8.3697917 40.078125,-11.328125 C 43.369792,-14.286458 45.015625,-18.307292 45.015625,-23.390625 C 45.015625,-28.463542 43.369792,-32.479167 40.078125,-35.4375 C 36.796875,-38.40625 32.338542,-39.890625 26.703125,-39.890625 C 24.067708,-39.890625 21.4375,-39.598958 18.8125,-39.015625 C 16.197917,-38.432292 13.526042,-37.520833 10.796875,-36.28125 L 10.796875,-72.90625 z" />
        </g>
      </g>
      <g
         id="xtick13">
        <g
           id="line2d50">
          <g
             id="g589">
            <path
               id="use591"
               d="M 575.21741,194.39999 L 575.21741,190.39999"
               style="opacity:1;stroke:#000000;stroke-width:0.5;stroke-linecap:butt;stroke-linejoin:miter" />
          </g>
        </g>
        <g
           id="line2d51">
          <g
             id="g594">
            <path
               id="use596"
               d="M 575.21741,21.6 L 575.21741,25.6"
               style="opacity:1;stroke:#000000;stroke-width:0.5;stroke-linecap:butt;stroke-linejoin:miter" />
          </g>
        </g>
        <g
           id="g598"
           transform="matrix(0.12,0,0,0.12,568.63145,207.30625)"
           style="opacity:1;fill:#000000">
          <path
             id="use600"
             d="M 12.40625,-8.296875 L 28.515625,-8.296875 L 28.515625,-63.921875 L 10.984375,-60.40625 L 10.984375,-69.390625 L 28.421875,-72.90625 L 38.28125,-72.90625 L 38.28125,-8.296875 L 54.390625,-8.296875 L 54.390625,-1.5987212e-14 L 12.40625,-1.5987212e-14 L 12.40625,-8.296875 z" />
          <path
             id="use602"
             d="M 95.404297,-66.40625 C 90.33138,-66.40625 86.513672,-63.90625 83.951172,-58.90625 C 81.399089,-53.916667 80.123047,-46.40625 80.123047,-36.375 C 80.123047,-26.385417 81.399089,-18.890625 83.951172,-13.890625 C 86.513672,-8.890625 90.33138,-6.390625 95.404297,-6.390625 C 100.51888,-6.390625 104.35221,-8.890625 106.9043,-13.890625 C 109.4668,-18.890625 110.74805,-26.385417 110.74805,-36.375 C 110.74805,-46.40625 109.4668,-53.916667 106.9043,-58.90625 C 104.35221,-63.90625 100.51888,-66.40625 95.404297,-66.40625 M 95.404297,-74.21875 C 103.58138,-74.21875 109.82617,-70.984375 114.13867,-64.515625 C 118.45117,-58.057292 120.60742,-48.677083 120.60742,-36.375 C 120.60742,-24.104167 118.45117,-14.734375 114.13867,-8.265625 C 109.82617,-1.8072917 103.58138,1.421875 95.404297,1.421875 C 87.23763,1.421875 80.998047,-1.8072917 76.685547,-8.265625 C 72.373047,-14.734375 70.216797,-24.104167 70.216797,-36.375 C 70.216797,-48.677083 72.373047,-58.057292 76.685547,-64.515625 C 80.998047,-70.984375 87.23763,-74.21875 95.404297,-74.21875" />
        </g>
      </g>
      <g
         id="xtick14">
        <g
           id="line2d52">
          <g
             id="g606">
            <path
               id="use608"
               d="M 599.47827,194.39999 L 599.47827,190.39999"
               style="opacity:1;stroke:#000000;stroke-width:0.5;stroke-linecap:butt;stroke-linejoin:miter" />
          </g>
        </g>
        <g
           id="line2d53">
          <g
             id="g611">
            <path
               id="use613"
               d="M 599.47827,21.6 L 599.47827,25.6"
               style="opacity:1;stroke:#000000;stroke-width:0.5;stroke-linecap:butt;stroke-linejoin:miter" />
          </g>
        </g>
        <g
           id="g615"
           transform="matrix(0.12,0,0,0.12,593.01732,207.15)"
           style="opacity:1;fill:#000000">
          <path
             id="use617"
             d="M 12.40625,-8.296875 L 28.515625,-8.296875 L 28.515625,-63.921875 L 10.984375,-60.40625 L 10.984375,-69.390625 L 28.421875,-72.90625 L 38.28125,-72.90625 L 38.28125,-8.296875 L 54.390625,-8.296875 L 54.390625,-1.5987212e-14 L 12.40625,-1.5987212e-14 L 12.40625,-8.296875 z" />
          <path
             id="use619"
             d="M 74.419922,-72.90625 L 113.13867,-72.90625 L 113.13867,-64.59375 L 83.451172,-64.59375 L 83.451172,-46.734375 C 84.878255,-47.223958 86.305339,-47.588542 87.732422,-47.828125 C 89.169922,-48.067708 90.607422,-48.1875 92.044922,-48.1875 C 100.18034,-48.1875 106.62305,-45.958333 111.37305,-41.5 C 116.13346,-37.041667 118.51367,-31.005208 118.51367,-23.390625 C 118.51367,-15.546875 116.07096,-9.4479167 111.18555,-5.09375 C 106.30013,-0.75 99.414714,1.421875 90.529297,1.421875 C 87.466797,1.421875 84.347005,1.1614583 81.169922,0.640625 C 78.003255,0.11979167 74.727214,-0.66145833 71.341797,-1.703125 L 71.341797,-11.625 C 74.26888,-10.03125 77.294922,-8.84375 80.419922,-8.0625 C 83.544922,-7.28125 86.847005,-6.890625 90.326172,-6.890625 C 95.961589,-6.890625 100.41992,-8.3697917 103.70117,-11.328125 C 106.99284,-14.286458 108.63867,-18.307292 108.63867,-23.390625 C 108.63867,-28.463542 106.99284,-32.479167 103.70117,-35.4375 C 100.41992,-38.40625 95.961589,-39.890625 90.326172,-39.890625 C 87.690755,-39.890625 85.060547,-39.598958 82.435547,-39.015625 C 79.820964,-38.432292 77.149089,-37.520833 74.419922,-36.28125 L 74.419922,-72.90625 z" />
        </g>
      </g>
      <g
         id="xtick15">
        <g
           id="line2d54">
          <g
             id="g623">
            <path
               id="use625"
               d="M 623.73914,194.39999 L 623.73914,190.39999"
               style="opacity:1;stroke:#000000;stroke-width:0.5;stroke-linecap:butt;stroke-linejoin:miter" />
          </g>
        </g>
        <g
           id="line2d55">
          <g
             id="g628">
            <path
               id="use630"
               d="M 623.73914,21.6 L 623.73914,25.6"
               style="opacity:1;stroke:#000000;stroke-width:0.5;stroke-linecap:butt;stroke-linejoin:miter" />
          </g>
        </g>
        <g
           id="g632"
           transform="matrix(0.12,0,0,0.12,616.93444,207.30625)"
           style="opacity:1;fill:#000000">
          <path
             id="use634"
             d="M 19.1875,-8.296875 L 53.609375,-8.296875 L 53.609375,0 L 7.328125,0 L 7.328125,-8.296875 C 11.067708,-12.171875 16.166667,-17.369792 22.625,-23.890625 C 29.09375,-30.421875 33.15625,-34.635417 34.8125,-36.53125 C 37.96875,-40.072917 40.171875,-43.072917 41.421875,-45.53125 C 42.682292,-47.989583 43.3125,-50.40625 43.3125,-52.78125 C 43.3125,-56.65625 41.953125,-59.8125 39.234375,-62.25 C 36.515625,-64.697917 32.973958,-65.921875 28.609375,-65.921875 C 25.515625,-65.921875 22.25,-65.385417 18.8125,-64.3125 C 15.385417,-63.239583 11.71875,-61.609375 7.8125,-59.421875 L 7.8125,-69.390625 C 11.78125,-70.984375 15.489583,-72.1875 18.9375,-73 C 22.395833,-73.8125 25.557292,-74.21875 28.421875,-74.21875 C 35.973958,-74.21875 41.994792,-72.328125 46.484375,-68.546875 C 50.973958,-64.776042 53.21875,-59.734375 53.21875,-53.421875 C 53.21875,-50.421875 52.65625,-47.578125 51.53125,-44.890625 C 50.416667,-42.213542 48.375,-39.052083 45.40625,-35.40625 C 44.59375,-34.458333 42.005208,-31.729167 37.640625,-27.21875 C 33.286458,-22.708333 27.135417,-16.401042 19.1875,-8.296875" />
          <path
             id="use636"
             d="M 95.404297,-66.40625 C 90.33138,-66.40625 86.513672,-63.90625 83.951172,-58.90625 C 81.399089,-53.916667 80.123047,-46.40625 80.123047,-36.375 C 80.123047,-26.385417 81.399089,-18.890625 83.951172,-13.890625 C 86.513672,-8.890625 90.33138,-6.390625 95.404297,-6.390625 C 100.51888,-6.390625 104.35221,-8.890625 106.9043,-13.890625 C 109.4668,-18.890625 110.74805,-26.385417 110.74805,-36.375 C 110.74805,-46.40625 109.4668,-53.916667 106.9043,-58.90625 C 104.35221,-63.90625 100.51888,-66.40625 95.404297,-66.40625 M 95.404297,-74.21875 C 103.58138,-74.21875 109.82617,-70.984375 114.13867,-64.515625 C 118.45117,-58.057292 120.60742,-48.677083 120.60742,-36.375 C 120.60742,-24.104167 118.45117,-14.734375 114.13867,-8.265625 C 109.82617,-1.8072917 103.58138,1.421875 95.404297,1.421875 C 87.23763,1.421875 80.998047,-1.8072917 76.685547,-8.265625 C 72.373047,-14.734375 70.216797,-24.104167 70.216797,-36.375 C 70.216797,-48.677083 72.373047,-58.057292 76.685547,-64.515625 C 80.998047,-70.984375 87.23763,-74.21875 95.404297,-74.21875" />
        </g>
      </g>
      <g
         id="xtick16">
        <g
           id="line2d56">
          <g
             id="g640">
            <path
               id="use642"
               d="M 648,194.39999 L 648,190.39999"
               style="opacity:1;stroke:#000000;stroke-width:0.5;stroke-linecap:butt;stroke-linejoin:miter" />
          </g>
        </g>
        <g
           id="line2d57">
          <g
             id="g645">
            <path
               id="use647"
               d="M 648,21.6 L 648,25.6"
               style="opacity:1;stroke:#000000;stroke-width:0.5;stroke-linecap:butt;stroke-linejoin:miter" />
          </g>
        </g>
        <g
           id="g649"
           transform="matrix(0.12,0,0,0.12,641.32031,207.30625)"
           style="opacity:1;fill:#000000">
          <path
             id="use651"
             d="M 19.1875,-8.296875 L 53.609375,-8.296875 L 53.609375,0 L 7.328125,0 L 7.328125,-8.296875 C 11.067708,-12.171875 16.166667,-17.369792 22.625,-23.890625 C 29.09375,-30.421875 33.15625,-34.635417 34.8125,-36.53125 C 37.96875,-40.072917 40.171875,-43.072917 41.421875,-45.53125 C 42.682292,-47.989583 43.3125,-50.40625 43.3125,-52.78125 C 43.3125,-56.65625 41.953125,-59.8125 39.234375,-62.25 C 36.515625,-64.697917 32.973958,-65.921875 28.609375,-65.921875 C 25.515625,-65.921875 22.25,-65.385417 18.8125,-64.3125 C 15.385417,-63.239583 11.71875,-61.609375 7.8125,-59.421875 L 7.8125,-69.390625 C 11.78125,-70.984375 15.489583,-72.1875 18.9375,-73 C 22.395833,-73.8125 25.557292,-74.21875 28.421875,-74.21875 C 35.973958,-74.21875 41.994792,-72.328125 46.484375,-68.546875 C 50.973958,-64.776042 53.21875,-59.734375 53.21875,-53.421875 C 53.21875,-50.421875 52.65625,-47.578125 51.53125,-44.890625 C 50.416667,-42.213542 48.375,-39.052083 45.40625,-35.40625 C 44.59375,-34.458333 42.005208,-31.729167 37.640625,-27.21875 C 33.286458,-22.708333 27.135417,-16.401042 19.1875,-8.296875" />
          <path
             id="use653"
             d="M 74.419922,-72.90625 L 113.13867,-72.90625 L 113.13867,-64.59375 L 83.451172,-64.59375 L 83.451172,-46.734375 C 84.878255,-47.223958 86.305339,-47.588542 87.732422,-47.828125 C 89.169922,-48.067708 90.607422,-48.1875 92.044922,-48.1875 C 100.18034,-48.1875 106.62305,-45.958333 111.37305,-41.5 C 116.13346,-37.041667 118.51367,-31.005208 118.51367,-23.390625 C 118.51367,-15.546875 116.07096,-9.4479167 111.18555,-5.09375 C 106.30013,-0.75 99.414714,1.421875 90.529297,1.421875 C 87.466797,1.421875 84.347005,1.1614583 81.169922,0.640625 C 78.003255,0.11979167 74.727214,-0.66145833 71.341797,-1.703125 L 71.341797,-11.625 C 74.26888,-10.03125 77.294922,-8.84375 80.419922,-8.0625 C 83.544922,-7.28125 86.847005,-6.890625 90.326172,-6.890625 C 95.961589,-6.890625 100.41992,-8.3697917 103.70117,-11.328125 C 106.99284,-14.286458 108.63867,-18.307292 108.63867,-23.390625 C 108.63867,-28.463542 106.99284,-32.479167 103.70117,-35.4375 C 100.41992,-38.40625 95.961589,-39.890625 90.326172,-39.890625 C 87.690755,-39.890625 85.060547,-39.598958 82.435547,-39.015625 C 79.820964,-38.432292 77.149089,-37.520833 74.419922,-36.28125 L 74.419922,-72.90625 z" />
        </g>
      </g>
      <defs
         id="defs655">
        <path
           d="M 4.890625,-31.390625 L 31.203125,-31.390625 L 31.203125,-23.390625 L 4.890625,-23.390625 L 4.890625,-31.390625 z"
           id="c_7b26b13f539f13a4c64eef23b6952d29" />
        <path
           d="M 46.6875,-72.90625 L 73.1875,-45.703125 L 63.375,-45.703125 L 41.890625,-64.984375 L 20.40625,-45.703125 L 10.59375,-45.703125 L 37.109375,-72.90625 L 46.6875,-72.90625 z"
           id="c_2980d33c6bfe3d2427dc2327ab0525d7" />
      </defs>
      <g
         id="g659"
         transform="matrix(0.12,0,0,0.12,561.56658,221.5875)"
         style="opacity:1;fill:#000000">
        <path
           id="use661"
           d="M 31,-75.875 C 26.645833,-68.395833 23.40625,-60.989583 21.28125,-53.65625 C 19.166667,-46.333333 18.109375,-38.911458 18.109375,-31.390625 C 18.109375,-23.880208 19.177083,-16.4375 21.3125,-9.0625 C 23.447917,-1.6875 26.677083,5.7291667 31,13.1875 L 23.1875,13.1875 C 18.3125,5.53125 14.661458,-1.9895833 12.234375,-9.375 C 9.8072917,-16.760417 8.59375,-24.098958 8.59375,-31.390625 C 8.59375,-38.651042 9.796875,-45.958333 12.203125,-53.3125 C 14.619792,-60.677083 18.28125,-68.197917 23.1875,-75.875 L 31,-75.875 z" />
        <path
           id="use663"
           d="M 93.904297,-54.6875 L 74.123047,-28.078125 L 94.919922,3.5527137e-15 L 84.326172,3.5527137e-15 L 68.404297,-21.484375 L 52.498047,3.5527137e-15 L 41.888672,3.5527137e-15 L 63.138672,-28.609375 L 43.701172,-54.6875 L 54.294922,-54.6875 L 68.794922,-35.203125 L 83.294922,-54.6875 L 93.904297,-54.6875 z" />
        <use
           height="216"
           width="720"
           y="0"
           id="use665"
           x="98.193359"
           xlink:href="#c_7b26b13f539f13a4c64eef23b6952d29" />
        <path
           id="use667"
           d="M 146.68359,-8.296875 L 162.79297,-8.296875 L 162.79297,-63.921875 L 145.26172,-60.40625 L 145.26172,-69.390625 L 162.69922,-72.90625 L 172.55859,-72.90625 L 172.55859,-8.296875 L 188.66797,-8.296875 L 188.66797,-1.5987212e-14 L 146.68359,-1.5987212e-14 L 146.68359,-8.296875 z" />
        <path
           id="use669"
           d="M 229.68164,-66.40625 C 224.60872,-66.40625 220.79102,-63.90625 218.22852,-58.90625 C 215.67643,-53.916667 214.40039,-46.40625 214.40039,-36.375 C 214.40039,-26.385417 215.67643,-18.890625 218.22852,-13.890625 C 220.79102,-8.890625 224.60872,-6.390625 229.68164,-6.390625 C 234.79622,-6.390625 238.62956,-8.890625 241.18164,-13.890625 C 243.74414,-18.890625 245.02539,-26.385417 245.02539,-36.375 C 245.02539,-46.40625 243.74414,-53.916667 241.18164,-58.90625 C 238.62956,-63.90625 234.79622,-66.40625 229.68164,-66.40625 M 229.68164,-74.21875 C 237.85872,-74.21875 244.10352,-70.984375 248.41602,-64.515625 C 252.72852,-58.057292 254.88477,-48.677083 254.88477,-36.375 C 254.88477,-24.104167 252.72852,-14.734375 248.41602,-8.265625 C 244.10352,-1.8072917 237.85872,1.421875 229.68164,1.421875 C 221.51497,1.421875 215.27539,-1.8072917 210.96289,-8.265625 C 206.65039,-14.734375 204.49414,-24.104167 204.49414,-36.375 C 204.49414,-48.677083 206.65039,-58.057292 210.96289,-64.515625 C 215.27539,-70.984375 221.51497,-74.21875 229.68164,-74.21875" />
        <path
           id="use671"
           d="M 269.53906,-75.875 L 277.35156,-75.875 C 282.22656,-68.197917 285.8776,-60.677083 288.30469,-53.3125 C 290.73177,-45.958333 291.94531,-38.651042 291.94531,-31.390625 C 291.94531,-24.098958 290.73177,-16.760417 288.30469,-9.375 C 285.8776,-1.9895833 282.22656,5.53125 277.35156,13.1875 L 269.53906,13.1875 C 273.86198,5.7291667 277.09115,-1.6875 279.22656,-9.0625 C 281.36198,-16.4375 282.42969,-23.880208 282.42969,-31.390625 C 282.42969,-38.911458 281.36198,-46.333333 279.22656,-53.65625 C 277.09115,-60.989583 273.86198,-68.395833 269.53906,-75.875" />
        <path
           id="use675"
           d="M 311.16784,-48.435045 L 332.04569,-48.435045 L 332.04569,-43.402755 L 303.9748,-43.402755 L 303.9748,-48.435045 C 306.24296,-50.785343 309.33563,-53.938027 313.25279,-57.893097 C 317.17627,-61.854486 319.64029,-64.410118 320.64485,-65.559995 C 322.55921,-67.708116 323.89547,-69.527702 324.65363,-71.01875 C 325.4181,-72.509799 325.80034,-73.975576 325.80034,-75.416081 C 325.80034,-77.766378 324.97584,-79.680734 323.32685,-81.159147 C 321.67785,-82.643878 319.52972,-83.386243 316.88248,-83.386243 C 315.00603,-83.386243 313.02534,-83.060866 310.9404,-82.410111 C 308.86178,-81.759357 306.63784,-80.770589 304.26858,-79.443808 L 304.26858,-85.490138 C 306.67574,-86.456793 308.92495,-87.186522 311.01621,-87.679327 C 313.11379,-88.172131 315.0313,-88.418533 316.76876,-88.418533 C 321.34931,-88.418533 325.00111,-87.271815 327.72418,-84.97838 C 330.44723,-82.691263 331.80876,-79.633349 331.80876,-75.804638 C 331.80876,-73.985053 331.46759,-72.260238 330.78525,-70.630193 C 330.10922,-69.006466 328.87089,-67.088952 327.07026,-64.87765 C 326.57746,-64.302712 325.00743,-62.647395 322.36019,-59.911699 C 319.71926,-57.176004 315.98848,-53.350453 311.16784,-48.435045" />
      </g>
    </g>
    <g
       id="matplotlib.axis6">
      <g
         id="ytick12">
        <g
           id="line2d58">
          <g
             id="g680">
            <path
               id="use682"
               d="M 526.69568,183.19751 L 530.69568,183.19751"
               style="opacity:1;stroke:#000000;stroke-width:0.5;stroke-linecap:butt;stroke-linejoin:miter" />
          </g>
        </g>
        <g
           id="line2d59">
          <g
             id="g685">
            <path
               id="use687"
               d="M 648,183.19751 L 644,183.19751"
               style="opacity:1;stroke:#000000;stroke-width:0.5;stroke-linecap:butt;stroke-linejoin:miter" />
          </g>
        </g>
        <g
           id="mathtext1">
          <g
             id="g690"
             transform="translate(495.69565,190.1975)"
             style="fill:#000000">
            <path
               id="use692"
               d="M 1.48875,-2.46125 L 3.421875,-2.46125 L 3.421875,-9.13625 L 1.318125,-8.714375 L 1.318125,-9.7925 L 3.410625,-10.214375 L 4.59375,-10.214375 L 4.59375,-2.46125 L 6.526875,-2.46125 L 6.526875,-1.465625 L 1.48875,-1.465625 L 1.48875,-2.46125 z" />
            <path
               id="use694"
               d="M 11.448516,-9.434375 C 10.839766,-9.434375 10.381641,-9.134375 10.074141,-8.534375 C 9.767891,-7.935625 9.614766,-7.034375 9.614766,-5.830625 C 9.614766,-4.631875 9.767891,-3.7325 10.074141,-3.1325 C 10.381641,-2.5325 10.839766,-2.2325 11.448516,-2.2325 C 12.062266,-2.2325 12.522266,-2.5325 12.828516,-3.1325 C 13.136016,-3.7325 13.289766,-4.631875 13.289766,-5.830625 C 13.289766,-7.034375 13.136016,-7.935625 12.828516,-8.534375 C 12.522266,-9.134375 12.062266,-9.434375 11.448516,-9.434375 M 11.448516,-10.371875 C 12.429766,-10.371875 13.179141,-9.98375 13.696641,-9.2075 C 14.214141,-8.4325 14.472891,-7.306875 14.472891,-5.830625 C 14.472891,-4.358125 14.214141,-3.23375 13.696641,-2.4575 C 13.179141,-1.6825 12.429766,-1.295 11.448516,-1.295 C 10.468516,-1.295 9.719766,-1.6825 9.202266,-2.4575 C 8.684766,-3.23375 8.426016,-4.358125 8.426016,-5.830625 C 8.426016,-7.306875 8.684766,-8.4325 9.202266,-9.2075 C 9.719766,-9.98375 10.468516,-10.371875 11.448516,-10.371875" />
            <use
               height="216"
               width="720"
               y="0"
               x="0"
               id="use696"
               transform="matrix(8.4e-2,0,0,8.4e-2,15.269531,-7.765625)"
               xlink:href="#c_7b26b13f539f13a4c64eef23b6952d29" />
            <path
               id="use698"
               d="M 19.912336,-8.4625625 L 22.803773,-8.4625625 L 22.803773,-7.765625 L 18.916148,-7.765625 L 18.916148,-8.4625625 C 19.230273,-8.7880625 19.658586,-9.2246875 20.201086,-9.7724375 C 20.744461,-10.321063 21.085711,-10.675 21.224836,-10.83425 C 21.489961,-11.13175 21.675023,-11.38375 21.780023,-11.59025 C 21.885899,-11.79675 21.938836,-11.99975 21.938836,-12.19925 C 21.938836,-12.52475 21.824648,-12.789875 21.596273,-12.994625 C 21.367898,-13.20025 21.070398,-13.303063 20.703774,-13.303063 C 20.443898,-13.303063 20.169586,-13.258 19.880836,-13.167875 C 19.592961,-13.07775 19.284961,-12.940813 18.956836,-12.757062 L 18.956836,-13.594438 C 19.290211,-13.728313 19.601711,-13.829375 19.891336,-13.897625 C 20.181836,-13.965875 20.447399,-14 20.688023,-14 C 21.322398,-14 21.828149,-13.841188 22.205274,-13.523563 C 22.582398,-13.206813 22.770961,-12.783313 22.770961,-12.253063 C 22.770961,-12.001062 22.723711,-11.762188 22.629211,-11.536437 C 22.535586,-11.311563 22.364086,-11.046 22.114711,-10.73975 C 22.046461,-10.660125 21.829023,-10.430875 21.462398,-10.052 C 21.096648,-9.673125 20.579961,-9.1433125 19.912336,-8.4625625" />
          </g>
        </g>
      </g>
      <g
         id="ytick13">
        <g
           id="line2d60">
          <g
             id="g702">
            <path
               id="use704"
               d="M 526.69568,67.600624 L 530.69568,67.600624"
               style="opacity:1;stroke:#000000;stroke-width:0.5;stroke-linecap:butt;stroke-linejoin:miter" />
          </g>
        </g>
        <g
           id="line2d61">
          <g
             id="g707">
            <path
               id="use709"
               d="M 648,67.600624 L 644,67.600624"
               style="opacity:1;stroke:#000000;stroke-width:0.5;stroke-linecap:butt;stroke-linejoin:miter" />
          </g>
        </g>
        <g
           id="mathtext2">
          <g
             id="g712"
             transform="translate(495.69565,74.600624)"
             style="fill:#000000">
            <path
               id="use714"
               d="M 1.48875,-2.570625 L 3.421875,-2.570625 L 3.421875,-9.245625 L 1.318125,-8.82375 L 1.318125,-9.901875 L 3.410625,-10.32375 L 4.59375,-10.32375 L 4.59375,-2.570625 L 6.526875,-2.570625 L 6.526875,-1.575 L 1.48875,-1.575 L 1.48875,-2.570625 z" />
            <path
               id="use716"
               d="M 11.448516,-9.54375 C 10.839766,-9.54375 10.381641,-9.24375 10.074141,-8.64375 C 9.767891,-8.045 9.614766,-7.14375 9.614766,-5.94 C 9.614766,-4.74125 9.767891,-3.841875 10.074141,-3.241875 C 10.381641,-2.641875 10.839766,-2.341875 11.448516,-2.341875 C 12.062266,-2.341875 12.522266,-2.641875 12.828516,-3.241875 C 13.136016,-3.841875 13.289766,-4.74125 13.289766,-5.94 C 13.289766,-7.14375 13.136016,-8.045 12.828516,-8.64375 C 12.522266,-9.24375 12.062266,-9.54375 11.448516,-9.54375 M 11.448516,-10.48125 C 12.429766,-10.48125 13.179141,-10.093125 13.696641,-9.316875 C 14.214141,-8.541875 14.472891,-7.41625 14.472891,-5.94 C 14.472891,-4.4675 14.214141,-3.343125 13.696641,-2.566875 C 13.179141,-1.791875 12.429766,-1.404375 11.448516,-1.404375 C 10.468516,-1.404375 9.719766,-1.791875 9.202266,-2.566875 C 8.684766,-3.343125 8.426016,-4.4675 8.426016,-5.94 C 8.426016,-7.41625 8.684766,-8.541875 9.202266,-9.316875 C 9.719766,-10.093125 10.468516,-10.48125 11.448516,-10.48125" />
            <use
               height="216"
               width="720"
               y="0"
               x="0"
               id="use718"
               transform="matrix(8.4e-2,0,0,8.4e-2,15.269531,-7.875)"
               xlink:href="#c_7b26b13f539f13a4c64eef23b6952d29" />
            <path
               id="use720"
               d="M 19.342711,-8.5719375 L 20.695898,-8.5719375 L 20.695898,-13.244438 L 19.223273,-12.949125 L 19.223273,-13.703813 L 20.688023,-13.999125 L 21.516211,-13.999125 L 21.516211,-8.5719375 L 22.869398,-8.5719375 L 22.869398,-7.875 L 19.342711,-7.875 L 19.342711,-8.5719375 z" />
          </g>
        </g>
      </g>
      <g
         id="ytick14">
        <g
           id="line2d62">
          <defs
             id="defs724">
            <path
               d="M 0,0 L 2,0"
               id="mb39cfcf7402899e54c4d755745537394" />
          </defs>
          <g
             id="g727">
            <use
               height="216"
               width="720"
               id="use729"
               y="194.39999"
               x="526.69568"
               xlink:href="#mb39cfcf7402899e54c4d755745537394"
               style="opacity:1;fill:none;stroke:#000000;stroke-width:0.5;stroke-linecap:butt;stroke-linejoin:miter" />
          </g>
        </g>
        <g
           id="line2d63">
          <defs
             id="defs732">
            <path
               d="M 0,0 L -2,0"
               id="m6046ccd8b6d57b9fb587e3fdd930e9c5" />
          </defs>
          <g
             id="g735">
            <use
               height="216"
               width="720"
               id="use737"
               y="194.39999"
               x="648"
               xlink:href="#m6046ccd8b6d57b9fb587e3fdd930e9c5"
               style="opacity:1;fill:none;stroke:#000000;stroke-width:0.5;stroke-linecap:butt;stroke-linejoin:miter" />
          </g>
        </g>
      </g>
      <g
         id="ytick15">
        <g
           id="line2d64">
          <g
             id="g741">
            <use
               height="216"
               width="720"
               id="use743"
               y="188.48692"
               x="526.69568"
               xlink:href="#mb39cfcf7402899e54c4d755745537394"
               style="opacity:1;fill:none;stroke:#000000;stroke-width:0.5;stroke-linecap:butt;stroke-linejoin:miter" />
          </g>
        </g>
        <g
           id="line2d65">
          <g
             id="g746">
            <use
               height="216"
               width="720"
               id="use748"
               y="188.48692"
               x="648"
               xlink:href="#m6046ccd8b6d57b9fb587e3fdd930e9c5"
               style="opacity:1;fill:none;stroke:#000000;stroke-width:0.5;stroke-linecap:butt;stroke-linejoin:miter" />
          </g>
        </g>
      </g>
      <g
         id="ytick16">
        <g
           id="line2d66">
          <g
             id="g752">
            <use
               height="216"
               width="720"
               id="use754"
               y="148.39938"
               x="526.69568"
               xlink:href="#mb39cfcf7402899e54c4d755745537394"
               style="opacity:1;fill:none;stroke:#000000;stroke-width:0.5;stroke-linecap:butt;stroke-linejoin:miter" />
          </g>
        </g>
        <g
           id="line2d67">
          <g
             id="g757">
            <use
               height="216"
               width="720"
               id="use759"
               y="148.39938"
               x="648"
               xlink:href="#m6046ccd8b6d57b9fb587e3fdd930e9c5"
               style="opacity:1;fill:none;stroke:#000000;stroke-width:0.5;stroke-linecap:butt;stroke-linejoin:miter" />
          </g>
        </g>
      </g>
      <g
         id="ytick17">
        <g
           id="line2d68">
          <g
             id="g763">
            <use
               height="216"
               width="720"
               id="use765"
               y="128.04378"
               x="526.69568"
               xlink:href="#mb39cfcf7402899e54c4d755745537394"
               style="opacity:1;fill:none;stroke:#000000;stroke-width:0.5;stroke-linecap:butt;stroke-linejoin:miter" />
          </g>
        </g>
        <g
           id="line2d69">
          <g
             id="g768">
            <use
               height="216"
               width="720"
               id="use770"
               y="128.04378"
               x="648"
               xlink:href="#m6046ccd8b6d57b9fb587e3fdd930e9c5"
               style="opacity:1;fill:none;stroke:#000000;stroke-width:0.5;stroke-linecap:butt;stroke-linejoin:miter" />
          </g>
        </g>
      </g>
      <g
         id="ytick18">
        <g
           id="line2d70">
          <g
             id="g774">
            <use
               height="216"
               width="720"
               id="use776"
               y="113.60125"
               x="526.69568"
               xlink:href="#mb39cfcf7402899e54c4d755745537394"
               style="opacity:1;fill:none;stroke:#000000;stroke-width:0.5;stroke-linecap:butt;stroke-linejoin:miter" />
          </g>
        </g>
        <g
           id="line2d71">
          <g
             id="g779">
            <use
               height="216"
               width="720"
               id="use781"
               y="113.60125"
               x="648"
               xlink:href="#m6046ccd8b6d57b9fb587e3fdd930e9c5"
               style="opacity:1;fill:none;stroke:#000000;stroke-width:0.5;stroke-linecap:butt;stroke-linejoin:miter" />
          </g>
        </g>
      </g>
      <g
         id="ytick19">
        <g
           id="line2d72">
          <g
             id="g785">
            <use
               height="216"
               width="720"
               id="use787"
               y="102.39875"
               x="526.69568"
               xlink:href="#mb39cfcf7402899e54c4d755745537394"
               style="opacity:1;fill:none;stroke:#000000;stroke-width:0.5;stroke-linecap:butt;stroke-linejoin:miter" />
          </g>
        </g>
        <g
           id="line2d73">
          <g
             id="g790">
            <use
               height="216"
               width="720"
               id="use792"
               y="102.39875"
               x="648"
               xlink:href="#m6046ccd8b6d57b9fb587e3fdd930e9c5"
               style="opacity:1;fill:none;stroke:#000000;stroke-width:0.5;stroke-linecap:butt;stroke-linejoin:miter" />
          </g>
        </g>
      </g>
      <g
         id="ytick20">
        <g
           id="line2d74">
          <g
             id="g796">
            <use
               height="216"
               width="720"
               id="use798"
               y="93.245644"
               x="526.69568"
               xlink:href="#mb39cfcf7402899e54c4d755745537394"
               style="opacity:1;fill:none;stroke:#000000;stroke-width:0.5;stroke-linecap:butt;stroke-linejoin:miter" />
          </g>
        </g>
        <g
           id="line2d75">
          <g
             id="g801">
            <use
               height="216"
               width="720"
               id="use803"
               y="93.245644"
               x="648"
               xlink:href="#m6046ccd8b6d57b9fb587e3fdd930e9c5"
               style="opacity:1;fill:none;stroke:#000000;stroke-width:0.5;stroke-linecap:butt;stroke-linejoin:miter" />
          </g>
        </g>
      </g>
      <g
         id="ytick21">
        <g
           id="line2d76">
          <g
             id="g807">
            <use
               height="216"
               width="720"
               id="use809"
               y="85.506805"
               x="526.69568"
               xlink:href="#mb39cfcf7402899e54c4d755745537394"
               style="opacity:1;fill:none;stroke:#000000;stroke-width:0.5;stroke-linecap:butt;stroke-linejoin:miter" />
          </g>
        </g>
        <g
           id="line2d77">
          <g
             id="g812">
            <use
               height="216"
               width="720"
               id="use814"
               y="85.506805"
               x="648"
               xlink:href="#m6046ccd8b6d57b9fb587e3fdd930e9c5"
               style="opacity:1;fill:none;stroke:#000000;stroke-width:0.5;stroke-linecap:butt;stroke-linejoin:miter" />
          </g>
        </g>
      </g>
      <g
         id="ytick22">
        <g
           id="line2d78">
          <g
             id="g818">
            <use
               height="216"
               width="720"
               id="use820"
               y="78.803116"
               x="526.69568"
               xlink:href="#mb39cfcf7402899e54c4d755745537394"
               style="opacity:1;fill:none;stroke:#000000;stroke-width:0.5;stroke-linecap:butt;stroke-linejoin:miter" />
          </g>
        </g>
        <g
           id="line2d79">
          <g
             id="g823">
            <use
               height="216"
               width="720"
               id="use825"
               y="78.803116"
               x="648"
               xlink:href="#m6046ccd8b6d57b9fb587e3fdd930e9c5"
               style="opacity:1;fill:none;stroke:#000000;stroke-width:0.5;stroke-linecap:butt;stroke-linejoin:miter" />
          </g>
        </g>
      </g>
      <g
         id="ytick23">
        <g
           id="line2d80">
          <g
             id="g829">
            <use
               height="216"
               width="720"
               id="use831"
               y="72.890045"
               x="526.69568"
               xlink:href="#mb39cfcf7402899e54c4d755745537394"
               style="opacity:1;fill:none;stroke:#000000;stroke-width:0.5;stroke-linecap:butt;stroke-linejoin:miter" />
          </g>
        </g>
        <g
           id="line2d81">
          <g
             id="g834">
            <use
               height="216"
               width="720"
               id="use836"
               y="72.890045"
               x="648"
               xlink:href="#m6046ccd8b6d57b9fb587e3fdd930e9c5"
               style="opacity:1;fill:none;stroke:#000000;stroke-width:0.5;stroke-linecap:butt;stroke-linejoin:miter" />
          </g>
        </g>
      </g>
      <g
         id="ytick24">
        <g
           id="line2d82">
          <g
             id="g840">
            <use
               height="216"
               width="720"
               id="use842"
               y="32.802494"
               x="526.69568"
               xlink:href="#mb39cfcf7402899e54c4d755745537394"
               style="opacity:1;fill:none;stroke:#000000;stroke-width:0.5;stroke-linecap:butt;stroke-linejoin:miter" />
          </g>
        </g>
        <g
           id="line2d83">
          <g
             id="g845">
            <use
               height="216"
               width="720"
               id="use847"
               y="32.802494"
               x="648"
               xlink:href="#m6046ccd8b6d57b9fb587e3fdd930e9c5"
               style="opacity:1;fill:none;stroke:#000000;stroke-width:0.5;stroke-linecap:butt;stroke-linejoin:miter" />
          </g>
        </g>
      </g>
      <g
         id="g849"
         transform="matrix(0,-0.12,0.12,0,490.69565,119.875)"
         style="opacity:1;fill:#000000">
        <path
           id="use851"
           d="M 3.328125,-72.90625 L 13.28125,-72.90625 L 28.609375,-11.28125 L 43.890625,-72.90625 L 54.984375,-72.90625 L 70.3125,-11.28125 L 85.59375,-72.90625 L 95.609375,-72.90625 L 77.296875,0 L 64.890625,0 L 49.515625,-63.28125 L 33.984375,0 L 21.578125,0 L 3.328125,-72.90625 z" />
        <path
           id="use853"
           d="M 129.87695,-75.875 C 125.52279,-68.395833 122.2832,-60.989583 120.1582,-53.65625 C 118.04362,-46.333333 116.98633,-38.911458 116.98633,-31.390625 C 116.98633,-23.880208 118.05404,-16.4375 120.18945,-9.0625 C 122.32487,-1.6875 125.55404,5.7291667 129.87695,13.1875 L 122.06445,13.1875 C 117.18945,5.53125 113.53841,-1.9895833 111.11133,-9.375 C 108.68424,-16.760417 107.4707,-24.098958 107.4707,-31.390625 C 107.4707,-38.651042 108.67383,-45.958333 111.08008,-53.3125 C 113.49675,-60.677083 117.1582,-68.197917 122.06445,-75.875 L 129.87695,-75.875 z" />
        <path
           id="use855"
           d="M 192.78125,-54.6875 L 173,-28.078125 L 193.79688,3.5527137e-15 L 183.20312,3.5527137e-15 L 167.28125,-21.484375 L 151.375,3.5527137e-15 L 140.76562,3.5527137e-15 L 162.01562,-28.609375 L 142.57812,-54.6875 L 153.17188,-54.6875 L 167.67188,-35.203125 L 182.17188,-54.6875 L 192.78125,-54.6875 z" />
        <path
           id="use857"
           d="M 205.08594,-75.875 L 212.89844,-75.875 C 217.77344,-68.197917 221.42448,-60.677083 223.85156,-53.3125 C 226.27865,-45.958333 227.49219,-38.651042 227.49219,-31.390625 C 227.49219,-24.098958 226.27865,-16.760417 223.85156,-9.375 C 221.42448,-1.9895833 217.77344,5.53125 212.89844,13.1875 L 205.08594,13.1875 C 209.40885,5.7291667 212.63802,-1.6875 214.77344,-9.0625 C 216.90885,-16.4375 217.97656,-23.880208 217.97656,-31.390625 C 217.97656,-38.911458 216.90885,-46.333333 214.77344,-53.65625 C 212.63802,-60.989583 209.40885,-68.395833 205.08594,-75.875" />
      </g>
    </g>
    <path
       id="path859"
       d="M 526.69565,194.4 L 648,194.4 L 648,21.6 L 526.69565,21.6 L 526.69565,194.4"
       style="opacity:1;fill:none;stroke:#000000;stroke-width:1;stroke-linecap:square;stroke-linejoin:miter" />
  </g>
</svg>
