<?xml version="1.0" encoding="UTF-8" standalone="no"?>
<!-- Created with matplotlib (http://matplotlib.sourceforge.net/) -->
<svg
   xmlns:dc="http://purl.org/dc/elements/1.1/"
   xmlns:cc="http://creativecommons.org/ns#"
   xmlns:rdf="http://www.w3.org/1999/02/22-rdf-syntax-ns#"
   xmlns:svg="http://www.w3.org/2000/svg"
   xmlns="http://www.w3.org/2000/svg"
   xmlns:xlink="http://www.w3.org/1999/xlink"
   xmlns:sodipodi="http://sodipodi.sourceforge.net/DTD/sodipodi-0.dtd"
   xmlns:inkscape="http://www.inkscape.org/namespaces/inkscape"
   width="216.02"
   height="258.32999"
   viewBox="0 0 720 216"
   version="1.0"
   id="svg1"
   sodipodi:version="0.32"
   inkscape:version="0.46"
   sodipodi:docname="GP1-FA-Kurven3.svg"
   inkscape:output_extension="org.inkscape.output.svg.inkscape">
  <metadata
     id="metadata1256">
    <rdf:RDF>
      <cc:Work
         rdf:about="">
        <dc:format>image/svg+xml</dc:format>
        <dc:type
           rdf:resource="http://purl.org/dc/dcmitype/StillImage" />
      </cc:Work>
    </rdf:RDF>
  </metadata>
  <defs
     id="defs1254">
    <inkscape:perspective
       sodipodi:type="inkscape:persp3d"
       inkscape:vp_x="0 : 135 : 1"
       inkscape:vp_y="0 : 1000 : 0"
       inkscape:vp_z="900 : 135 : 1"
       inkscape:persp3d-origin="450 : 90 : 1"
       id="perspective1258" />
  </defs>
  <sodipodi:namedview
     inkscape:window-height="736"
     inkscape:window-width="1280"
     inkscape:pageshadow="2"
     inkscape:pageopacity="0.0"
     guidetolerance="10.0"
     gridtolerance="10.0"
     objecttolerance="10.0"
     borderopacity="1.0"
     bordercolor="#666666"
     pagecolor="#ffffff"
     id="base"
     showgrid="false"
     inkscape:zoom="0.87366971"
     inkscape:cx="579.47903"
     inkscape:cy="239.68635"
     inkscape:window-x="0"
     inkscape:window-y="0"
     inkscape:current-layer="svg1" />
  <g
     id="axes4"
     transform="matrix(4.1662905,0,0,4.1663048,-1375.3724,-393.59121)">
    <path
       id="path862"
       d="M 381.13043,194.4 L 502.43478,194.4 L 502.43478,21.6 L 381.13043,21.6 L 381.13043,194.4"
       style="opacity:1;fill:#ffffff" />
    <g
       id="line2d84">
      <defs
         id="defs865">
        <clipPath
           id="p9f532df41f67673b54cdca6b4f318f91">
          <rect
             id="rect868"
             height="172.8"
             width="121.30435"
             y="21.6"
             x="381.13043" />
        </clipPath>
      </defs>
      <path
         id="path870"
         d="M 381.13043,194.4 L 381.74,193.53166 L 382.34957,192.66332 L 382.95914,191.79497 L 383.56871,190.92663 L 384.17828,190.05829 L 384.78785,189.18995 L 385.39742,188.32161 L 386.00699,187.45327 L 386.61656,186.58492 L 387.22613,185.71658 L 387.8357,184.84824 L 388.44527,183.9799 L 389.05484,183.11156 L 389.66441,182.24322 L 390.27398,181.37487 L 390.88355,180.50653 L 391.49312,179.63819 L 392.10269,178.76985 L 392.71226,177.90151 L 393.32183,177.03317 L 393.9314,176.16482 L 394.54097,175.29648 L 395.15053,174.42814 L 395.7601,173.5598 L 396.36967,172.69146 L 396.97924,171.82312 L 397.58881,170.95477 L 398.19838,170.08643 L 398.80795,169.21809 L 399.41752,168.34975 L 400.02709,167.48141 L 400.63666,166.61306 L 401.24623,165.74472 L 401.8558,164.87638 L 402.46537,164.00804 L 403.07494,163.1397 L 403.68451,162.27136 L 404.29408,161.40301 L 404.90365,160.53467 L 405.51322,159.66633 L 406.12279,158.79799 L 406.73236,157.92965 L 407.34193,157.06131 L 407.9515,156.19296 L 408.56107,155.32462 L 409.17064,154.45628 L 409.7802,153.58794 L 410.38977,152.7196 L 410.99934,151.85126 L 411.60891,150.98292 L 412.21848,150.11457 L 412.82805,149.24623 L 413.43762,148.37789 L 414.04719,147.50955 L 414.65676,146.64121 L 415.26633,145.77286 L 415.8759,144.90452 L 416.48547,144.03618 L 417.09504,143.16784 L 417.70461,142.2995 L 418.31418,141.43116 L 418.92375,140.56281 L 419.53332,139.69447 L 420.14289,138.82613 L 420.75246,137.95779 L 421.36203,137.08945 L 421.9716,136.22111 L 422.58117,135.35276 L 423.19074,134.48442 L 423.80031,133.61608 L 424.40987,132.74774 L 425.01945,131.8794 L 425.62901,131.01105 L 426.23858,130.14271 L 426.84815,129.27437 L 427.45772,128.40603 L 428.06729,127.53769 L 428.67686,126.66935 L 429.28643,125.80101 L 429.896,124.93266 L 430.50557,124.06432 L 431.11514,123.19598 L 431.72471,122.32764 L 432.33428,121.4593 L 432.94385,120.59096 L 433.55342,119.72261 L 434.16299,118.85427 L 434.77256,117.98593 L 435.38213,117.11759 L 435.9917,116.24925 L 436.60127,115.3809 L 437.21084,114.51256 L 437.82041,113.64422 L 438.42998,112.77588 L 439.03955,111.90754 L 439.64911,111.0392 L 440.25869,110.17085 L 440.86825,109.30251 L 441.47782,108.43417 L 442.08739,107.56583 L 442.69696,106.69749 L 443.30653,105.82915 L 443.9161,104.9608 L 444.52567,104.09246 L 445.13524,103.22412 L 445.74481,102.35578 L 446.35438,101.48744 L 446.96395,100.6191 L 447.57352,99.750754 L 448.18309,98.882412 L 448.79266,98.01407 L 449.40223,97.145729 L 450.0118,96.277387 L 450.62137,95.409045 L 451.23094,94.540704 L 451.84051,93.672362 L 452.45008,92.80402 L 453.05965,91.935678 L 453.66922,91.067337 L 454.27878,90.198995 L 454.88835,89.330653 L 455.49792,88.462312 L 456.10749,87.59397 L 456.71706,86.725628 L 457.32663,85.857286 L 457.9362,84.988945 L 458.54577,84.120603 L 459.15534,83.252261 L 459.76491,82.38392 L 460.37448,81.515578 L 460.98405,80.647236 L 461.59362,79.778894 L 462.20319,78.910553 L 462.81276,78.042211 L 463.42233,77.173869 L 464.0319,76.305528 L 464.64147,75.437186 L 465.25104,74.568844 L 465.86061,73.700503 L 466.47018,72.832161 L 467.07975,71.963819 L 467.68932,71.095477 L 468.29889,70.227136 L 468.90845,69.358794 L 469.51802,68.490452 L 470.12759,67.622111 L 470.73716,66.753769 L 471.34673,65.885427 L 471.9563,65.017085 L 472.56587,64.148744 L 473.17544,63.280402 L 473.78501,62.41206 L 474.39458,61.543719 L 475.00415,60.675377 L 475.61372,59.807035 L 476.22329,58.938693 L 476.83286,58.070352 L 477.44243,57.20201 L 478.052,56.333668 L 478.66157,55.465327 L 479.27114,54.596985 L 479.88071,53.728643 L 480.49028,52.860302 L 481.09985,51.99196 L 481.70942,51.123618 L 482.31899,50.255276 L 482.92856,49.386935 L 483.53812,48.518593 L 484.1477,47.650251 L 484.75727,46.78191 L 485.36683,45.913568 L 485.9764,45.045226 L 486.58597,44.176884 L 487.19554,43.308543 L 487.80511,42.440201 L 488.41468,41.571859 L 489.02425,40.703518 L 489.63382,39.835176 L 490.24339,38.966834 L 490.85296,38.098492 L 491.46253,37.230151 L 492.0721,36.361809 L 492.68167,35.493467 L 493.29124,34.625126 L 493.90081,33.756784 L 494.51038,32.888442 L 495.11995,32.020101 L 495.72952,31.151759 L 496.33909,30.283417 L 496.94866,29.415075 L 497.55823,28.546734 L 498.1678,27.678392 L 498.77736,26.81005 L 499.38693,25.941709 L 499.9965,25.073367 L 500.60607,24.205025 L 501.21564,23.336683 L 501.82521,22.468342 L 502.43478,21.6"
         clip-path="url(#p9f532df41f67673b54cdca6b4f318f91)"
         style="opacity:1;fill:none;stroke:#0000ff;stroke-width:1;stroke-linecap:square;stroke-linejoin:miter" />
    </g>
    <g
       id="matplotlib.axis7">
      <g
         id="xtick17">
        <g
           id="line2d85">
          <g
             id="g875">
            <path
               id="use877"
               d="M 393.26086,194.39999 L 393.26086,190.39999"
               style="opacity:1;stroke:#000000;stroke-width:0.5;stroke-linecap:butt;stroke-linejoin:miter" />
          </g>
        </g>
        <g
           id="line2d86">
          <g
             id="g880">
            <path
               id="use882"
               d="M 393.26086,21.6 L 393.26086,25.6"
               style="opacity:1;stroke:#000000;stroke-width:0.5;stroke-linecap:butt;stroke-linejoin:miter" />
          </g>
        </g>
        <g
           id="g884"
           transform="matrix(0.12,0,0,0.12,390.24524,207.30625)"
           style="opacity:1;fill:#000000">
          <path
             id="use886"
             d="M 33.015625,-40.375 C 28.588542,-40.375 25.078125,-38.859375 22.484375,-35.828125 C 19.901042,-32.807292 18.609375,-28.661458 18.609375,-23.390625 C 18.609375,-18.151042 19.901042,-14.005208 22.484375,-10.953125 C 25.078125,-7.9114583 28.588542,-6.390625 33.015625,-6.390625 C 37.442708,-6.390625 40.947917,-7.9114583 43.53125,-10.953125 C 46.114583,-14.005208 47.40625,-18.151042 47.40625,-23.390625 C 47.40625,-28.661458 46.114583,-32.807292 43.53125,-35.828125 C 40.947917,-38.859375 37.442708,-40.375 33.015625,-40.375 M 52.59375,-71.296875 L 52.59375,-62.3125 C 50.114583,-63.479167 47.614583,-64.369792 45.09375,-64.984375 C 42.572917,-65.609375 40.072917,-65.921875 37.59375,-65.921875 C 31.083333,-65.921875 26.109375,-63.723958 22.671875,-59.328125 C 19.244792,-54.932292 17.286458,-48.291667 16.796875,-39.40625 C 18.713542,-42.239583 21.119792,-44.411458 24.015625,-45.921875 C 26.921875,-47.432292 30.114583,-48.1875 33.59375,-48.1875 C 40.916667,-48.1875 46.703125,-45.963542 50.953125,-41.515625 C 55.203125,-37.078125 57.328125,-31.036458 57.328125,-23.390625 C 57.328125,-15.901042 55.114583,-9.890625 50.6875,-5.359375 C 46.260417,-0.83854167 40.369792,1.421875 33.015625,1.421875 C 24.578125,1.421875 18.130208,-1.8072917 13.671875,-8.265625 C 9.2135417,-14.734375 6.984375,-24.104167 6.984375,-36.375 C 6.984375,-47.895833 9.71875,-57.083333 15.1875,-63.9375 C 20.65625,-70.791667 27.994792,-74.21875 37.203125,-74.21875 C 39.682292,-74.21875 42.182292,-73.973958 44.703125,-73.484375 C 47.223958,-72.994792 49.854167,-72.265625 52.59375,-71.296875" />
        </g>
      </g>
      <g
         id="xtick18">
        <g
           id="line2d87">
          <g
             id="g890">
            <path
               id="use892"
               d="M 417.52173,194.39999 L 417.52173,190.39999"
               style="opacity:1;stroke:#000000;stroke-width:0.5;stroke-linecap:butt;stroke-linejoin:miter" />
          </g>
        </g>
        <g
           id="line2d88">
          <g
             id="g895">
            <path
               id="use897"
               d="M 417.52173,21.6 L 417.52173,25.6"
               style="opacity:1;stroke:#000000;stroke-width:0.5;stroke-linecap:butt;stroke-linejoin:miter" />
          </g>
        </g>
        <g
           id="g899"
           transform="matrix(0.12,0,0,0.12,414.52174,207.30625)"
           style="opacity:1;fill:#000000">
          <path
             id="use901"
             d="M 31.78125,-34.625 C 27.09375,-34.625 23.40625,-33.369792 20.71875,-30.859375 C 18.041667,-28.348958 16.703125,-24.901042 16.703125,-20.515625 C 16.703125,-16.119792 18.041667,-12.666667 20.71875,-10.15625 C 23.40625,-7.6458333 27.09375,-6.390625 31.78125,-6.390625 C 36.46875,-6.390625 40.161458,-7.6510417 42.859375,-10.171875 C 45.567708,-12.703125 46.921875,-16.151042 46.921875,-20.515625 C 46.921875,-24.901042 45.578125,-28.348958 42.890625,-30.859375 C 40.213542,-33.369792 36.510417,-34.625 31.78125,-34.625 M 21.921875,-38.8125 C 17.692708,-39.854167 14.395833,-41.822917 12.03125,-44.71875 C 9.6770833,-47.625 8.5,-51.161458 8.5,-55.328125 C 8.5,-61.151042 10.572917,-65.755208 14.71875,-69.140625 C 18.875,-72.526042 24.5625,-74.21875 31.78125,-74.21875 C 39.041667,-74.21875 44.739583,-72.526042 48.875,-69.140625 C 53.010417,-65.755208 55.078125,-61.151042 55.078125,-55.328125 C 55.078125,-51.161458 53.895833,-47.625 51.53125,-44.71875 C 49.177083,-41.822917 45.901042,-39.854167 41.703125,-38.8125 C 46.453125,-37.708333 50.151042,-35.541667 52.796875,-32.3125 C 55.453125,-29.09375 56.78125,-25.161458 56.78125,-20.515625 C 56.78125,-13.442708 54.625,-8.015625 50.3125,-4.234375 C 46,-0.46354167 39.822917,1.421875 31.78125,1.421875 C 23.75,1.421875 17.572917,-0.46354167 13.25,-4.234375 C 8.9375,-8.015625 6.78125,-13.442708 6.78125,-20.515625 C 6.78125,-25.161458 8.1145833,-29.09375 10.78125,-32.3125 C 13.458333,-35.541667 17.171875,-37.708333 21.921875,-38.8125 M 18.3125,-54.390625 C 18.3125,-50.619792 19.489583,-47.677083 21.84375,-45.5625 C 24.208333,-43.447917 27.520833,-42.390625 31.78125,-42.390625 C 36.020833,-42.390625 39.333333,-43.447917 41.71875,-45.5625 C 44.114583,-47.677083 45.3125,-50.619792 45.3125,-54.390625 C 45.3125,-58.171875 44.114583,-61.119792 41.71875,-63.234375 C 39.333333,-65.348958 36.020833,-66.40625 31.78125,-66.40625 C 27.520833,-66.40625 24.208333,-65.348958 21.84375,-63.234375 C 19.489583,-61.119792 18.3125,-58.171875 18.3125,-54.390625" />
        </g>
      </g>
      <g
         id="xtick19">
        <g
           id="line2d89">
          <g
             id="g905">
            <path
               id="use907"
               d="M 441.78262,194.39999 L 441.78262,190.39999"
               style="opacity:1;stroke:#000000;stroke-width:0.5;stroke-linecap:butt;stroke-linejoin:miter" />
          </g>
        </g>
        <g
           id="line2d90">
          <g
             id="g910">
            <path
               id="use912"
               d="M 441.78262,21.6 L 441.78262,25.6"
               style="opacity:1;stroke:#000000;stroke-width:0.5;stroke-linecap:butt;stroke-linejoin:miter" />
          </g>
        </g>
        <g
           id="g914"
           transform="matrix(0.12,0,0,0.12,435.19667,207.30625)"
           style="opacity:1;fill:#000000">
          <path
             id="use916"
             d="M 12.40625,-8.296875 L 28.515625,-8.296875 L 28.515625,-63.921875 L 10.984375,-60.40625 L 10.984375,-69.390625 L 28.421875,-72.90625 L 38.28125,-72.90625 L 38.28125,-8.296875 L 54.390625,-8.296875 L 54.390625,-1.5987212e-14 L 12.40625,-1.5987212e-14 L 12.40625,-8.296875 z" />
          <path
             id="use918"
             d="M 95.404297,-66.40625 C 90.33138,-66.40625 86.513672,-63.90625 83.951172,-58.90625 C 81.399089,-53.916667 80.123047,-46.40625 80.123047,-36.375 C 80.123047,-26.385417 81.399089,-18.890625 83.951172,-13.890625 C 86.513672,-8.890625 90.33138,-6.390625 95.404297,-6.390625 C 100.51888,-6.390625 104.35221,-8.890625 106.9043,-13.890625 C 109.4668,-18.890625 110.74805,-26.385417 110.74805,-36.375 C 110.74805,-46.40625 109.4668,-53.916667 106.9043,-58.90625 C 104.35221,-63.90625 100.51888,-66.40625 95.404297,-66.40625 M 95.404297,-74.21875 C 103.58138,-74.21875 109.82617,-70.984375 114.13867,-64.515625 C 118.45117,-58.057292 120.60742,-48.677083 120.60742,-36.375 C 120.60742,-24.104167 118.45117,-14.734375 114.13867,-8.265625 C 109.82617,-1.8072917 103.58138,1.421875 95.404297,1.421875 C 87.23763,1.421875 80.998047,-1.8072917 76.685547,-8.265625 C 72.373047,-14.734375 70.216797,-24.104167 70.216797,-36.375 C 70.216797,-48.677083 72.373047,-58.057292 76.685547,-64.515625 C 80.998047,-70.984375 87.23763,-74.21875 95.404297,-74.21875" />
        </g>
      </g>
      <g
         id="xtick20">
        <g
           id="line2d91">
          <g
             id="g922">
            <path
               id="use924"
               d="M 466.04349,194.39999 L 466.04349,190.39999"
               style="opacity:1;stroke:#000000;stroke-width:0.5;stroke-linecap:butt;stroke-linejoin:miter" />
          </g>
        </g>
        <g
           id="line2d92">
          <g
             id="g927">
            <path
               id="use929"
               d="M 466.04349,21.6 L 466.04349,25.6"
               style="opacity:1;stroke:#000000;stroke-width:0.5;stroke-linecap:butt;stroke-linejoin:miter" />
          </g>
        </g>
        <g
           id="g931"
           transform="matrix(0.12,0,0,0.12,459.66067,207.30625)"
           style="opacity:1;fill:#000000">
          <path
             id="use933"
             d="M 12.40625,-8.296875 L 28.515625,-8.296875 L 28.515625,-63.921875 L 10.984375,-60.40625 L 10.984375,-69.390625 L 28.421875,-72.90625 L 38.28125,-72.90625 L 38.28125,-8.296875 L 54.390625,-8.296875 L 54.390625,-1.5987212e-14 L 12.40625,-1.5987212e-14 L 12.40625,-8.296875 z" />
          <path
             id="use935"
             d="M 82.810547,-8.296875 L 117.23242,-8.296875 L 117.23242,0 L 70.951172,0 L 70.951172,-8.296875 C 74.690755,-12.171875 79.789714,-17.369792 86.248047,-23.890625 C 92.716797,-30.421875 96.779297,-34.635417 98.435547,-36.53125 C 101.5918,-40.072917 103.79492,-43.072917 105.04492,-45.53125 C 106.30534,-47.989583 106.93555,-50.40625 106.93555,-52.78125 C 106.93555,-56.65625 105.57617,-59.8125 102.85742,-62.25 C 100.13867,-64.697917 96.597005,-65.921875 92.232422,-65.921875 C 89.138672,-65.921875 85.873047,-65.385417 82.435547,-64.3125 C 79.008464,-63.239583 75.341797,-61.609375 71.435547,-59.421875 L 71.435547,-69.390625 C 75.404297,-70.984375 79.11263,-72.1875 82.560547,-73 C 86.01888,-73.8125 89.180339,-74.21875 92.044922,-74.21875 C 99.597005,-74.21875 105.61784,-72.328125 110.10742,-68.546875 C 114.597,-64.776042 116.8418,-59.734375 116.8418,-53.421875 C 116.8418,-50.421875 116.2793,-47.578125 115.1543,-44.890625 C 114.03971,-42.213542 111.99805,-39.052083 109.0293,-35.40625 C 108.2168,-34.458333 105.62825,-31.729167 101.26367,-27.21875 C 96.909505,-22.708333 90.758464,-16.401042 82.810547,-8.296875" />
        </g>
      </g>
      <g
         id="xtick21">
        <g
           id="line2d93">
          <g
             id="g939">
            <path
               id="use941"
               d="M 490.30435,194.39999 L 490.30435,190.39999"
               style="opacity:1;stroke:#000000;stroke-width:0.5;stroke-linecap:butt;stroke-linejoin:miter" />
          </g>
        </g>
        <g
           id="line2d94">
          <g
             id="g944">
            <path
               id="use946"
               d="M 490.30435,21.6 L 490.30435,25.6"
               style="opacity:1;stroke:#000000;stroke-width:0.5;stroke-linecap:butt;stroke-linejoin:miter" />
          </g>
        </g>
        <g
           id="g948"
           transform="matrix(0.12,0,0,0.12,483.65591,207.15)"
           style="opacity:1;fill:#000000">
          <path
             id="use950"
             d="M 12.40625,-8.296875 L 28.515625,-8.296875 L 28.515625,-63.921875 L 10.984375,-60.40625 L 10.984375,-69.390625 L 28.421875,-72.90625 L 38.28125,-72.90625 L 38.28125,-8.296875 L 54.390625,-8.296875 L 54.390625,-1.5987212e-14 L 12.40625,-1.5987212e-14 L 12.40625,-8.296875 z" />
          <path
             id="use952"
             d="M 101.41992,-64.3125 L 76.513672,-25.390625 L 101.41992,-25.390625 L 101.41992,-64.3125 z M 98.826172,-72.90625 L 111.23242,-72.90625 L 111.23242,-25.390625 L 121.63867,-25.390625 L 121.63867,-17.1875 L 111.23242,-17.1875 L 111.23242,-1.4210855e-14 L 101.41992,-1.4210855e-14 L 101.41992,-17.1875 L 68.513672,-17.1875 L 68.513672,-26.703125 L 98.826172,-72.90625 z" />
        </g>
      </g>
      <g
         id="g954"
         transform="matrix(0.12,0,0,0.12,397.93105,221.22812)"
         style="opacity:1;fill:#000000">
        <path
           id="use956"
           d="M 9.8125,-72.90625 L 24.515625,-72.90625 L 43.109375,-23.296875 L 61.8125,-72.90625 L 76.515625,-72.90625 L 76.515625,0 L 66.890625,0 L 66.890625,-64.015625 L 48.09375,-14.015625 L 38.1875,-14.015625 L 19.390625,-64.015625 L 19.390625,0 L 9.8125,0 L 9.8125,-72.90625 z" />
        <path
           id="use958"
           d="M 142.48242,-29.59375 L 142.48242,-25.203125 L 101.16992,-25.203125 C 101.56575,-19.015625 103.43034,-14.302083 106.76367,-11.0625 C 110.097,-7.8229167 114.74284,-6.203125 120.70117,-6.203125 C 124.14909,-6.203125 127.49284,-6.625 130.73242,-7.46875 C 133.972,-8.3125 137.19075,-9.5833333 140.38867,-11.28125 L 140.38867,-2.78125 C 137.1595,-1.4166667 133.85221,-0.375 130.4668,0.34375 C 127.08138,1.0625 123.64909,1.421875 120.16992,1.421875 C 111.44075,1.421875 104.5293,-1.1145833 99.435547,-6.1875 C 94.341797,-11.270833 91.794922,-18.145833 91.794922,-26.8125 C 91.794922,-35.760417 94.211589,-42.859375 99.044922,-48.109375 C 103.87825,-53.369792 110.39909,-56 118.60742,-56 C 125.96159,-56 131.7793,-53.630208 136.06055,-48.890625 C 140.3418,-44.161458 142.48242,-37.729167 142.48242,-29.59375 M 133.49805,-32.234375 C 133.43555,-37.140625 132.06055,-41.057292 129.37305,-43.984375 C 126.68555,-46.921875 123.12825,-48.390625 118.70117,-48.390625 C 113.69075,-48.390625 109.68034,-46.973958 106.66992,-44.140625 C 103.6595,-41.307292 101.92513,-37.317708 101.4668,-32.171875 L 133.49805,-32.234375 z" />
        <path
           id="use960"
           d="M 192.08398,-53.078125 L 192.08398,-44.578125 C 189.55273,-45.880208 186.91732,-46.854167 184.17773,-47.5 C 181.44857,-48.15625 178.61523,-48.484375 175.67773,-48.484375 C 171.2194,-48.484375 167.87565,-47.802083 165.64648,-46.4375 C 163.41732,-45.072917 162.30273,-43.020833 162.30273,-40.28125 C 162.30273,-38.197917 163.09961,-36.5625 164.69336,-35.375 C 166.28711,-34.1875 169.49544,-33.057292 174.31836,-31.984375 L 177.39648,-31.296875 C 183.77148,-29.932292 188.30273,-28.005208 190.99023,-25.515625 C 193.67773,-23.026042 195.02148,-19.552083 195.02148,-15.09375 C 195.02148,-10.010417 193.01107,-5.984375 188.99023,-3.015625 C 184.9694,-0.057291667 179.44336,1.421875 172.41211,1.421875 C 169.48503,1.421875 166.43294,1.1354167 163.25586,0.5625 C 160.07878,-0.010416667 156.73503,-0.86458333 153.22461,-2 L 153.22461,-11.28125 C 156.54753,-9.5520833 159.81836,-8.2552083 163.03711,-7.390625 C 166.25586,-6.5364583 169.44857,-6.109375 172.61523,-6.109375 C 176.8444,-6.109375 180.0944,-6.8333333 182.36523,-8.28125 C 184.64648,-9.7291667 185.78711,-11.770833 185.78711,-14.40625 C 185.78711,-16.84375 184.96419,-18.713542 183.31836,-20.015625 C 181.68294,-21.317708 178.07878,-22.572917 172.50586,-23.78125 L 169.38086,-24.515625 C 163.81836,-25.682292 159.79753,-27.479167 157.31836,-29.90625 C 154.84961,-32.333333 153.61523,-35.661458 153.61523,-39.890625 C 153.61523,-45.036458 155.43815,-49.005208 159.08398,-51.796875 C 162.72982,-54.598958 167.9069,-56 174.61523,-56 C 177.92773,-56 181.04753,-55.755208 183.97461,-55.265625 C 186.91211,-54.786458 189.61523,-54.057292 192.08398,-53.078125" />
        <path
           id="use962"
           d="M 244.18359,-53.078125 L 244.18359,-44.578125 C 241.65234,-45.880208 239.01693,-46.854167 236.27734,-47.5 C 233.54818,-48.15625 230.71484,-48.484375 227.77734,-48.484375 C 223.31901,-48.484375 219.97526,-47.802083 217.74609,-46.4375 C 215.51693,-45.072917 214.40234,-43.020833 214.40234,-40.28125 C 214.40234,-38.197917 215.19922,-36.5625 216.79297,-35.375 C 218.38672,-34.1875 221.59505,-33.057292 226.41797,-31.984375 L 229.49609,-31.296875 C 235.87109,-29.932292 240.40234,-28.005208 243.08984,-25.515625 C 245.77734,-23.026042 247.12109,-19.552083 247.12109,-15.09375 C 247.12109,-10.010417 245.11068,-5.984375 241.08984,-3.015625 C 237.06901,-0.057291667 231.54297,1.421875 224.51172,1.421875 C 221.58464,1.421875 218.53255,1.1354167 215.35547,0.5625 C 212.17839,-0.010416667 208.83464,-0.86458333 205.32422,-2 L 205.32422,-11.28125 C 208.64714,-9.5520833 211.91797,-8.2552083 215.13672,-7.390625 C 218.35547,-6.5364583 221.54818,-6.109375 224.71484,-6.109375 C 228.94401,-6.109375 232.19401,-6.8333333 234.46484,-8.28125 C 236.74609,-9.7291667 237.88672,-11.770833 237.88672,-14.40625 C 237.88672,-16.84375 237.0638,-18.713542 235.41797,-20.015625 C 233.78255,-21.317708 230.17839,-22.572917 224.60547,-23.78125 L 221.48047,-24.515625 C 215.91797,-25.682292 211.89714,-27.479167 209.41797,-29.90625 C 206.94922,-32.333333 205.71484,-35.661458 205.71484,-39.890625 C 205.71484,-45.036458 207.53776,-49.005208 211.18359,-51.796875 C 214.82943,-54.598958 220.00651,-56 226.71484,-56 C 230.02734,-56 233.14714,-55.755208 236.07422,-55.265625 C 239.01172,-54.786458 241.71484,-54.057292 244.18359,-53.078125" />
        <path
           id="use964"
           d="M 297.4082,-27.984375 C 297.4082,-34.494792 296.06445,-39.536458 293.37695,-43.109375 C 290.69987,-46.692708 286.93425,-48.484375 282.08008,-48.484375 C 277.26758,-48.484375 273.51758,-46.692708 270.83008,-43.109375 C 268.14258,-39.536458 266.79883,-34.494792 266.79883,-27.984375 C 266.79883,-21.505208 268.14258,-16.473958 270.83008,-12.890625 C 273.51758,-9.3072917 277.26758,-7.515625 282.08008,-7.515625 C 286.93425,-7.515625 290.69987,-9.3072917 293.37695,-12.890625 C 296.06445,-16.473958 297.4082,-21.505208 297.4082,-27.984375 M 306.39258,-6.78125 C 306.39258,2.5208333 304.32487,9.4427083 300.18945,13.984375 C 296.06445,18.526042 289.73633,20.796875 281.20508,20.796875 C 278.04883,20.796875 275.06966,20.5625 272.26758,20.09375 C 269.4655,19.625 266.74675,18.901042 264.11133,17.921875 L 264.11133,9.1875 C 266.74675,10.614583 269.35091,11.666667 271.92383,12.34375 C 274.49675,13.03125 277.11654,13.375 279.7832,13.375 C 285.67904,13.375 290.0905,11.838542 293.01758,8.765625 C 295.94466,5.6927083 297.4082,1.046875 297.4082,-5.171875 L 297.4082,-9.625 C 295.55404,-6.3958333 293.17904,-3.984375 290.2832,-2.390625 C 287.38737,-0.796875 283.91862,-4.4408921e-16 279.87695,-4.4408921e-16 C 273.17904,-4.4408921e-16 267.778,-2.5520833 263.67383,-7.65625 C 259.56966,-12.770833 257.51758,-19.546875 257.51758,-27.984375 C 257.51758,-36.442708 259.56966,-43.223958 263.67383,-48.328125 C 267.778,-53.442708 273.17904,-56 279.87695,-56 C 283.91862,-56 287.38737,-55.203125 290.2832,-53.609375 C 293.17904,-52.015625 295.55404,-49.609375 297.4082,-46.390625 L 297.4082,-54.6875 L 306.39258,-54.6875 L 306.39258,-6.78125 z" />
        <path
           id="use966"
           d="M 356.58789,-46.296875 C 355.57747,-46.880208 354.47852,-47.307292 353.29102,-47.578125 C 352.10352,-47.859375 350.79622,-48 349.36914,-48 C 344.28581,-48 340.38477,-46.348958 337.66602,-43.046875 C 334.94727,-39.744792 333.58789,-35 333.58789,-28.8125 L 333.58789,-1.0658141e-14 L 324.55664,-1.0658141e-14 L 324.55664,-54.6875 L 333.58789,-54.6875 L 333.58789,-46.1875 C 335.48372,-49.510417 337.94206,-51.973958 340.96289,-53.578125 C 343.99414,-55.192708 347.67643,-56 352.00977,-56 C 352.62435,-56 353.30664,-55.958333 354.05664,-55.875 C 354.80664,-55.802083 355.63477,-55.682292 356.54102,-55.515625 L 356.58789,-46.296875 z" />
        <path
           id="use968"
           d="M 384.95117,-48.390625 C 380.13867,-48.390625 376.33138,-46.510417 373.5293,-42.75 C 370.72721,-38.989583 369.32617,-33.838542 369.32617,-27.296875 C 369.32617,-20.755208 370.7168,-15.604167 373.49805,-11.84375 C 376.28971,-8.0833333 380.10742,-6.203125 384.95117,-6.203125 C 389.74284,-6.203125 393.5345,-8.0885417 396.32617,-11.859375 C 399.12825,-15.640625 400.5293,-20.786458 400.5293,-27.296875 C 400.5293,-33.776042 399.12825,-38.911458 396.32617,-42.703125 C 393.5345,-46.494792 389.74284,-48.390625 384.95117,-48.390625 M 384.95117,-56 C 392.76367,-56 398.89909,-53.458333 403.35742,-48.375 C 407.82617,-43.302083 410.06055,-36.276042 410.06055,-27.296875 C 410.06055,-18.348958 407.82617,-11.322917 403.35742,-6.21875 C 398.89909,-1.125 392.76367,1.421875 384.95117,1.421875 C 377.10742,1.421875 370.96159,-1.125 366.51367,-6.21875 C 362.07617,-11.322917 359.85742,-18.348958 359.85742,-27.296875 C 359.85742,-36.276042 362.07617,-43.302083 366.51367,-48.375 C 370.96159,-53.458333 377.10742,-56 384.95117,-56" />
        <path
           id="use970"
           d="M 471.72656,-29.59375 L 471.72656,-25.203125 L 430.41406,-25.203125 C 430.8099,-19.015625 432.67448,-14.302083 436.00781,-11.0625 C 439.34115,-7.8229167 443.98698,-6.203125 449.94531,-6.203125 C 453.39323,-6.203125 456.73698,-6.625 459.97656,-7.46875 C 463.21615,-8.3125 466.4349,-9.5833333 469.63281,-11.28125 L 469.63281,-2.78125 C 466.40365,-1.4166667 463.09635,-0.375 459.71094,0.34375 C 456.32552,1.0625 452.89323,1.421875 449.41406,1.421875 C 440.6849,1.421875 433.77344,-1.1145833 428.67969,-6.1875 C 423.58594,-11.270833 421.03906,-18.145833 421.03906,-26.8125 C 421.03906,-35.760417 423.45573,-42.859375 428.28906,-48.109375 C 433.1224,-53.369792 439.64323,-56 447.85156,-56 C 455.20573,-56 461.02344,-53.630208 465.30469,-48.890625 C 469.58594,-44.161458 471.72656,-37.729167 471.72656,-29.59375 M 462.74219,-32.234375 C 462.67969,-37.140625 461.30469,-41.057292 458.61719,-43.984375 C 455.92969,-46.921875 452.3724,-48.390625 447.94531,-48.390625 C 442.9349,-48.390625 438.92448,-46.973958 435.91406,-44.140625 C 432.90365,-41.307292 431.16927,-37.317708 430.71094,-32.171875 L 462.74219,-32.234375 z" />
        <path
           id="use972"
           d="M 521.32812,-53.078125 L 521.32812,-44.578125 C 518.79688,-45.880208 516.16146,-46.854167 513.42188,-47.5 C 510.69271,-48.15625 507.85938,-48.484375 504.92188,-48.484375 C 500.46354,-48.484375 497.11979,-47.802083 494.89062,-46.4375 C 492.66146,-45.072917 491.54688,-43.020833 491.54688,-40.28125 C 491.54688,-38.197917 492.34375,-36.5625 493.9375,-35.375 C 495.53125,-34.1875 498.73958,-33.057292 503.5625,-31.984375 L 506.64062,-31.296875 C 513.01562,-29.932292 517.54688,-28.005208 520.23438,-25.515625 C 522.92188,-23.026042 524.26562,-19.552083 524.26562,-15.09375 C 524.26562,-10.010417 522.25521,-5.984375 518.23438,-3.015625 C 514.21354,-0.057291667 508.6875,1.421875 501.65625,1.421875 C 498.72917,1.421875 495.67708,1.1354167 492.5,0.5625 C 489.32292,-0.010416667 485.97917,-0.86458333 482.46875,-2 L 482.46875,-11.28125 C 485.79167,-9.5520833 489.0625,-8.2552083 492.28125,-7.390625 C 495.5,-6.5364583 498.69271,-6.109375 501.85938,-6.109375 C 506.08854,-6.109375 509.33854,-6.8333333 511.60938,-8.28125 C 513.89062,-9.7291667 515.03125,-11.770833 515.03125,-14.40625 C 515.03125,-16.84375 514.20833,-18.713542 512.5625,-20.015625 C 510.92708,-21.317708 507.32292,-22.572917 501.75,-23.78125 L 498.625,-24.515625 C 493.0625,-25.682292 489.04167,-27.479167 486.5625,-29.90625 C 484.09375,-32.333333 482.85938,-35.661458 482.85938,-39.890625 C 482.85938,-45.036458 484.68229,-49.005208 488.32812,-51.796875 C 491.97396,-54.598958 497.15104,-56 503.85938,-56 C 507.17188,-56 510.29167,-55.755208 513.21875,-55.265625 C 516.15625,-54.786458 518.85938,-54.057292 521.32812,-53.078125" />
        <path
           id="use974"
           d="M 573.42773,-53.078125 L 573.42773,-44.578125 C 570.89648,-45.880208 568.26107,-46.854167 565.52148,-47.5 C 562.79232,-48.15625 559.95898,-48.484375 557.02148,-48.484375 C 552.56315,-48.484375 549.2194,-47.802083 546.99023,-46.4375 C 544.76107,-45.072917 543.64648,-43.020833 543.64648,-40.28125 C 543.64648,-38.197917 544.44336,-36.5625 546.03711,-35.375 C 547.63086,-34.1875 550.83919,-33.057292 555.66211,-31.984375 L 558.74023,-31.296875 C 565.11523,-29.932292 569.64648,-28.005208 572.33398,-25.515625 C 575.02148,-23.026042 576.36523,-19.552083 576.36523,-15.09375 C 576.36523,-10.010417 574.35482,-5.984375 570.33398,-3.015625 C 566.31315,-0.057291667 560.78711,1.421875 553.75586,1.421875 C 550.82878,1.421875 547.77669,1.1354167 544.59961,0.5625 C 541.42253,-0.010416667 538.07878,-0.86458333 534.56836,-2 L 534.56836,-11.28125 C 537.89128,-9.5520833 541.16211,-8.2552083 544.38086,-7.390625 C 547.59961,-6.5364583 550.79232,-6.109375 553.95898,-6.109375 C 558.18815,-6.109375 561.43815,-6.8333333 563.70898,-8.28125 C 565.99023,-9.7291667 567.13086,-11.770833 567.13086,-14.40625 C 567.13086,-16.84375 566.30794,-18.713542 564.66211,-20.015625 C 563.02669,-21.317708 559.42253,-22.572917 553.84961,-23.78125 L 550.72461,-24.515625 C 545.16211,-25.682292 541.14128,-27.479167 538.66211,-29.90625 C 536.19336,-32.333333 534.95898,-35.661458 534.95898,-39.890625 C 534.95898,-45.036458 536.7819,-49.005208 540.42773,-51.796875 C 544.07357,-54.598958 549.25065,-56 555.95898,-56 C 559.27148,-56 562.39128,-55.755208 565.31836,-55.265625 C 568.25586,-54.786458 570.95898,-54.057292 573.42773,-53.078125" />
        <path
           id="use976"
           d="M 637.44922,-29.59375 L 637.44922,-25.203125 L 596.13672,-25.203125 C 596.53255,-19.015625 598.39714,-14.302083 601.73047,-11.0625 C 605.0638,-7.8229167 609.70964,-6.203125 615.66797,-6.203125 C 619.11589,-6.203125 622.45964,-6.625 625.69922,-7.46875 C 628.9388,-8.3125 632.15755,-9.5833333 635.35547,-11.28125 L 635.35547,-2.78125 C 632.1263,-1.4166667 628.81901,-0.375 625.43359,0.34375 C 622.04818,1.0625 618.61589,1.421875 615.13672,1.421875 C 606.40755,1.421875 599.49609,-1.1145833 594.40234,-6.1875 C 589.30859,-11.270833 586.76172,-18.145833 586.76172,-26.8125 C 586.76172,-35.760417 589.17839,-42.859375 594.01172,-48.109375 C 598.84505,-53.369792 605.36589,-56 613.57422,-56 C 620.92839,-56 626.74609,-53.630208 631.02734,-48.890625 C 635.30859,-44.161458 637.44922,-37.729167 637.44922,-29.59375 M 628.46484,-32.234375 C 628.40234,-37.140625 627.02734,-41.057292 624.33984,-43.984375 C 621.65234,-46.921875 618.09505,-48.390625 613.66797,-48.390625 C 608.65755,-48.390625 604.64714,-46.973958 601.63672,-44.140625 C 598.6263,-41.307292 596.89193,-37.317708 596.43359,-32.171875 L 628.46484,-32.234375 z" />
        <path
           id="use978"
           d="" />
        <path
           id="use980"
           d="M 729.44727,-54.6875 L 709.66602,-28.078125 L 730.46289,3.5527137e-15 L 719.86914,3.5527137e-15 L 703.94727,-21.484375 L 688.04102,3.5527137e-15 L 677.43164,3.5527137e-15 L 698.68164,-28.609375 L 679.24414,-54.6875 L 689.83789,-54.6875 L 704.33789,-35.203125 L 718.83789,-54.6875 L 729.44727,-54.6875 z" />
      </g>
    </g>
    <g
       id="matplotlib.axis8">
      <g
         id="ytick25">
        <g
           id="line2d95">
          <g
             id="g985">
            <path
               id="use987"
               d="M 381.13043,194.39999 L 385.13043,194.39999"
               style="opacity:1;stroke:#000000;stroke-width:0.5;stroke-linecap:butt;stroke-linejoin:miter" />
          </g>
        </g>
        <g
           id="line2d96">
          <g
             id="g990">
            <path
               id="use992"
               d="M 502.43478,194.39999 L 498.43478,194.39999"
               style="opacity:1;stroke:#000000;stroke-width:0.5;stroke-linecap:butt;stroke-linejoin:miter" />
          </g>
        </g>
        <g
           id="g994"
           transform="matrix(0.12,0,0,0.12,344.31793,198.76719)"
           style="opacity:1;fill:#000000">
          <path
             id="use996"
             d="M 31.78125,-66.40625 C 26.708333,-66.40625 22.890625,-63.90625 20.328125,-58.90625 C 17.776042,-53.916667 16.5,-46.40625 16.5,-36.375 C 16.5,-26.385417 17.776042,-18.890625 20.328125,-13.890625 C 22.890625,-8.890625 26.708333,-6.390625 31.78125,-6.390625 C 36.895833,-6.390625 40.729167,-8.890625 43.28125,-13.890625 C 45.84375,-18.890625 47.125,-26.385417 47.125,-36.375 C 47.125,-46.40625 45.84375,-53.916667 43.28125,-58.90625 C 40.729167,-63.90625 36.895833,-66.40625 31.78125,-66.40625 M 31.78125,-74.21875 C 39.958333,-74.21875 46.203125,-70.984375 50.515625,-64.515625 C 54.828125,-58.057292 56.984375,-48.677083 56.984375,-36.375 C 56.984375,-24.104167 54.828125,-14.734375 50.515625,-8.265625 C 46.203125,-1.8072917 39.958333,1.421875 31.78125,1.421875 C 23.614583,1.421875 17.375,-1.8072917 13.0625,-8.265625 C 8.75,-14.734375 6.59375,-24.104167 6.59375,-36.375 C 6.59375,-48.677083 8.75,-58.057292 13.0625,-64.515625 C 17.375,-70.984375 23.614583,-74.21875 31.78125,-74.21875" />
          <path
             id="use998"
             d="M 74.310547,-12.40625 L 84.623047,-12.40625 L 84.623047,0 L 74.310547,0 L 74.310547,-12.40625 z" />
          <path
             id="use1000"
             d="M 127.19141,-66.40625 C 122.11849,-66.40625 118.30078,-63.90625 115.73828,-58.90625 C 113.1862,-53.916667 111.91016,-46.40625 111.91016,-36.375 C 111.91016,-26.385417 113.1862,-18.890625 115.73828,-13.890625 C 118.30078,-8.890625 122.11849,-6.390625 127.19141,-6.390625 C 132.30599,-6.390625 136.13932,-8.890625 138.69141,-13.890625 C 141.25391,-18.890625 142.53516,-26.385417 142.53516,-36.375 C 142.53516,-46.40625 141.25391,-53.916667 138.69141,-58.90625 C 136.13932,-63.90625 132.30599,-66.40625 127.19141,-66.40625 M 127.19141,-74.21875 C 135.36849,-74.21875 141.61328,-70.984375 145.92578,-64.515625 C 150.23828,-58.057292 152.39453,-48.677083 152.39453,-36.375 C 152.39453,-24.104167 150.23828,-14.734375 145.92578,-8.265625 C 141.61328,-1.8072917 135.36849,1.421875 127.19141,1.421875 C 119.02474,1.421875 112.78516,-1.8072917 108.47266,-8.265625 C 104.16016,-14.734375 102.00391,-24.104167 102.00391,-36.375 C 102.00391,-48.677083 104.16016,-58.057292 108.47266,-64.515625 C 112.78516,-70.984375 119.02474,-74.21875 127.19141,-74.21875" />
          <path
             id="use1002"
             d="M 190.81445,-66.40625 C 185.74154,-66.40625 181.92383,-63.90625 179.36133,-58.90625 C 176.80925,-53.916667 175.5332,-46.40625 175.5332,-36.375 C 175.5332,-26.385417 176.80925,-18.890625 179.36133,-13.890625 C 181.92383,-8.890625 185.74154,-6.390625 190.81445,-6.390625 C 195.92904,-6.390625 199.76237,-8.890625 202.31445,-13.890625 C 204.87695,-18.890625 206.1582,-26.385417 206.1582,-36.375 C 206.1582,-46.40625 204.87695,-53.916667 202.31445,-58.90625 C 199.76237,-63.90625 195.92904,-66.40625 190.81445,-66.40625 M 190.81445,-74.21875 C 198.99154,-74.21875 205.23633,-70.984375 209.54883,-64.515625 C 213.86133,-58.057292 216.01758,-48.677083 216.01758,-36.375 C 216.01758,-24.104167 213.86133,-14.734375 209.54883,-8.265625 C 205.23633,-1.8072917 198.99154,1.421875 190.81445,1.421875 C 182.64779,1.421875 176.4082,-1.8072917 172.0957,-8.265625 C 167.7832,-14.734375 165.62695,-24.104167 165.62695,-36.375 C 165.62695,-48.677083 167.7832,-58.057292 172.0957,-64.515625 C 176.4082,-70.984375 182.64779,-74.21875 190.81445,-74.21875" />
          <path
             id="use1004"
             d="M 255.67188,-40.375 C 251.24479,-40.375 247.73438,-38.859375 245.14062,-35.828125 C 242.55729,-32.807292 241.26562,-28.661458 241.26562,-23.390625 C 241.26562,-18.151042 242.55729,-14.005208 245.14062,-10.953125 C 247.73438,-7.9114583 251.24479,-6.390625 255.67188,-6.390625 C 260.09896,-6.390625 263.60417,-7.9114583 266.1875,-10.953125 C 268.77083,-14.005208 270.0625,-18.151042 270.0625,-23.390625 C 270.0625,-28.661458 268.77083,-32.807292 266.1875,-35.828125 C 263.60417,-38.859375 260.09896,-40.375 255.67188,-40.375 M 275.25,-71.296875 L 275.25,-62.3125 C 272.77083,-63.479167 270.27083,-64.369792 267.75,-64.984375 C 265.22917,-65.609375 262.72917,-65.921875 260.25,-65.921875 C 253.73958,-65.921875 248.76562,-63.723958 245.32812,-59.328125 C 241.90104,-54.932292 239.94271,-48.291667 239.45312,-39.40625 C 241.36979,-42.239583 243.77604,-44.411458 246.67188,-45.921875 C 249.57812,-47.432292 252.77083,-48.1875 256.25,-48.1875 C 263.57292,-48.1875 269.35938,-45.963542 273.60938,-41.515625 C 277.85938,-37.078125 279.98438,-31.036458 279.98438,-23.390625 C 279.98438,-15.901042 277.77083,-9.890625 273.34375,-5.359375 C 268.91667,-0.83854167 263.02604,1.421875 255.67188,1.421875 C 247.23438,1.421875 240.78646,-1.8072917 236.32812,-8.265625 C 231.86979,-14.734375 229.64062,-24.104167 229.64062,-36.375 C 229.64062,-47.895833 232.375,-57.083333 237.84375,-63.9375 C 243.3125,-70.791667 250.65104,-74.21875 259.85938,-74.21875 C 262.33854,-74.21875 264.83854,-73.973958 267.35938,-73.484375 C 269.88021,-72.994792 272.51042,-72.265625 275.25,-71.296875" />
        </g>
      </g>
      <g
         id="ytick26">
        <g
           id="line2d97">
          <g
             id="g1008">
            <path
               id="use1010"
               d="M 381.13043,177.12 L 385.13043,177.12"
               style="opacity:1;stroke:#000000;stroke-width:0.5;stroke-linecap:butt;stroke-linejoin:miter" />
          </g>
        </g>
        <g
           id="line2d98">
          <g
             id="g1013">
            <path
               id="use1015"
               d="M 502.43478,177.12 L 498.43478,177.12"
               style="opacity:1;stroke:#000000;stroke-width:0.5;stroke-linecap:butt;stroke-linejoin:miter" />
          </g>
        </g>
        <defs
           id="defs1017">
          <path
             d="M 40.578125,-39.3125 C 45.296875,-38.302083 48.979167,-36.197917 51.625,-33 C 54.28125,-29.8125 55.609375,-25.875 55.609375,-21.1875 C 55.609375,-14 53.135417,-8.4322917 48.1875,-4.484375 C 43.239583,-0.546875 36.208333,1.421875 27.09375,1.421875 C 24.041667,1.421875 20.895833,1.1197917 17.65625,0.515625 C 14.416667,-0.088541667 11.072917,-0.99479167 7.625,-2.203125 L 7.625,-11.71875 C 10.354167,-10.125 13.34375,-8.921875 16.59375,-8.109375 C 19.854167,-7.296875 23.260417,-6.890625 26.8125,-6.890625 C 32.989583,-6.890625 37.697917,-8.109375 40.9375,-10.546875 C 44.177083,-12.984375 45.796875,-16.53125 45.796875,-21.1875 C 45.796875,-25.489583 44.291667,-28.848958 41.28125,-31.265625 C 38.270833,-33.692708 34.083333,-34.90625 28.71875,-34.90625 L 20.21875,-34.90625 L 20.21875,-43.015625 L 29.109375,-43.015625 C 33.953125,-43.015625 37.661458,-43.984375 40.234375,-45.921875 C 42.807292,-47.859375 44.09375,-50.651042 44.09375,-54.296875 C 44.09375,-58.036458 42.765625,-60.90625 40.109375,-62.90625 C 37.463542,-64.916667 33.666667,-65.921875 28.71875,-65.921875 C 26.010417,-65.921875 23.109375,-65.625 20.015625,-65.03125 C 16.921875,-64.447917 13.520833,-63.541667 9.8125,-62.3125 L 9.8125,-71.09375 C 13.5625,-72.135417 17.072917,-72.916667 20.34375,-73.4375 C 23.614583,-73.958333 26.697917,-74.21875 29.59375,-74.21875 C 37.083333,-74.21875 43.005208,-72.515625 47.359375,-69.109375 C 51.723958,-65.713542 53.90625,-61.119792 53.90625,-55.328125 C 53.90625,-51.286458 52.75,-47.875 50.4375,-45.09375 C 48.125,-42.3125 44.838542,-40.385417 40.578125,-39.3125"
             id="c_3dcfa38a02242cb63ec6726c6e70be7a" />
        </defs>
        <g
           id="g1020"
           transform="matrix(0.12,0,0,0.12,344.52106,181.48719)"
           style="opacity:1;fill:#000000">
          <path
             id="use1022"
             d="M 31.78125,-66.40625 C 26.708333,-66.40625 22.890625,-63.90625 20.328125,-58.90625 C 17.776042,-53.916667 16.5,-46.40625 16.5,-36.375 C 16.5,-26.385417 17.776042,-18.890625 20.328125,-13.890625 C 22.890625,-8.890625 26.708333,-6.390625 31.78125,-6.390625 C 36.895833,-6.390625 40.729167,-8.890625 43.28125,-13.890625 C 45.84375,-18.890625 47.125,-26.385417 47.125,-36.375 C 47.125,-46.40625 45.84375,-53.916667 43.28125,-58.90625 C 40.729167,-63.90625 36.895833,-66.40625 31.78125,-66.40625 M 31.78125,-74.21875 C 39.958333,-74.21875 46.203125,-70.984375 50.515625,-64.515625 C 54.828125,-58.057292 56.984375,-48.677083 56.984375,-36.375 C 56.984375,-24.104167 54.828125,-14.734375 50.515625,-8.265625 C 46.203125,-1.8072917 39.958333,1.421875 31.78125,1.421875 C 23.614583,1.421875 17.375,-1.8072917 13.0625,-8.265625 C 8.75,-14.734375 6.59375,-24.104167 6.59375,-36.375 C 6.59375,-48.677083 8.75,-58.057292 13.0625,-64.515625 C 17.375,-70.984375 23.614583,-74.21875 31.78125,-74.21875" />
          <path
             id="use1024"
             d="M 74.310547,-12.40625 L 84.623047,-12.40625 L 84.623047,0 L 74.310547,0 L 74.310547,-12.40625 z" />
          <path
             id="use1026"
             d="M 127.19141,-66.40625 C 122.11849,-66.40625 118.30078,-63.90625 115.73828,-58.90625 C 113.1862,-53.916667 111.91016,-46.40625 111.91016,-36.375 C 111.91016,-26.385417 113.1862,-18.890625 115.73828,-13.890625 C 118.30078,-8.890625 122.11849,-6.390625 127.19141,-6.390625 C 132.30599,-6.390625 136.13932,-8.890625 138.69141,-13.890625 C 141.25391,-18.890625 142.53516,-26.385417 142.53516,-36.375 C 142.53516,-46.40625 141.25391,-53.916667 138.69141,-58.90625 C 136.13932,-63.90625 132.30599,-66.40625 127.19141,-66.40625 M 127.19141,-74.21875 C 135.36849,-74.21875 141.61328,-70.984375 145.92578,-64.515625 C 150.23828,-58.057292 152.39453,-48.677083 152.39453,-36.375 C 152.39453,-24.104167 150.23828,-14.734375 145.92578,-8.265625 C 141.61328,-1.8072917 135.36849,1.421875 127.19141,1.421875 C 119.02474,1.421875 112.78516,-1.8072917 108.47266,-8.265625 C 104.16016,-14.734375 102.00391,-24.104167 102.00391,-36.375 C 102.00391,-48.677083 104.16016,-58.057292 108.47266,-64.515625 C 112.78516,-70.984375 119.02474,-74.21875 127.19141,-74.21875" />
          <path
             id="use1028"
             d="M 178.2207,-8.296875 L 212.64258,-8.296875 L 212.64258,0 L 166.36133,0 L 166.36133,-8.296875 C 170.10091,-12.171875 175.19987,-17.369792 181.6582,-23.890625 C 188.12695,-30.421875 192.18945,-34.635417 193.8457,-36.53125 C 197.00195,-40.072917 199.20508,-43.072917 200.45508,-45.53125 C 201.7155,-47.989583 202.3457,-50.40625 202.3457,-52.78125 C 202.3457,-56.65625 200.98633,-59.8125 198.26758,-62.25 C 195.54883,-64.697917 192.00716,-65.921875 187.64258,-65.921875 C 184.54883,-65.921875 181.2832,-65.385417 177.8457,-64.3125 C 174.41862,-63.239583 170.75195,-61.609375 166.8457,-59.421875 L 166.8457,-69.390625 C 170.81445,-70.984375 174.52279,-72.1875 177.9707,-73 C 181.42904,-73.8125 184.5905,-74.21875 187.45508,-74.21875 C 195.00716,-74.21875 201.028,-72.328125 205.51758,-68.546875 C 210.00716,-64.776042 212.25195,-59.734375 212.25195,-53.421875 C 212.25195,-50.421875 211.68945,-47.578125 210.56445,-44.890625 C 209.44987,-42.213542 207.4082,-39.052083 204.43945,-35.40625 C 203.62695,-34.458333 201.03841,-31.729167 196.67383,-27.21875 C 192.31966,-22.708333 186.16862,-16.401042 178.2207,-8.296875" />
          <use
             height="216"
             width="720"
             y="0"
             id="use1030"
             x="222.65625"
             xlink:href="#c_3dcfa38a02242cb63ec6726c6e70be7a" />
        </g>
      </g>
      <g
         id="ytick27">
        <g
           id="line2d99">
          <g
             id="g1034">
            <path
               id="use1036"
               d="M 381.13043,159.84 L 385.13043,159.84"
               style="opacity:1;stroke:#000000;stroke-width:0.5;stroke-linecap:butt;stroke-linejoin:miter" />
          </g>
        </g>
        <g
           id="line2d100">
          <g
             id="g1039">
            <path
               id="use1041"
               d="M 502.43478,159.84 L 498.43478,159.84"
               style="opacity:1;stroke:#000000;stroke-width:0.5;stroke-linecap:butt;stroke-linejoin:miter" />
          </g>
        </g>
        <defs
           id="defs1043">
          <path
             d="M 8.203125,-72.90625 L 55.078125,-72.90625 L 55.078125,-68.703125 L 28.609375,0 L 18.3125,0 L 43.21875,-64.59375 L 8.203125,-64.59375 L 8.203125,-72.90625 z"
             id="c_956f18cfdaf972f35a6c2b4aaac2532b" />
        </defs>
        <g
           id="g1046"
           transform="matrix(0.12,0,0,0.12,344.58356,164.20719)"
           style="opacity:1;fill:#000000">
          <path
             id="use1048"
             d="M 31.78125,-66.40625 C 26.708333,-66.40625 22.890625,-63.90625 20.328125,-58.90625 C 17.776042,-53.916667 16.5,-46.40625 16.5,-36.375 C 16.5,-26.385417 17.776042,-18.890625 20.328125,-13.890625 C 22.890625,-8.890625 26.708333,-6.390625 31.78125,-6.390625 C 36.895833,-6.390625 40.729167,-8.890625 43.28125,-13.890625 C 45.84375,-18.890625 47.125,-26.385417 47.125,-36.375 C 47.125,-46.40625 45.84375,-53.916667 43.28125,-58.90625 C 40.729167,-63.90625 36.895833,-66.40625 31.78125,-66.40625 M 31.78125,-74.21875 C 39.958333,-74.21875 46.203125,-70.984375 50.515625,-64.515625 C 54.828125,-58.057292 56.984375,-48.677083 56.984375,-36.375 C 56.984375,-24.104167 54.828125,-14.734375 50.515625,-8.265625 C 46.203125,-1.8072917 39.958333,1.421875 31.78125,1.421875 C 23.614583,1.421875 17.375,-1.8072917 13.0625,-8.265625 C 8.75,-14.734375 6.59375,-24.104167 6.59375,-36.375 C 6.59375,-48.677083 8.75,-58.057292 13.0625,-64.515625 C 17.375,-70.984375 23.614583,-74.21875 31.78125,-74.21875" />
          <path
             id="use1050"
             d="M 74.310547,-12.40625 L 84.623047,-12.40625 L 84.623047,0 L 74.310547,0 L 74.310547,-12.40625 z" />
          <path
             id="use1052"
             d="M 127.19141,-66.40625 C 122.11849,-66.40625 118.30078,-63.90625 115.73828,-58.90625 C 113.1862,-53.916667 111.91016,-46.40625 111.91016,-36.375 C 111.91016,-26.385417 113.1862,-18.890625 115.73828,-13.890625 C 118.30078,-8.890625 122.11849,-6.390625 127.19141,-6.390625 C 132.30599,-6.390625 136.13932,-8.890625 138.69141,-13.890625 C 141.25391,-18.890625 142.53516,-26.385417 142.53516,-36.375 C 142.53516,-46.40625 141.25391,-53.916667 138.69141,-58.90625 C 136.13932,-63.90625 132.30599,-66.40625 127.19141,-66.40625 M 127.19141,-74.21875 C 135.36849,-74.21875 141.61328,-70.984375 145.92578,-64.515625 C 150.23828,-58.057292 152.39453,-48.677083 152.39453,-36.375 C 152.39453,-24.104167 150.23828,-14.734375 145.92578,-8.265625 C 141.61328,-1.8072917 135.36849,1.421875 127.19141,1.421875 C 119.02474,1.421875 112.78516,-1.8072917 108.47266,-8.265625 C 104.16016,-14.734375 102.00391,-24.104167 102.00391,-36.375 C 102.00391,-48.677083 104.16016,-58.057292 108.47266,-64.515625 C 112.78516,-70.984375 119.02474,-74.21875 127.19141,-74.21875" />
          <path
             id="use1054"
             d="M 192.04883,-40.375 C 187.62175,-40.375 184.11133,-38.859375 181.51758,-35.828125 C 178.93425,-32.807292 177.64258,-28.661458 177.64258,-23.390625 C 177.64258,-18.151042 178.93425,-14.005208 181.51758,-10.953125 C 184.11133,-7.9114583 187.62175,-6.390625 192.04883,-6.390625 C 196.47591,-6.390625 199.98112,-7.9114583 202.56445,-10.953125 C 205.14779,-14.005208 206.43945,-18.151042 206.43945,-23.390625 C 206.43945,-28.661458 205.14779,-32.807292 202.56445,-35.828125 C 199.98112,-38.859375 196.47591,-40.375 192.04883,-40.375 M 211.62695,-71.296875 L 211.62695,-62.3125 C 209.14779,-63.479167 206.64779,-64.369792 204.12695,-64.984375 C 201.60612,-65.609375 199.10612,-65.921875 196.62695,-65.921875 C 190.11654,-65.921875 185.14258,-63.723958 181.70508,-59.328125 C 178.278,-54.932292 176.31966,-48.291667 175.83008,-39.40625 C 177.74675,-42.239583 180.153,-44.411458 183.04883,-45.921875 C 185.95508,-47.432292 189.14779,-48.1875 192.62695,-48.1875 C 199.94987,-48.1875 205.73633,-45.963542 209.98633,-41.515625 C 214.23633,-37.078125 216.36133,-31.036458 216.36133,-23.390625 C 216.36133,-15.901042 214.14779,-9.890625 209.7207,-5.359375 C 205.29362,-0.83854167 199.403,1.421875 192.04883,1.421875 C 183.61133,1.421875 177.16341,-1.8072917 172.70508,-8.265625 C 168.24674,-14.734375 166.01758,-24.104167 166.01758,-36.375 C 166.01758,-47.895833 168.75195,-57.083333 174.2207,-63.9375 C 179.68945,-70.791667 187.028,-74.21875 196.23633,-74.21875 C 198.7155,-74.21875 201.2155,-73.973958 203.73633,-73.484375 C 206.25716,-72.994792 208.88737,-72.265625 211.62695,-71.296875" />
          <use
             height="216"
             width="720"
             y="0"
             id="use1056"
             x="222.65625"
             xlink:href="#c_956f18cfdaf972f35a6c2b4aaac2532b" />
        </g>
      </g>
      <g
         id="ytick28">
        <g
           id="line2d101">
          <g
             id="g1060">
            <path
               id="use1062"
               d="M 381.13043,142.56 L 385.13043,142.56"
               style="opacity:1;stroke:#000000;stroke-width:0.5;stroke-linecap:butt;stroke-linejoin:miter" />
          </g>
        </g>
        <g
           id="line2d102">
          <g
             id="g1065">
            <path
               id="use1067"
               d="M 502.43478,142.56 L 498.43478,142.56"
               style="opacity:1;stroke:#000000;stroke-width:0.5;stroke-linecap:butt;stroke-linejoin:miter" />
          </g>
        </g>
        <defs
           id="defs1069">
          <path
             d="M 10.984375,-1.515625 L 10.984375,-10.5 C 13.463542,-9.3229167 15.96875,-8.4270833 18.5,-7.8125 C 21.041667,-7.1979167 23.536458,-6.890625 25.984375,-6.890625 C 32.494792,-6.890625 37.463542,-9.078125 40.890625,-13.453125 C 44.328125,-17.828125 46.291667,-24.479167 46.78125,-33.40625 C 44.895833,-30.604167 42.5,-28.453125 39.59375,-26.953125 C 36.697917,-25.453125 33.494792,-24.703125 29.984375,-24.703125 C 22.692708,-24.703125 16.921875,-26.90625 12.671875,-31.3125 C 8.421875,-35.729167 6.296875,-41.765625 6.296875,-49.421875 C 6.296875,-56.901042 8.5104167,-62.901042 12.9375,-67.421875 C 17.364583,-71.953125 23.255208,-74.21875 30.609375,-74.21875 C 39.046875,-74.21875 45.484375,-70.984375 49.921875,-64.515625 C 54.369792,-58.057292 56.59375,-48.677083 56.59375,-36.375 C 56.59375,-24.885417 53.864583,-15.713542 48.40625,-8.859375 C 42.958333,-2.0052083 35.630208,1.421875 26.421875,1.421875 C 23.942708,1.421875 21.432292,1.1770833 18.890625,0.6875 C 16.359375,0.19791667 13.723958,-0.53645833 10.984375,-1.515625 M 30.609375,-32.421875 C 35.036458,-32.421875 38.541667,-33.932292 41.125,-36.953125 C 43.71875,-39.984375 45.015625,-44.140625 45.015625,-49.421875 C 45.015625,-54.661458 43.71875,-58.802083 41.125,-61.84375 C 38.541667,-64.885417 35.036458,-66.40625 30.609375,-66.40625 C 26.182292,-66.40625 22.677083,-64.885417 20.09375,-61.84375 C 17.510417,-58.802083 16.21875,-54.661458 16.21875,-49.421875 C 16.21875,-44.140625 17.510417,-39.984375 20.09375,-36.953125 C 22.677083,-33.932292 26.182292,-32.421875 30.609375,-32.421875"
             id="c_cd96f817f3cab988d24a2b49a5577fe6" />
        </defs>
        <g
           id="g1072"
           transform="matrix(0.12,0,0,0.12,344.39606,146.92719)"
           style="opacity:1;fill:#000000">
          <path
             id="use1074"
             d="M 31.78125,-66.40625 C 26.708333,-66.40625 22.890625,-63.90625 20.328125,-58.90625 C 17.776042,-53.916667 16.5,-46.40625 16.5,-36.375 C 16.5,-26.385417 17.776042,-18.890625 20.328125,-13.890625 C 22.890625,-8.890625 26.708333,-6.390625 31.78125,-6.390625 C 36.895833,-6.390625 40.729167,-8.890625 43.28125,-13.890625 C 45.84375,-18.890625 47.125,-26.385417 47.125,-36.375 C 47.125,-46.40625 45.84375,-53.916667 43.28125,-58.90625 C 40.729167,-63.90625 36.895833,-66.40625 31.78125,-66.40625 M 31.78125,-74.21875 C 39.958333,-74.21875 46.203125,-70.984375 50.515625,-64.515625 C 54.828125,-58.057292 56.984375,-48.677083 56.984375,-36.375 C 56.984375,-24.104167 54.828125,-14.734375 50.515625,-8.265625 C 46.203125,-1.8072917 39.958333,1.421875 31.78125,1.421875 C 23.614583,1.421875 17.375,-1.8072917 13.0625,-8.265625 C 8.75,-14.734375 6.59375,-24.104167 6.59375,-36.375 C 6.59375,-48.677083 8.75,-58.057292 13.0625,-64.515625 C 17.375,-70.984375 23.614583,-74.21875 31.78125,-74.21875" />
          <path
             id="use1076"
             d="M 74.310547,-12.40625 L 84.623047,-12.40625 L 84.623047,0 L 74.310547,0 L 74.310547,-12.40625 z" />
          <path
             id="use1078"
             d="M 107.81641,-8.296875 L 123.92578,-8.296875 L 123.92578,-63.921875 L 106.39453,-60.40625 L 106.39453,-69.390625 L 123.83203,-72.90625 L 133.69141,-72.90625 L 133.69141,-8.296875 L 149.80078,-8.296875 L 149.80078,-1.5987212e-14 L 107.81641,-1.5987212e-14 L 107.81641,-8.296875 z" />
          <path
             id="use1080"
             d="M 169.83008,-72.90625 L 208.54883,-72.90625 L 208.54883,-64.59375 L 178.86133,-64.59375 L 178.86133,-46.734375 C 180.28841,-47.223958 181.7155,-47.588542 183.14258,-47.828125 C 184.58008,-48.067708 186.01758,-48.1875 187.45508,-48.1875 C 195.5905,-48.1875 202.0332,-45.958333 206.7832,-41.5 C 211.54362,-37.041667 213.92383,-31.005208 213.92383,-23.390625 C 213.92383,-15.546875 211.48112,-9.4479167 206.5957,-5.09375 C 201.71029,-0.75 194.82487,1.421875 185.93945,1.421875 C 182.87695,1.421875 179.75716,1.1614583 176.58008,0.640625 C 173.41341,0.11979167 170.13737,-0.66145833 166.75195,-1.703125 L 166.75195,-11.625 C 169.67904,-10.03125 172.70508,-8.84375 175.83008,-8.0625 C 178.95508,-7.28125 182.25716,-6.890625 185.73633,-6.890625 C 191.37175,-6.890625 195.83008,-8.3697917 199.11133,-11.328125 C 202.403,-14.286458 204.04883,-18.307292 204.04883,-23.390625 C 204.04883,-28.463542 202.403,-32.479167 199.11133,-35.4375 C 195.83008,-38.40625 191.37175,-39.890625 185.73633,-39.890625 C 183.10091,-39.890625 180.4707,-39.598958 177.8457,-39.015625 C 175.23112,-38.432292 172.55925,-37.520833 169.83008,-36.28125 L 169.83008,-72.90625 z" />
          <use
             height="216"
             width="720"
             y="0"
             id="use1082"
             x="222.65625"
             xlink:href="#c_cd96f817f3cab988d24a2b49a5577fe6" />
        </g>
      </g>
      <g
         id="ytick29">
        <g
           id="line2d103">
          <g
             id="g1086">
            <path
               id="use1088"
               d="M 381.13043,125.28 L 385.13043,125.28"
               style="opacity:1;stroke:#000000;stroke-width:0.5;stroke-linecap:butt;stroke-linejoin:miter" />
          </g>
        </g>
        <g
           id="line2d104">
          <g
             id="g1091">
            <path
               id="use1093"
               d="M 502.43478,125.28 L 498.43478,125.28"
               style="opacity:1;stroke:#000000;stroke-width:0.5;stroke-linecap:butt;stroke-linejoin:miter" />
          </g>
        </g>
        <g
           id="g1095"
           transform="matrix(0.12,0,0,0.12,344.39606,129.64719)"
           style="opacity:1;fill:#000000">
          <path
             id="use1097"
             d="M 31.78125,-66.40625 C 26.708333,-66.40625 22.890625,-63.90625 20.328125,-58.90625 C 17.776042,-53.916667 16.5,-46.40625 16.5,-36.375 C 16.5,-26.385417 17.776042,-18.890625 20.328125,-13.890625 C 22.890625,-8.890625 26.708333,-6.390625 31.78125,-6.390625 C 36.895833,-6.390625 40.729167,-8.890625 43.28125,-13.890625 C 45.84375,-18.890625 47.125,-26.385417 47.125,-36.375 C 47.125,-46.40625 45.84375,-53.916667 43.28125,-58.90625 C 40.729167,-63.90625 36.895833,-66.40625 31.78125,-66.40625 M 31.78125,-74.21875 C 39.958333,-74.21875 46.203125,-70.984375 50.515625,-64.515625 C 54.828125,-58.057292 56.984375,-48.677083 56.984375,-36.375 C 56.984375,-24.104167 54.828125,-14.734375 50.515625,-8.265625 C 46.203125,-1.8072917 39.958333,1.421875 31.78125,1.421875 C 23.614583,1.421875 17.375,-1.8072917 13.0625,-8.265625 C 8.75,-14.734375 6.59375,-24.104167 6.59375,-36.375 C 6.59375,-48.677083 8.75,-58.057292 13.0625,-64.515625 C 17.375,-70.984375 23.614583,-74.21875 31.78125,-74.21875" />
          <path
             id="use1099"
             d="M 74.310547,-12.40625 L 84.623047,-12.40625 L 84.623047,0 L 74.310547,0 L 74.310547,-12.40625 z" />
          <use
             height="216"
             width="720"
             y="0"
             id="use1101"
             x="95.410156"
             xlink:href="#c_3dcfa38a02242cb63ec6726c6e70be7a" />
          <path
             id="use1103"
             d="M 190.81445,-66.40625 C 185.74154,-66.40625 181.92383,-63.90625 179.36133,-58.90625 C 176.80925,-53.916667 175.5332,-46.40625 175.5332,-36.375 C 175.5332,-26.385417 176.80925,-18.890625 179.36133,-13.890625 C 181.92383,-8.890625 185.74154,-6.390625 190.81445,-6.390625 C 195.92904,-6.390625 199.76237,-8.890625 202.31445,-13.890625 C 204.87695,-18.890625 206.1582,-26.385417 206.1582,-36.375 C 206.1582,-46.40625 204.87695,-53.916667 202.31445,-58.90625 C 199.76237,-63.90625 195.92904,-66.40625 190.81445,-66.40625 M 190.81445,-74.21875 C 198.99154,-74.21875 205.23633,-70.984375 209.54883,-64.515625 C 213.86133,-58.057292 216.01758,-48.677083 216.01758,-36.375 C 216.01758,-24.104167 213.86133,-14.734375 209.54883,-8.265625 C 205.23633,-1.8072917 198.99154,1.421875 190.81445,1.421875 C 182.64779,1.421875 176.4082,-1.8072917 172.0957,-8.265625 C 167.7832,-14.734375 165.62695,-24.104167 165.62695,-36.375 C 165.62695,-48.677083 167.7832,-58.057292 172.0957,-64.515625 C 176.4082,-70.984375 182.64779,-74.21875 190.81445,-74.21875" />
          <use
             height="216"
             width="720"
             y="0"
             id="use1105"
             x="222.65625"
             xlink:href="#c_cd96f817f3cab988d24a2b49a5577fe6" />
        </g>
      </g>
      <g
         id="ytick30">
        <g
           id="line2d105">
          <g
             id="g1109">
            <path
               id="use1111"
               d="M 381.13043,108 L 385.13043,108"
               style="opacity:1;stroke:#000000;stroke-width:0.5;stroke-linecap:butt;stroke-linejoin:miter" />
          </g>
        </g>
        <g
           id="line2d106">
          <g
             id="g1114">
            <path
               id="use1116"
               d="M 502.43478,108 L 498.43478,108"
               style="opacity:1;stroke:#000000;stroke-width:0.5;stroke-linecap:butt;stroke-linejoin:miter" />
          </g>
        </g>
        <g
           id="g1118"
           transform="matrix(0.12,0,0,0.12,359.88043,112.36719)"
           style="opacity:1;fill:#000000">
          <path
             id="use1120"
             d="M 31.78125,-66.40625 C 26.708333,-66.40625 22.890625,-63.90625 20.328125,-58.90625 C 17.776042,-53.916667 16.5,-46.40625 16.5,-36.375 C 16.5,-26.385417 17.776042,-18.890625 20.328125,-13.890625 C 22.890625,-8.890625 26.708333,-6.390625 31.78125,-6.390625 C 36.895833,-6.390625 40.729167,-8.890625 43.28125,-13.890625 C 45.84375,-18.890625 47.125,-26.385417 47.125,-36.375 C 47.125,-46.40625 45.84375,-53.916667 43.28125,-58.90625 C 40.729167,-63.90625 36.895833,-66.40625 31.78125,-66.40625 M 31.78125,-74.21875 C 39.958333,-74.21875 46.203125,-70.984375 50.515625,-64.515625 C 54.828125,-58.057292 56.984375,-48.677083 56.984375,-36.375 C 56.984375,-24.104167 54.828125,-14.734375 50.515625,-8.265625 C 46.203125,-1.8072917 39.958333,1.421875 31.78125,1.421875 C 23.614583,1.421875 17.375,-1.8072917 13.0625,-8.265625 C 8.75,-14.734375 6.59375,-24.104167 6.59375,-36.375 C 6.59375,-48.677083 8.75,-58.057292 13.0625,-64.515625 C 17.375,-70.984375 23.614583,-74.21875 31.78125,-74.21875" />
          <path
             id="use1122"
             d="M 74.310547,-12.40625 L 84.623047,-12.40625 L 84.623047,0 L 74.310547,0 L 74.310547,-12.40625 z" />
          <path
             id="use1124"
             d="M 106.20703,-72.90625 L 144.92578,-72.90625 L 144.92578,-64.59375 L 115.23828,-64.59375 L 115.23828,-46.734375 C 116.66536,-47.223958 118.09245,-47.588542 119.51953,-47.828125 C 120.95703,-48.067708 122.39453,-48.1875 123.83203,-48.1875 C 131.96745,-48.1875 138.41016,-45.958333 143.16016,-41.5 C 147.92057,-37.041667 150.30078,-31.005208 150.30078,-23.390625 C 150.30078,-15.546875 147.85807,-9.4479167 142.97266,-5.09375 C 138.08724,-0.75 131.20182,1.421875 122.31641,1.421875 C 119.25391,1.421875 116.13411,1.1614583 112.95703,0.640625 C 109.79036,0.11979167 106.51432,-0.66145833 103.12891,-1.703125 L 103.12891,-11.625 C 106.05599,-10.03125 109.08203,-8.84375 112.20703,-8.0625 C 115.33203,-7.28125 118.63411,-6.890625 122.11328,-6.890625 C 127.7487,-6.890625 132.20703,-8.3697917 135.48828,-11.328125 C 138.77995,-14.286458 140.42578,-18.307292 140.42578,-23.390625 C 140.42578,-28.463542 138.77995,-32.479167 135.48828,-35.4375 C 132.20703,-38.40625 127.7487,-39.890625 122.11328,-39.890625 C 119.47786,-39.890625 116.84766,-39.598958 114.22266,-39.015625 C 111.60807,-38.432292 108.9362,-37.520833 106.20703,-36.28125 L 106.20703,-72.90625 z" />
        </g>
      </g>
      <g
         id="ytick31">
        <g
           id="line2d107">
          <g
             id="g1128">
            <path
               id="use1130"
               d="M 381.13043,90.720001 L 385.13043,90.720001"
               style="opacity:1;stroke:#000000;stroke-width:0.5;stroke-linecap:butt;stroke-linejoin:miter" />
          </g>
        </g>
        <g
           id="line2d108">
          <g
             id="g1133">
            <path
               id="use1135"
               d="M 502.43478,90.720001 L 498.43478,90.720001"
               style="opacity:1;stroke:#000000;stroke-width:0.5;stroke-linecap:butt;stroke-linejoin:miter" />
          </g>
        </g>
        <g
           id="g1137"
           transform="matrix(0.12,0,0,0.12,344.66168,95.087187)"
           style="opacity:1;fill:#000000">
          <path
             id="use1139"
             d="M 31.78125,-66.40625 C 26.708333,-66.40625 22.890625,-63.90625 20.328125,-58.90625 C 17.776042,-53.916667 16.5,-46.40625 16.5,-36.375 C 16.5,-26.385417 17.776042,-18.890625 20.328125,-13.890625 C 22.890625,-8.890625 26.708333,-6.390625 31.78125,-6.390625 C 36.895833,-6.390625 40.729167,-8.890625 43.28125,-13.890625 C 45.84375,-18.890625 47.125,-26.385417 47.125,-36.375 C 47.125,-46.40625 45.84375,-53.916667 43.28125,-58.90625 C 40.729167,-63.90625 36.895833,-66.40625 31.78125,-66.40625 M 31.78125,-74.21875 C 39.958333,-74.21875 46.203125,-70.984375 50.515625,-64.515625 C 54.828125,-58.057292 56.984375,-48.677083 56.984375,-36.375 C 56.984375,-24.104167 54.828125,-14.734375 50.515625,-8.265625 C 46.203125,-1.8072917 39.958333,1.421875 31.78125,1.421875 C 23.614583,1.421875 17.375,-1.8072917 13.0625,-8.265625 C 8.75,-14.734375 6.59375,-24.104167 6.59375,-36.375 C 6.59375,-48.677083 8.75,-58.057292 13.0625,-64.515625 C 17.375,-70.984375 23.614583,-74.21875 31.78125,-74.21875" />
          <path
             id="use1141"
             d="M 74.310547,-12.40625 L 84.623047,-12.40625 L 84.623047,0 L 74.310547,0 L 74.310547,-12.40625 z" />
          <path
             id="use1143"
             d="M 128.42578,-40.375 C 123.9987,-40.375 120.48828,-38.859375 117.89453,-35.828125 C 115.3112,-32.807292 114.01953,-28.661458 114.01953,-23.390625 C 114.01953,-18.151042 115.3112,-14.005208 117.89453,-10.953125 C 120.48828,-7.9114583 123.9987,-6.390625 128.42578,-6.390625 C 132.85286,-6.390625 136.35807,-7.9114583 138.94141,-10.953125 C 141.52474,-14.005208 142.81641,-18.151042 142.81641,-23.390625 C 142.81641,-28.661458 141.52474,-32.807292 138.94141,-35.828125 C 136.35807,-38.859375 132.85286,-40.375 128.42578,-40.375 M 148.00391,-71.296875 L 148.00391,-62.3125 C 145.52474,-63.479167 143.02474,-64.369792 140.50391,-64.984375 C 137.98307,-65.609375 135.48307,-65.921875 133.00391,-65.921875 C 126.49349,-65.921875 121.51953,-63.723958 118.08203,-59.328125 C 114.65495,-54.932292 112.69661,-48.291667 112.20703,-39.40625 C 114.1237,-42.239583 116.52995,-44.411458 119.42578,-45.921875 C 122.33203,-47.432292 125.52474,-48.1875 129.00391,-48.1875 C 136.32682,-48.1875 142.11328,-45.963542 146.36328,-41.515625 C 150.61328,-37.078125 152.73828,-31.036458 152.73828,-23.390625 C 152.73828,-15.901042 150.52474,-9.890625 146.09766,-5.359375 C 141.67057,-0.83854167 135.77995,1.421875 128.42578,1.421875 C 119.98828,1.421875 113.54036,-1.8072917 109.08203,-8.265625 C 104.6237,-14.734375 102.39453,-24.104167 102.39453,-36.375 C 102.39453,-47.895833 105.12891,-57.083333 110.59766,-63.9375 C 116.06641,-70.791667 123.40495,-74.21875 132.61328,-74.21875 C 135.09245,-74.21875 137.59245,-73.973958 140.11328,-73.484375 C 142.63411,-72.994792 145.26432,-72.265625 148.00391,-71.296875" />
          <use
             height="216"
             width="720"
             y="0"
             id="use1145"
             x="159.0332"
             xlink:href="#c_cd96f817f3cab988d24a2b49a5577fe6" />
          <path
             id="use1147"
             d="M 235.0625,-8.296875 L 251.17188,-8.296875 L 251.17188,-63.921875 L 233.64062,-60.40625 L 233.64062,-69.390625 L 251.07812,-72.90625 L 260.9375,-72.90625 L 260.9375,-8.296875 L 277.04688,-8.296875 L 277.04688,-1.5987212e-14 L 235.0625,-1.5987212e-14 L 235.0625,-8.296875 z" />
        </g>
      </g>
      <g
         id="ytick32">
        <g
           id="line2d109">
          <g
             id="g1151">
            <path
               id="use1153"
               d="M 381.13043,73.440002 L 385.13043,73.440002"
               style="opacity:1;stroke:#000000;stroke-width:0.5;stroke-linecap:butt;stroke-linejoin:miter" />
          </g>
        </g>
        <g
           id="line2d110">
          <g
             id="g1156">
            <path
               id="use1158"
               d="M 502.43478,73.440002 L 498.43478,73.440002"
               style="opacity:1;stroke:#000000;stroke-width:0.5;stroke-linecap:butt;stroke-linejoin:miter" />
          </g>
        </g>
        <g
           id="g1160"
           transform="matrix(0.12,0,0,0.12,344.66168,77.807187)"
           style="opacity:1;fill:#000000">
          <path
             id="use1162"
             d="M 31.78125,-66.40625 C 26.708333,-66.40625 22.890625,-63.90625 20.328125,-58.90625 C 17.776042,-53.916667 16.5,-46.40625 16.5,-36.375 C 16.5,-26.385417 17.776042,-18.890625 20.328125,-13.890625 C 22.890625,-8.890625 26.708333,-6.390625 31.78125,-6.390625 C 36.895833,-6.390625 40.729167,-8.890625 43.28125,-13.890625 C 45.84375,-18.890625 47.125,-26.385417 47.125,-36.375 C 47.125,-46.40625 45.84375,-53.916667 43.28125,-58.90625 C 40.729167,-63.90625 36.895833,-66.40625 31.78125,-66.40625 M 31.78125,-74.21875 C 39.958333,-74.21875 46.203125,-70.984375 50.515625,-64.515625 C 54.828125,-58.057292 56.984375,-48.677083 56.984375,-36.375 C 56.984375,-24.104167 54.828125,-14.734375 50.515625,-8.265625 C 46.203125,-1.8072917 39.958333,1.421875 31.78125,1.421875 C 23.614583,1.421875 17.375,-1.8072917 13.0625,-8.265625 C 8.75,-14.734375 6.59375,-24.104167 6.59375,-36.375 C 6.59375,-48.677083 8.75,-58.057292 13.0625,-64.515625 C 17.375,-70.984375 23.614583,-74.21875 31.78125,-74.21875" />
          <path
             id="use1164"
             d="M 74.310547,-12.40625 L 84.623047,-12.40625 L 84.623047,0 L 74.310547,0 L 74.310547,-12.40625 z" />
          <path
             id="use1166"
             d="M 127.19141,-34.625 C 122.50391,-34.625 118.81641,-33.369792 116.12891,-30.859375 C 113.45182,-28.348958 112.11328,-24.901042 112.11328,-20.515625 C 112.11328,-16.119792 113.45182,-12.666667 116.12891,-10.15625 C 118.81641,-7.6458333 122.50391,-6.390625 127.19141,-6.390625 C 131.87891,-6.390625 135.57161,-7.6510417 138.26953,-10.171875 C 140.97786,-12.703125 142.33203,-16.151042 142.33203,-20.515625 C 142.33203,-24.901042 140.98828,-28.348958 138.30078,-30.859375 C 135.6237,-33.369792 131.92057,-34.625 127.19141,-34.625 M 117.33203,-38.8125 C 113.10286,-39.854167 109.80599,-41.822917 107.44141,-44.71875 C 105.08724,-47.625 103.91016,-51.161458 103.91016,-55.328125 C 103.91016,-61.151042 105.98307,-65.755208 110.12891,-69.140625 C 114.28516,-72.526042 119.97266,-74.21875 127.19141,-74.21875 C 134.45182,-74.21875 140.14974,-72.526042 144.28516,-69.140625 C 148.42057,-65.755208 150.48828,-61.151042 150.48828,-55.328125 C 150.48828,-51.161458 149.30599,-47.625 146.94141,-44.71875 C 144.58724,-41.822917 141.3112,-39.854167 137.11328,-38.8125 C 141.86328,-37.708333 145.5612,-35.541667 148.20703,-32.3125 C 150.86328,-29.09375 152.19141,-25.161458 152.19141,-20.515625 C 152.19141,-13.442708 150.03516,-8.015625 145.72266,-4.234375 C 141.41016,-0.46354167 135.23307,1.421875 127.19141,1.421875 C 119.16016,1.421875 112.98307,-0.46354167 108.66016,-4.234375 C 104.34766,-8.015625 102.19141,-13.442708 102.19141,-20.515625 C 102.19141,-25.161458 103.52474,-29.09375 106.19141,-32.3125 C 108.86849,-35.541667 112.58203,-37.708333 117.33203,-38.8125 M 113.72266,-54.390625 C 113.72266,-50.619792 114.89974,-47.677083 117.25391,-45.5625 C 119.61849,-43.447917 122.93099,-42.390625 127.19141,-42.390625 C 131.43099,-42.390625 134.74349,-43.447917 137.12891,-45.5625 C 139.52474,-47.677083 140.72266,-50.619792 140.72266,-54.390625 C 140.72266,-58.171875 139.52474,-61.119792 137.12891,-63.234375 C 134.74349,-65.348958 131.43099,-66.40625 127.19141,-66.40625 C 122.93099,-66.40625 119.61849,-65.348958 117.25391,-63.234375 C 114.89974,-61.119792 113.72266,-58.171875 113.72266,-54.390625" />
          <path
             id="use1168"
             d="M 196.83008,-64.3125 L 171.92383,-25.390625 L 196.83008,-25.390625 L 196.83008,-64.3125 z M 194.23633,-72.90625 L 206.64258,-72.90625 L 206.64258,-25.390625 L 217.04883,-25.390625 L 217.04883,-17.1875 L 206.64258,-17.1875 L 206.64258,-1.4210855e-14 L 196.83008,-1.4210855e-14 L 196.83008,-17.1875 L 163.92383,-17.1875 L 163.92383,-26.703125 L 194.23633,-72.90625 z" />
          <path
             id="use1170"
             d="M 235.0625,-8.296875 L 251.17188,-8.296875 L 251.17188,-63.921875 L 233.64062,-60.40625 L 233.64062,-69.390625 L 251.07812,-72.90625 L 260.9375,-72.90625 L 260.9375,-8.296875 L 277.04688,-8.296875 L 277.04688,-1.5987212e-14 L 235.0625,-1.5987212e-14 L 235.0625,-8.296875 z" />
        </g>
      </g>
      <g
         id="ytick33">
        <g
           id="line2d111">
          <g
             id="g1174">
            <path
               id="use1176"
               d="M 381.13043,56.16 L 385.13043,56.16"
               style="opacity:1;stroke:#000000;stroke-width:0.5;stroke-linecap:butt;stroke-linejoin:miter" />
          </g>
        </g>
        <g
           id="line2d112">
          <g
             id="g1179">
            <path
               id="use1181"
               d="M 502.43478,56.16 L 498.43478,56.16"
               style="opacity:1;stroke:#000000;stroke-width:0.5;stroke-linecap:butt;stroke-linejoin:miter" />
          </g>
        </g>
        <g
           id="g1183"
           transform="matrix(0.12,0,0,0.12,344.52106,60.527187)"
           style="opacity:1;fill:#000000">
          <path
             id="use1185"
             d="M 31.78125,-66.40625 C 26.708333,-66.40625 22.890625,-63.90625 20.328125,-58.90625 C 17.776042,-53.916667 16.5,-46.40625 16.5,-36.375 C 16.5,-26.385417 17.776042,-18.890625 20.328125,-13.890625 C 22.890625,-8.890625 26.708333,-6.390625 31.78125,-6.390625 C 36.895833,-6.390625 40.729167,-8.890625 43.28125,-13.890625 C 45.84375,-18.890625 47.125,-26.385417 47.125,-36.375 C 47.125,-46.40625 45.84375,-53.916667 43.28125,-58.90625 C 40.729167,-63.90625 36.895833,-66.40625 31.78125,-66.40625 M 31.78125,-74.21875 C 39.958333,-74.21875 46.203125,-70.984375 50.515625,-64.515625 C 54.828125,-58.057292 56.984375,-48.677083 56.984375,-36.375 C 56.984375,-24.104167 54.828125,-14.734375 50.515625,-8.265625 C 46.203125,-1.8072917 39.958333,1.421875 31.78125,1.421875 C 23.614583,1.421875 17.375,-1.8072917 13.0625,-8.265625 C 8.75,-14.734375 6.59375,-24.104167 6.59375,-36.375 C 6.59375,-48.677083 8.75,-58.057292 13.0625,-64.515625 C 17.375,-70.984375 23.614583,-74.21875 31.78125,-74.21875" />
          <path
             id="use1187"
             d="M 74.310547,-12.40625 L 84.623047,-12.40625 L 84.623047,0 L 74.310547,0 L 74.310547,-12.40625 z" />
          <use
             height="216"
             width="720"
             y="0"
             id="use1189"
             x="95.410156"
             xlink:href="#c_cd96f817f3cab988d24a2b49a5577fe6" />
          <use
             height="216"
             width="720"
             y="0"
             id="use1191"
             x="159.0332"
             xlink:href="#c_3dcfa38a02242cb63ec6726c6e70be7a" />
          <use
             height="216"
             width="720"
             y="0"
             id="use1193"
             x="222.65625"
             xlink:href="#c_3dcfa38a02242cb63ec6726c6e70be7a" />
        </g>
      </g>
      <g
         id="ytick34">
        <g
           id="line2d113">
          <g
             id="g1197">
            <path
               id="use1199"
               d="M 381.13043,38.880001 L 385.13043,38.880001"
               style="opacity:1;stroke:#000000;stroke-width:0.5;stroke-linecap:butt;stroke-linejoin:miter" />
          </g>
        </g>
        <g
           id="line2d114">
          <g
             id="g1202">
            <path
               id="use1204"
               d="M 502.43478,38.880001 L 498.43478,38.880001"
               style="opacity:1;stroke:#000000;stroke-width:0.5;stroke-linecap:butt;stroke-linejoin:miter" />
          </g>
        </g>
        <g
           id="g1206"
           transform="matrix(0.12,0,0,0.12,344.58356,43.247187)"
           style="opacity:1;fill:#000000">
          <path
             id="use1208"
             d="M 31.78125,-66.40625 C 26.708333,-66.40625 22.890625,-63.90625 20.328125,-58.90625 C 17.776042,-53.916667 16.5,-46.40625 16.5,-36.375 C 16.5,-26.385417 17.776042,-18.890625 20.328125,-13.890625 C 22.890625,-8.890625 26.708333,-6.390625 31.78125,-6.390625 C 36.895833,-6.390625 40.729167,-8.890625 43.28125,-13.890625 C 45.84375,-18.890625 47.125,-26.385417 47.125,-36.375 C 47.125,-46.40625 45.84375,-53.916667 43.28125,-58.90625 C 40.729167,-63.90625 36.895833,-66.40625 31.78125,-66.40625 M 31.78125,-74.21875 C 39.958333,-74.21875 46.203125,-70.984375 50.515625,-64.515625 C 54.828125,-58.057292 56.984375,-48.677083 56.984375,-36.375 C 56.984375,-24.104167 54.828125,-14.734375 50.515625,-8.265625 C 46.203125,-1.8072917 39.958333,1.421875 31.78125,1.421875 C 23.614583,1.421875 17.375,-1.8072917 13.0625,-8.265625 C 8.75,-14.734375 6.59375,-24.104167 6.59375,-36.375 C 6.59375,-48.677083 8.75,-58.057292 13.0625,-64.515625 C 17.375,-70.984375 23.614583,-74.21875 31.78125,-74.21875" />
          <path
             id="use1210"
             d="M 74.310547,-12.40625 L 84.623047,-12.40625 L 84.623047,0 L 74.310547,0 L 74.310547,-12.40625 z" />
          <use
             height="216"
             width="720"
             y="0"
             id="use1212"
             x="95.410156"
             xlink:href="#c_cd96f817f3cab988d24a2b49a5577fe6" />
          <use
             height="216"
             width="720"
             y="0"
             id="use1214"
             x="159.0332"
             xlink:href="#c_956f18cfdaf972f35a6c2b4aaac2532b" />
          <use
             height="216"
             width="720"
             y="0"
             id="use1216"
             x="222.65625"
             xlink:href="#c_956f18cfdaf972f35a6c2b4aaac2532b" />
        </g>
      </g>
      <g
         id="ytick35">
        <g
           id="line2d115">
          <g
             id="g1220">
            <path
               id="use1222"
               d="M 381.13043,21.6 L 385.13043,21.6"
               style="opacity:1;stroke:#000000;stroke-width:0.5;stroke-linecap:butt;stroke-linejoin:miter" />
          </g>
        </g>
        <g
           id="line2d116">
          <g
             id="g1225">
            <path
               id="use1227"
               d="M 502.43478,21.6 L 498.43478,21.6"
               style="opacity:1;stroke:#000000;stroke-width:0.5;stroke-linecap:butt;stroke-linejoin:miter" />
          </g>
        </g>
        <g
           id="g1229"
           transform="matrix(0.12,0,0,0.12,344.22418,25.967187)"
           style="opacity:1;fill:#000000">
          <path
             id="use1231"
             d="M 31.78125,-66.40625 C 26.708333,-66.40625 22.890625,-63.90625 20.328125,-58.90625 C 17.776042,-53.916667 16.5,-46.40625 16.5,-36.375 C 16.5,-26.385417 17.776042,-18.890625 20.328125,-13.890625 C 22.890625,-8.890625 26.708333,-6.390625 31.78125,-6.390625 C 36.895833,-6.390625 40.729167,-8.890625 43.28125,-13.890625 C 45.84375,-18.890625 47.125,-26.385417 47.125,-36.375 C 47.125,-46.40625 45.84375,-53.916667 43.28125,-58.90625 C 40.729167,-63.90625 36.895833,-66.40625 31.78125,-66.40625 M 31.78125,-74.21875 C 39.958333,-74.21875 46.203125,-70.984375 50.515625,-64.515625 C 54.828125,-58.057292 56.984375,-48.677083 56.984375,-36.375 C 56.984375,-24.104167 54.828125,-14.734375 50.515625,-8.265625 C 46.203125,-1.8072917 39.958333,1.421875 31.78125,1.421875 C 23.614583,1.421875 17.375,-1.8072917 13.0625,-8.265625 C 8.75,-14.734375 6.59375,-24.104167 6.59375,-36.375 C 6.59375,-48.677083 8.75,-58.057292 13.0625,-64.515625 C 17.375,-70.984375 23.614583,-74.21875 31.78125,-74.21875" />
          <path
             id="use1233"
             d="M 74.310547,-12.40625 L 84.623047,-12.40625 L 84.623047,0 L 74.310547,0 L 74.310547,-12.40625 z" />
          <use
             height="216"
             width="720"
             y="0"
             id="use1235"
             x="95.410156"
             xlink:href="#c_cd96f817f3cab988d24a2b49a5577fe6" />
          <use
             height="216"
             width="720"
             y="0"
             id="use1237"
             x="159.0332"
             xlink:href="#c_cd96f817f3cab988d24a2b49a5577fe6" />
          <path
             id="use1239"
             d="M 260.45312,-64.3125 L 235.54688,-25.390625 L 260.45312,-25.390625 L 260.45312,-64.3125 z M 257.85938,-72.90625 L 270.26562,-72.90625 L 270.26562,-25.390625 L 280.67188,-25.390625 L 280.67188,-17.1875 L 270.26562,-17.1875 L 270.26562,-1.4210855e-14 L 260.45312,-1.4210855e-14 L 260.45312,-17.1875 L 227.54688,-17.1875 L 227.54688,-26.703125 L 257.85938,-72.90625 z" />
        </g>
      </g>
      <g
         id="g1241"
         transform="matrix(0,-0.12,0.12,0,339.22418,117.5625)"
         style="opacity:1;fill:#000000">
        <path
           id="use1243"
           d="M 53.515625,-70.515625 L 53.515625,-60.890625 C 49.776042,-62.682292 46.244792,-64.015625 42.921875,-64.890625 C 39.598958,-65.776042 36.390625,-66.21875 33.296875,-66.21875 C 27.932292,-66.21875 23.791667,-65.177083 20.875,-63.09375 C 17.958333,-61.010417 16.5,-58.046875 16.5,-54.203125 C 16.5,-50.973958 17.46875,-48.536458 19.40625,-46.890625 C 21.34375,-45.255208 25.015625,-43.932292 30.421875,-42.921875 L 36.375,-41.703125 C 43.729167,-40.296875 49.15625,-37.828125 52.65625,-34.296875 C 56.15625,-30.765625 57.90625,-26.041667 57.90625,-20.125 C 57.90625,-13.052083 55.536458,-7.6927083 50.796875,-4.046875 C 46.067708,-0.40104167 39.130208,1.421875 29.984375,1.421875 C 26.536458,1.421875 22.864583,1.03125 18.96875,0.25 C 15.083333,-0.53125 11.057292,-1.6875 6.890625,-3.21875 L 6.890625,-13.375 C 10.890625,-11.135417 14.8125,-9.4427083 18.65625,-8.296875 C 22.5,-7.1614583 26.276042,-6.59375 29.984375,-6.59375 C 35.609375,-6.59375 39.953125,-7.6979167 43.015625,-9.90625 C 46.078125,-12.125 47.609375,-15.286458 47.609375,-19.390625 C 47.609375,-22.963542 46.510417,-25.760417 44.3125,-27.78125 C 42.114583,-29.802083 38.510417,-31.317708 33.5,-32.328125 L 27.484375,-33.5 C 20.130208,-34.958333 14.807292,-37.25 11.515625,-40.375 C 8.234375,-43.5 6.59375,-47.848958 6.59375,-53.421875 C 6.59375,-59.869792 8.8645833,-64.947917 13.40625,-68.65625 C 17.947917,-72.364583 24.203125,-74.21875 32.171875,-74.21875 C 35.598958,-74.21875 39.083333,-73.90625 42.625,-73.28125 C 46.177083,-72.666667 49.807292,-71.744792 53.515625,-70.515625" />
        <path
           id="use1245"
           d="M 94.476562,-75.875 C 90.122395,-68.395833 86.882812,-60.989583 84.757812,-53.65625 C 82.64323,-46.333333 81.585938,-38.911458 81.585938,-31.390625 C 81.585938,-23.880208 82.653646,-16.4375 84.789062,-9.0625 C 86.92448,-1.6875 90.153646,5.7291667 94.476562,13.1875 L 86.664062,13.1875 C 81.789062,5.53125 78.13802,-1.9895833 75.710938,-9.375 C 73.283854,-16.760417 72.070312,-24.098958 72.070312,-31.390625 C 72.070312,-38.651042 73.273438,-45.958333 75.679688,-53.3125 C 78.096355,-60.677083 81.757812,-68.197917 86.664062,-75.875 L 94.476562,-75.875 z" />
        <path
           id="use1247"
           d="M 157.38085,-54.6875 L 137.5996,-28.078125 L 158.39648,3.5527137e-15 L 147.80273,3.5527137e-15 L 131.88085,-21.484375 L 115.9746,3.5527137e-15 L 105.36523,3.5527137e-15 L 126.61523,-28.609375 L 107.17773,-54.6875 L 117.77148,-54.6875 L 132.27148,-35.203125 L 146.77148,-54.6875 L 157.38085,-54.6875 z" />
        <path
           id="use1249"
           d="M 169.68555,-75.875 L 177.49805,-75.875 C 182.37305,-68.197917 186.02409,-60.677083 188.45117,-53.3125 C 190.87825,-45.958333 192.0918,-38.651042 192.0918,-31.390625 C 192.0918,-24.098958 190.87825,-16.760417 188.45117,-9.375 C 186.02409,-1.9895833 182.37305,5.53125 177.49805,13.1875 L 169.68555,13.1875 C 174.00846,5.7291667 177.23763,-1.6875 179.37305,-9.0625 C 181.50846,-16.4375 182.57617,-23.880208 182.57617,-31.390625 C 182.57617,-38.911458 181.50846,-46.333333 179.37305,-53.65625 C 177.23763,-60.989583 174.00846,-68.395833 169.68555,-75.875" />
      </g>
    </g>
    <path
       id="path1251"
       d="M 381.13043,194.4 L 502.43478,194.4 L 502.43478,21.6 L 381.13043,21.6 L 381.13043,194.4"
       style="opacity:1;fill:none;stroke:#000000;stroke-width:1;stroke-linecap:square;stroke-linejoin:miter" />
  </g>
</svg>
