<?xml version="1.0" encoding="UTF-8" standalone="no"?>
<!-- Created with matplotlib (http://matplotlib.sourceforge.net/) -->
<svg
   xmlns:dc="http://purl.org/dc/elements/1.1/"
   xmlns:cc="http://creativecommons.org/ns#"
   xmlns:rdf="http://www.w3.org/1999/02/22-rdf-syntax-ns#"
   xmlns:svg="http://www.w3.org/2000/svg"
   xmlns="http://www.w3.org/2000/svg"
   xmlns:xlink="http://www.w3.org/1999/xlink"
   xmlns:sodipodi="http://sodipodi.sourceforge.net/DTD/sodipodi-0.dtd"
   xmlns:inkscape="http://www.inkscape.org/namespaces/inkscape"
   width="196.92"
   height="258.32999"
   viewBox="0 0 720 216"
   version="1.0"
   id="svg1"
   sodipodi:version="0.32"
   inkscape:version="0.46"
   sodipodi:docname="GP1-FA-Kurven2.svg"
   inkscape:output_extension="org.inkscape.output.svg.inkscape">
  <metadata
     id="metadata1256">
    <rdf:RDF>
      <cc:Work
         rdf:about="">
        <dc:format>image/svg+xml</dc:format>
        <dc:type
           rdf:resource="http://purl.org/dc/dcmitype/StillImage" />
      </cc:Work>
    </rdf:RDF>
  </metadata>
  <defs
     id="defs1254">
    <inkscape:perspective
       sodipodi:type="inkscape:persp3d"
       inkscape:vp_x="0 : 135 : 1"
       inkscape:vp_y="0 : 1000 : 0"
       inkscape:vp_z="900 : 135 : 1"
       inkscape:persp3d-origin="450 : 90 : 1"
       id="perspective1258" />
  </defs>
  <sodipodi:namedview
     inkscape:window-height="736"
     inkscape:window-width="1280"
     inkscape:pageshadow="2"
     inkscape:pageopacity="0.0"
     guidetolerance="10.0"
     gridtolerance="10.0"
     objecttolerance="10.0"
     borderopacity="1.0"
     bordercolor="#666666"
     pagecolor="#ffffff"
     id="base"
     showgrid="false"
     inkscape:zoom="0.87366971"
     inkscape:cx="371.83693"
     inkscape:cy="178.9919"
     inkscape:window-x="0"
     inkscape:window-y="0"
     inkscape:current-layer="svg1" />
  <g
     id="axes2"
     transform="matrix(4.5704238,0,0,4.5704103,-913.33165,-442.24242)">
    <path
       id="path295"
       d="M 235.56522,194.4 L 356.86957,194.4 L 356.86957,21.6 L 235.56522,21.6 L 235.56522,194.4"
       style="opacity:1;fill:#ffffff" />
    <g
       id="line2d22">
      <defs
         id="defs298">
        <clipPath
           id="p05ca1d91cf7c127b61d65654b1213026">
          <rect
             id="rect301"
             height="172.8"
             width="121.30435"
             y="21.6"
             x="235.56522" />
        </clipPath>
      </defs>
      <path
         id="path303"
         d="M 235.56522,193.32697 L 236.17479,193.24843 L 236.78436,193.16486 L 237.39393,193.07598 L 238.0035,192.98152 L 238.61306,192.88119 L 239.22263,192.77469 L 239.83221,192.66172 L 240.44177,192.54195 L 241.05134,192.41506 L 241.66091,192.28071 L 242.27048,192.13855 L 242.88005,191.98823 L 243.48962,191.82936 L 244.09919,191.66159 L 244.70876,191.4845 L 245.31833,191.29772 L 245.9279,191.10082 L 246.53747,190.8934 L 247.14704,190.67503 L 247.75661,190.44528 L 248.36618,190.2037 L 248.97575,189.94984 L 249.58532,189.68326 L 250.19489,189.40349 L 250.80446,189.11007 L 251.41403,188.80251 L 252.0236,188.48035 L 252.63317,188.1431 L 253.24273,187.79028 L 253.85231,187.4214 L 254.46187,187.03598 L 255.07144,186.63353 L 255.68101,186.21356 L 256.29058,185.77558 L 256.90015,185.31912 L 257.50972,184.84368 L 258.11929,184.3488 L 258.72886,183.83401 L 259.33843,183.29883 L 259.948,182.74283 L 260.55757,182.16554 L 261.16714,181.56653 L 261.77671,180.94538 L 262.38628,180.30168 L 262.99585,179.63502 L 263.60542,178.94504 L 264.21499,178.23135 L 264.82456,177.49361 L 265.43413,176.73149 L 266.0437,175.94469 L 266.65327,175.13291 L 267.26284,174.29589 L 267.87241,173.4334 L 268.48197,172.54522 L 269.09154,171.63115 L 269.70111,170.69104 L 270.31068,169.72476 L 270.92025,168.7322 L 271.52982,167.7133 L 272.13939,166.66801 L 272.74896,165.59634 L 273.35853,164.49829 L 273.9681,163.37394 L 274.57767,162.22339 L 275.18724,161.04676 L 275.79681,159.84422 L 276.40638,158.61599 L 277.01595,157.36229 L 277.62552,156.08342 L 278.23509,154.77968 L 278.84466,153.45144 L 279.45423,152.09908 L 280.0638,150.72304 L 280.67337,149.3238 L 281.28294,147.90184 L 281.89251,146.45772 L 282.50208,144.99202 L 283.11165,143.50535 L 283.72121,141.99837 L 284.33078,140.47176 L 284.94035,138.92624 L 285.54992,137.36256 L 286.15949,135.78152 L 286.76906,134.18392 L 287.37863,132.57062 L 287.9882,130.94248 L 288.59777,129.3004 L 289.20734,127.64531 L 289.81691,125.97817 L 290.42648,124.29994 L 291.03605,122.61162 L 291.64562,120.91421 L 292.25519,119.20874 L 292.86476,117.49627 L 293.47433,115.77783 L 294.0839,114.05451 L 294.69347,112.32738 L 295.30304,110.59752 L 295.91261,108.86602 L 296.52218,107.13398 L 297.13175,105.40248 L 297.74131,103.67262 L 298.35089,101.94549 L 298.96045,100.22217 L 299.57002,98.503733 L 300.17959,96.791257 L 300.78916,95.085793 L 301.39873,93.388385 L 302.0083,91.70006 L 302.61787,90.021829 L 303.22744,88.354686 L 303.83701,86.699601 L 304.44658,85.057525 L 305.05615,83.429384 L 305.66572,81.816077 L 306.27529,80.218479 L 306.88486,78.637435 L 307.49443,77.07376 L 308.104,75.528241 L 308.71357,74.00163 L 309.32314,72.494647 L 309.93271,71.00798 L 310.54228,69.542278 L 311.15185,68.09816 L 311.76142,66.676204 L 312.37099,65.276955 L 312.98055,63.900918 L 313.59012,62.548563 L 314.19969,61.220321 L 314.80926,59.916584 L 315.41883,58.637709 L 316.0284,57.384013 L 316.63797,56.155776 L 317.24754,54.953241 L 317.85711,53.776611 L 318.46668,52.626057 L 319.07625,51.501709 L 319.68582,50.403665 L 320.29539,49.331986 L 320.90496,48.286698 L 321.51453,47.267796 L 322.1241,46.27524 L 322.73367,45.308959 L 323.34324,44.368851 L 323.95281,43.454784 L 324.56238,42.566598 L 325.17195,41.704105 L 325.78152,40.867089 L 326.39109,40.055312 L 327.00065,39.268509 L 327.61023,38.506392 L 328.21979,37.768654 L 328.82936,37.054964 L 329.43893,36.364975 L 330.0485,35.698321 L 330.65807,35.054618 L 331.26764,34.43347 L 331.87721,33.834464 L 332.48678,33.257174 L 333.09635,32.701166 L 333.70592,32.165992 L 334.31549,31.651197 L 334.92506,31.156317 L 335.53463,30.680882 L 336.1442,30.224417 L 336.75377,29.78644 L 337.36334,29.366469 L 337.97291,28.964017 L 338.58248,28.578597 L 339.19205,28.20972 L 339.80162,27.8569 L 340.41119,27.519651 L 341.02076,27.197489 L 341.63033,26.889933 L 342.23989,26.596506 L 342.84947,26.316736 L 343.45903,26.050155 L 344.0686,25.796303 L 344.67817,25.554723 L 345.28774,25.324968 L 345.89731,25.106597 L 346.50688,24.899176 L 347.11645,24.702281 L 347.72602,24.515496 L 348.33559,24.338413 L 348.94516,24.170635 L 349.55473,24.011772 L 350.1643,23.861447 L 350.77387,23.719289 L 351.38344,23.58494 L 351.99301,23.458051 L 352.60258,23.338284 L 353.21215,23.22531 L 353.82172,23.118811 L 354.43129,23.01848 L 355.04086,22.924018 L 355.65043,22.835139 L 356.26,22.751566 L 356.86957,22.67303"
         clip-path="url(#p05ca1d91cf7c127b61d65654b1213026)"
         style="opacity:1;fill:none;stroke:#0000ff;stroke-width:1;stroke-linecap:square;stroke-linejoin:miter" />
    </g>
    <g
       id="matplotlib.axis3">
      <g
         id="xtick6">
        <g
           id="line2d23">
          <g
             id="g308">
            <path
               id="use310"
               d="M 247.69565,194.39999 L 247.69565,190.39999"
               style="opacity:1;stroke:#000000;stroke-width:0.5;stroke-linecap:butt;stroke-linejoin:miter" />
          </g>
        </g>
        <g
           id="line2d24">
          <g
             id="g313">
            <path
               id="use315"
               d="M 247.69565,21.6 L 247.69565,25.6"
               style="opacity:1;stroke:#000000;stroke-width:0.5;stroke-linecap:butt;stroke-linejoin:miter" />
          </g>
        </g>
        <g
           id="g317"
           transform="matrix(0.12,0,0,0.12,244.68003,207.30625)"
           style="opacity:1;fill:#000000">
          <path
             id="use319"
             d="M 33.015625,-40.375 C 28.588542,-40.375 25.078125,-38.859375 22.484375,-35.828125 C 19.901042,-32.807292 18.609375,-28.661458 18.609375,-23.390625 C 18.609375,-18.151042 19.901042,-14.005208 22.484375,-10.953125 C 25.078125,-7.9114583 28.588542,-6.390625 33.015625,-6.390625 C 37.442708,-6.390625 40.947917,-7.9114583 43.53125,-10.953125 C 46.114583,-14.005208 47.40625,-18.151042 47.40625,-23.390625 C 47.40625,-28.661458 46.114583,-32.807292 43.53125,-35.828125 C 40.947917,-38.859375 37.442708,-40.375 33.015625,-40.375 M 52.59375,-71.296875 L 52.59375,-62.3125 C 50.114583,-63.479167 47.614583,-64.369792 45.09375,-64.984375 C 42.572917,-65.609375 40.072917,-65.921875 37.59375,-65.921875 C 31.083333,-65.921875 26.109375,-63.723958 22.671875,-59.328125 C 19.244792,-54.932292 17.286458,-48.291667 16.796875,-39.40625 C 18.713542,-42.239583 21.119792,-44.411458 24.015625,-45.921875 C 26.921875,-47.432292 30.114583,-48.1875 33.59375,-48.1875 C 40.916667,-48.1875 46.703125,-45.963542 50.953125,-41.515625 C 55.203125,-37.078125 57.328125,-31.036458 57.328125,-23.390625 C 57.328125,-15.901042 55.114583,-9.890625 50.6875,-5.359375 C 46.260417,-0.83854167 40.369792,1.421875 33.015625,1.421875 C 24.578125,1.421875 18.130208,-1.8072917 13.671875,-8.265625 C 9.2135417,-14.734375 6.984375,-24.104167 6.984375,-36.375 C 6.984375,-47.895833 9.71875,-57.083333 15.1875,-63.9375 C 20.65625,-70.791667 27.994792,-74.21875 37.203125,-74.21875 C 39.682292,-74.21875 42.182292,-73.973958 44.703125,-73.484375 C 47.223958,-72.994792 49.854167,-72.265625 52.59375,-71.296875" />
        </g>
      </g>
      <g
         id="xtick7">
        <g
           id="line2d25">
          <g
             id="g323">
            <path
               id="use325"
               d="M 271.95651,194.39999 L 271.95651,190.39999"
               style="opacity:1;stroke:#000000;stroke-width:0.5;stroke-linecap:butt;stroke-linejoin:miter" />
          </g>
        </g>
        <g
           id="line2d26">
          <g
             id="g328">
            <path
               id="use330"
               d="M 271.95651,21.6 L 271.95651,25.6"
               style="opacity:1;stroke:#000000;stroke-width:0.5;stroke-linecap:butt;stroke-linejoin:miter" />
          </g>
        </g>
        <g
           id="g332"
           transform="matrix(0.12,0,0,0.12,268.95652,207.30625)"
           style="opacity:1;fill:#000000">
          <path
             id="use334"
             d="M 31.78125,-34.625 C 27.09375,-34.625 23.40625,-33.369792 20.71875,-30.859375 C 18.041667,-28.348958 16.703125,-24.901042 16.703125,-20.515625 C 16.703125,-16.119792 18.041667,-12.666667 20.71875,-10.15625 C 23.40625,-7.6458333 27.09375,-6.390625 31.78125,-6.390625 C 36.46875,-6.390625 40.161458,-7.6510417 42.859375,-10.171875 C 45.567708,-12.703125 46.921875,-16.151042 46.921875,-20.515625 C 46.921875,-24.901042 45.578125,-28.348958 42.890625,-30.859375 C 40.213542,-33.369792 36.510417,-34.625 31.78125,-34.625 M 21.921875,-38.8125 C 17.692708,-39.854167 14.395833,-41.822917 12.03125,-44.71875 C 9.6770833,-47.625 8.5,-51.161458 8.5,-55.328125 C 8.5,-61.151042 10.572917,-65.755208 14.71875,-69.140625 C 18.875,-72.526042 24.5625,-74.21875 31.78125,-74.21875 C 39.041667,-74.21875 44.739583,-72.526042 48.875,-69.140625 C 53.010417,-65.755208 55.078125,-61.151042 55.078125,-55.328125 C 55.078125,-51.161458 53.895833,-47.625 51.53125,-44.71875 C 49.177083,-41.822917 45.901042,-39.854167 41.703125,-38.8125 C 46.453125,-37.708333 50.151042,-35.541667 52.796875,-32.3125 C 55.453125,-29.09375 56.78125,-25.161458 56.78125,-20.515625 C 56.78125,-13.442708 54.625,-8.015625 50.3125,-4.234375 C 46,-0.46354167 39.822917,1.421875 31.78125,1.421875 C 23.75,1.421875 17.572917,-0.46354167 13.25,-4.234375 C 8.9375,-8.015625 6.78125,-13.442708 6.78125,-20.515625 C 6.78125,-25.161458 8.1145833,-29.09375 10.78125,-32.3125 C 13.458333,-35.541667 17.171875,-37.708333 21.921875,-38.8125 M 18.3125,-54.390625 C 18.3125,-50.619792 19.489583,-47.677083 21.84375,-45.5625 C 24.208333,-43.447917 27.520833,-42.390625 31.78125,-42.390625 C 36.020833,-42.390625 39.333333,-43.447917 41.71875,-45.5625 C 44.114583,-47.677083 45.3125,-50.619792 45.3125,-54.390625 C 45.3125,-58.171875 44.114583,-61.119792 41.71875,-63.234375 C 39.333333,-65.348958 36.020833,-66.40625 31.78125,-66.40625 C 27.520833,-66.40625 24.208333,-65.348958 21.84375,-63.234375 C 19.489583,-61.119792 18.3125,-58.171875 18.3125,-54.390625" />
        </g>
      </g>
      <g
         id="xtick8">
        <g
           id="line2d27">
          <g
             id="g338">
            <path
               id="use340"
               d="M 296.21738,194.39999 L 296.21738,190.39999"
               style="opacity:1;stroke:#000000;stroke-width:0.5;stroke-linecap:butt;stroke-linejoin:miter" />
          </g>
        </g>
        <g
           id="line2d28">
          <g
             id="g343">
            <path
               id="use345"
               d="M 296.21738,21.6 L 296.21738,25.6"
               style="opacity:1;stroke:#000000;stroke-width:0.5;stroke-linecap:butt;stroke-linejoin:miter" />
          </g>
        </g>
        <g
           id="g347"
           transform="matrix(0.12,0,0,0.12,289.63145,207.30625)"
           style="opacity:1;fill:#000000">
          <path
             id="use349"
             d="M 12.40625,-8.296875 L 28.515625,-8.296875 L 28.515625,-63.921875 L 10.984375,-60.40625 L 10.984375,-69.390625 L 28.421875,-72.90625 L 38.28125,-72.90625 L 38.28125,-8.296875 L 54.390625,-8.296875 L 54.390625,-1.5987212e-14 L 12.40625,-1.5987212e-14 L 12.40625,-8.296875 z" />
          <path
             id="use351"
             d="M 95.404297,-66.40625 C 90.33138,-66.40625 86.513672,-63.90625 83.951172,-58.90625 C 81.399089,-53.916667 80.123047,-46.40625 80.123047,-36.375 C 80.123047,-26.385417 81.399089,-18.890625 83.951172,-13.890625 C 86.513672,-8.890625 90.33138,-6.390625 95.404297,-6.390625 C 100.51888,-6.390625 104.35221,-8.890625 106.9043,-13.890625 C 109.4668,-18.890625 110.74805,-26.385417 110.74805,-36.375 C 110.74805,-46.40625 109.4668,-53.916667 106.9043,-58.90625 C 104.35221,-63.90625 100.51888,-66.40625 95.404297,-66.40625 M 95.404297,-74.21875 C 103.58138,-74.21875 109.82617,-70.984375 114.13867,-64.515625 C 118.45117,-58.057292 120.60742,-48.677083 120.60742,-36.375 C 120.60742,-24.104167 118.45117,-14.734375 114.13867,-8.265625 C 109.82617,-1.8072917 103.58138,1.421875 95.404297,1.421875 C 87.23763,1.421875 80.998047,-1.8072917 76.685547,-8.265625 C 72.373047,-14.734375 70.216797,-24.104167 70.216797,-36.375 C 70.216797,-48.677083 72.373047,-58.057292 76.685547,-64.515625 C 80.998047,-70.984375 87.23763,-74.21875 95.404297,-74.21875" />
        </g>
      </g>
      <g
         id="xtick9">
        <g
           id="line2d29">
          <g
             id="g355">
            <path
               id="use357"
               d="M 320.47827,194.39999 L 320.47827,190.39999"
               style="opacity:1;stroke:#000000;stroke-width:0.5;stroke-linecap:butt;stroke-linejoin:miter" />
          </g>
        </g>
        <g
           id="line2d30">
          <g
             id="g360">
            <path
               id="use362"
               d="M 320.47827,21.6 L 320.47827,25.6"
               style="opacity:1;stroke:#000000;stroke-width:0.5;stroke-linecap:butt;stroke-linejoin:miter" />
          </g>
        </g>
        <g
           id="g364"
           transform="matrix(0.12,0,0,0.12,314.09545,207.30625)"
           style="opacity:1;fill:#000000">
          <path
             id="use366"
             d="M 12.40625,-8.296875 L 28.515625,-8.296875 L 28.515625,-63.921875 L 10.984375,-60.40625 L 10.984375,-69.390625 L 28.421875,-72.90625 L 38.28125,-72.90625 L 38.28125,-8.296875 L 54.390625,-8.296875 L 54.390625,-1.5987212e-14 L 12.40625,-1.5987212e-14 L 12.40625,-8.296875 z" />
          <path
             id="use368"
             d="M 82.810547,-8.296875 L 117.23242,-8.296875 L 117.23242,0 L 70.951172,0 L 70.951172,-8.296875 C 74.690755,-12.171875 79.789714,-17.369792 86.248047,-23.890625 C 92.716797,-30.421875 96.779297,-34.635417 98.435547,-36.53125 C 101.5918,-40.072917 103.79492,-43.072917 105.04492,-45.53125 C 106.30534,-47.989583 106.93555,-50.40625 106.93555,-52.78125 C 106.93555,-56.65625 105.57617,-59.8125 102.85742,-62.25 C 100.13867,-64.697917 96.597005,-65.921875 92.232422,-65.921875 C 89.138672,-65.921875 85.873047,-65.385417 82.435547,-64.3125 C 79.008464,-63.239583 75.341797,-61.609375 71.435547,-59.421875 L 71.435547,-69.390625 C 75.404297,-70.984375 79.11263,-72.1875 82.560547,-73 C 86.01888,-73.8125 89.180339,-74.21875 92.044922,-74.21875 C 99.597005,-74.21875 105.61784,-72.328125 110.10742,-68.546875 C 114.597,-64.776042 116.8418,-59.734375 116.8418,-53.421875 C 116.8418,-50.421875 116.2793,-47.578125 115.1543,-44.890625 C 114.03971,-42.213542 111.99805,-39.052083 109.0293,-35.40625 C 108.2168,-34.458333 105.62825,-31.729167 101.26367,-27.21875 C 96.909505,-22.708333 90.758464,-16.401042 82.810547,-8.296875" />
        </g>
      </g>
      <g
         id="xtick10">
        <g
           id="line2d31">
          <g
             id="g372">
            <path
               id="use374"
               d="M 344.73914,194.39999 L 344.73914,190.39999"
               style="opacity:1;stroke:#000000;stroke-width:0.5;stroke-linecap:butt;stroke-linejoin:miter" />
          </g>
        </g>
        <g
           id="line2d32">
          <g
             id="g377">
            <path
               id="use379"
               d="M 344.73914,21.6 L 344.73914,25.6"
               style="opacity:1;stroke:#000000;stroke-width:0.5;stroke-linecap:butt;stroke-linejoin:miter" />
          </g>
        </g>
        <g
           id="g381"
           transform="matrix(0.12,0,0,0.12,338.09069,207.15)"
           style="opacity:1;fill:#000000">
          <path
             id="use383"
             d="M 12.40625,-8.296875 L 28.515625,-8.296875 L 28.515625,-63.921875 L 10.984375,-60.40625 L 10.984375,-69.390625 L 28.421875,-72.90625 L 38.28125,-72.90625 L 38.28125,-8.296875 L 54.390625,-8.296875 L 54.390625,-1.5987212e-14 L 12.40625,-1.5987212e-14 L 12.40625,-8.296875 z" />
          <path
             id="use385"
             d="M 101.41992,-64.3125 L 76.513672,-25.390625 L 101.41992,-25.390625 L 101.41992,-64.3125 z M 98.826172,-72.90625 L 111.23242,-72.90625 L 111.23242,-25.390625 L 121.63867,-25.390625 L 121.63867,-17.1875 L 111.23242,-17.1875 L 111.23242,-1.4210855e-14 L 101.41992,-1.4210855e-14 L 101.41992,-17.1875 L 68.513672,-17.1875 L 68.513672,-26.703125 L 98.826172,-72.90625 z" />
        </g>
      </g>
      <g
         id="g387"
         transform="matrix(0.12,0,0,0.12,252.36583,221.22812)"
         style="opacity:1;fill:#000000">
        <path
           id="use389"
           d="M 9.8125,-72.90625 L 24.515625,-72.90625 L 43.109375,-23.296875 L 61.8125,-72.90625 L 76.515625,-72.90625 L 76.515625,0 L 66.890625,0 L 66.890625,-64.015625 L 48.09375,-14.015625 L 38.1875,-14.015625 L 19.390625,-64.015625 L 19.390625,0 L 9.8125,0 L 9.8125,-72.90625 z" />
        <path
           id="use391"
           d="M 142.48242,-29.59375 L 142.48242,-25.203125 L 101.16992,-25.203125 C 101.56575,-19.015625 103.43034,-14.302083 106.76367,-11.0625 C 110.097,-7.8229167 114.74284,-6.203125 120.70117,-6.203125 C 124.14909,-6.203125 127.49284,-6.625 130.73242,-7.46875 C 133.972,-8.3125 137.19075,-9.5833333 140.38867,-11.28125 L 140.38867,-2.78125 C 137.1595,-1.4166667 133.85221,-0.375 130.4668,0.34375 C 127.08138,1.0625 123.64909,1.421875 120.16992,1.421875 C 111.44075,1.421875 104.5293,-1.1145833 99.435547,-6.1875 C 94.341797,-11.270833 91.794922,-18.145833 91.794922,-26.8125 C 91.794922,-35.760417 94.211589,-42.859375 99.044922,-48.109375 C 103.87825,-53.369792 110.39909,-56 118.60742,-56 C 125.96159,-56 131.7793,-53.630208 136.06055,-48.890625 C 140.3418,-44.161458 142.48242,-37.729167 142.48242,-29.59375 M 133.49805,-32.234375 C 133.43555,-37.140625 132.06055,-41.057292 129.37305,-43.984375 C 126.68555,-46.921875 123.12825,-48.390625 118.70117,-48.390625 C 113.69075,-48.390625 109.68034,-46.973958 106.66992,-44.140625 C 103.6595,-41.307292 101.92513,-37.317708 101.4668,-32.171875 L 133.49805,-32.234375 z" />
        <path
           id="use393"
           d="M 192.08398,-53.078125 L 192.08398,-44.578125 C 189.55273,-45.880208 186.91732,-46.854167 184.17773,-47.5 C 181.44857,-48.15625 178.61523,-48.484375 175.67773,-48.484375 C 171.2194,-48.484375 167.87565,-47.802083 165.64648,-46.4375 C 163.41732,-45.072917 162.30273,-43.020833 162.30273,-40.28125 C 162.30273,-38.197917 163.09961,-36.5625 164.69336,-35.375 C 166.28711,-34.1875 169.49544,-33.057292 174.31836,-31.984375 L 177.39648,-31.296875 C 183.77148,-29.932292 188.30273,-28.005208 190.99023,-25.515625 C 193.67773,-23.026042 195.02148,-19.552083 195.02148,-15.09375 C 195.02148,-10.010417 193.01107,-5.984375 188.99023,-3.015625 C 184.9694,-0.057291667 179.44336,1.421875 172.41211,1.421875 C 169.48503,1.421875 166.43294,1.1354167 163.25586,0.5625 C 160.07878,-0.010416667 156.73503,-0.86458333 153.22461,-2 L 153.22461,-11.28125 C 156.54753,-9.5520833 159.81836,-8.2552083 163.03711,-7.390625 C 166.25586,-6.5364583 169.44857,-6.109375 172.61523,-6.109375 C 176.8444,-6.109375 180.0944,-6.8333333 182.36523,-8.28125 C 184.64648,-9.7291667 185.78711,-11.770833 185.78711,-14.40625 C 185.78711,-16.84375 184.96419,-18.713542 183.31836,-20.015625 C 181.68294,-21.317708 178.07878,-22.572917 172.50586,-23.78125 L 169.38086,-24.515625 C 163.81836,-25.682292 159.79753,-27.479167 157.31836,-29.90625 C 154.84961,-32.333333 153.61523,-35.661458 153.61523,-39.890625 C 153.61523,-45.036458 155.43815,-49.005208 159.08398,-51.796875 C 162.72982,-54.598958 167.9069,-56 174.61523,-56 C 177.92773,-56 181.04753,-55.755208 183.97461,-55.265625 C 186.91211,-54.786458 189.61523,-54.057292 192.08398,-53.078125" />
        <path
           id="use395"
           d="M 244.18359,-53.078125 L 244.18359,-44.578125 C 241.65234,-45.880208 239.01693,-46.854167 236.27734,-47.5 C 233.54818,-48.15625 230.71484,-48.484375 227.77734,-48.484375 C 223.31901,-48.484375 219.97526,-47.802083 217.74609,-46.4375 C 215.51693,-45.072917 214.40234,-43.020833 214.40234,-40.28125 C 214.40234,-38.197917 215.19922,-36.5625 216.79297,-35.375 C 218.38672,-34.1875 221.59505,-33.057292 226.41797,-31.984375 L 229.49609,-31.296875 C 235.87109,-29.932292 240.40234,-28.005208 243.08984,-25.515625 C 245.77734,-23.026042 247.12109,-19.552083 247.12109,-15.09375 C 247.12109,-10.010417 245.11068,-5.984375 241.08984,-3.015625 C 237.06901,-0.057291667 231.54297,1.421875 224.51172,1.421875 C 221.58464,1.421875 218.53255,1.1354167 215.35547,0.5625 C 212.17839,-0.010416667 208.83464,-0.86458333 205.32422,-2 L 205.32422,-11.28125 C 208.64714,-9.5520833 211.91797,-8.2552083 215.13672,-7.390625 C 218.35547,-6.5364583 221.54818,-6.109375 224.71484,-6.109375 C 228.94401,-6.109375 232.19401,-6.8333333 234.46484,-8.28125 C 236.74609,-9.7291667 237.88672,-11.770833 237.88672,-14.40625 C 237.88672,-16.84375 237.0638,-18.713542 235.41797,-20.015625 C 233.78255,-21.317708 230.17839,-22.572917 224.60547,-23.78125 L 221.48047,-24.515625 C 215.91797,-25.682292 211.89714,-27.479167 209.41797,-29.90625 C 206.94922,-32.333333 205.71484,-35.661458 205.71484,-39.890625 C 205.71484,-45.036458 207.53776,-49.005208 211.18359,-51.796875 C 214.82943,-54.598958 220.00651,-56 226.71484,-56 C 230.02734,-56 233.14714,-55.755208 236.07422,-55.265625 C 239.01172,-54.786458 241.71484,-54.057292 244.18359,-53.078125" />
        <path
           id="use397"
           d="M 297.4082,-27.984375 C 297.4082,-34.494792 296.06445,-39.536458 293.37695,-43.109375 C 290.69987,-46.692708 286.93425,-48.484375 282.08008,-48.484375 C 277.26758,-48.484375 273.51758,-46.692708 270.83008,-43.109375 C 268.14258,-39.536458 266.79883,-34.494792 266.79883,-27.984375 C 266.79883,-21.505208 268.14258,-16.473958 270.83008,-12.890625 C 273.51758,-9.3072917 277.26758,-7.515625 282.08008,-7.515625 C 286.93425,-7.515625 290.69987,-9.3072917 293.37695,-12.890625 C 296.06445,-16.473958 297.4082,-21.505208 297.4082,-27.984375 M 306.39258,-6.78125 C 306.39258,2.5208333 304.32487,9.4427083 300.18945,13.984375 C 296.06445,18.526042 289.73633,20.796875 281.20508,20.796875 C 278.04883,20.796875 275.06966,20.5625 272.26758,20.09375 C 269.4655,19.625 266.74675,18.901042 264.11133,17.921875 L 264.11133,9.1875 C 266.74675,10.614583 269.35091,11.666667 271.92383,12.34375 C 274.49675,13.03125 277.11654,13.375 279.7832,13.375 C 285.67904,13.375 290.0905,11.838542 293.01758,8.765625 C 295.94466,5.6927083 297.4082,1.046875 297.4082,-5.171875 L 297.4082,-9.625 C 295.55404,-6.3958333 293.17904,-3.984375 290.2832,-2.390625 C 287.38737,-0.796875 283.91862,-4.4408921e-16 279.87695,-4.4408921e-16 C 273.17904,-4.4408921e-16 267.778,-2.5520833 263.67383,-7.65625 C 259.56966,-12.770833 257.51758,-19.546875 257.51758,-27.984375 C 257.51758,-36.442708 259.56966,-43.223958 263.67383,-48.328125 C 267.778,-53.442708 273.17904,-56 279.87695,-56 C 283.91862,-56 287.38737,-55.203125 290.2832,-53.609375 C 293.17904,-52.015625 295.55404,-49.609375 297.4082,-46.390625 L 297.4082,-54.6875 L 306.39258,-54.6875 L 306.39258,-6.78125 z" />
        <path
           id="use399"
           d="M 356.58789,-46.296875 C 355.57747,-46.880208 354.47852,-47.307292 353.29102,-47.578125 C 352.10352,-47.859375 350.79622,-48 349.36914,-48 C 344.28581,-48 340.38477,-46.348958 337.66602,-43.046875 C 334.94727,-39.744792 333.58789,-35 333.58789,-28.8125 L 333.58789,-1.0658141e-14 L 324.55664,-1.0658141e-14 L 324.55664,-54.6875 L 333.58789,-54.6875 L 333.58789,-46.1875 C 335.48372,-49.510417 337.94206,-51.973958 340.96289,-53.578125 C 343.99414,-55.192708 347.67643,-56 352.00977,-56 C 352.62435,-56 353.30664,-55.958333 354.05664,-55.875 C 354.80664,-55.802083 355.63477,-55.682292 356.54102,-55.515625 L 356.58789,-46.296875 z" />
        <path
           id="use401"
           d="M 384.95117,-48.390625 C 380.13867,-48.390625 376.33138,-46.510417 373.5293,-42.75 C 370.72721,-38.989583 369.32617,-33.838542 369.32617,-27.296875 C 369.32617,-20.755208 370.7168,-15.604167 373.49805,-11.84375 C 376.28971,-8.0833333 380.10742,-6.203125 384.95117,-6.203125 C 389.74284,-6.203125 393.5345,-8.0885417 396.32617,-11.859375 C 399.12825,-15.640625 400.5293,-20.786458 400.5293,-27.296875 C 400.5293,-33.776042 399.12825,-38.911458 396.32617,-42.703125 C 393.5345,-46.494792 389.74284,-48.390625 384.95117,-48.390625 M 384.95117,-56 C 392.76367,-56 398.89909,-53.458333 403.35742,-48.375 C 407.82617,-43.302083 410.06055,-36.276042 410.06055,-27.296875 C 410.06055,-18.348958 407.82617,-11.322917 403.35742,-6.21875 C 398.89909,-1.125 392.76367,1.421875 384.95117,1.421875 C 377.10742,1.421875 370.96159,-1.125 366.51367,-6.21875 C 362.07617,-11.322917 359.85742,-18.348958 359.85742,-27.296875 C 359.85742,-36.276042 362.07617,-43.302083 366.51367,-48.375 C 370.96159,-53.458333 377.10742,-56 384.95117,-56" />
        <path
           id="use403"
           d="M 471.72656,-29.59375 L 471.72656,-25.203125 L 430.41406,-25.203125 C 430.8099,-19.015625 432.67448,-14.302083 436.00781,-11.0625 C 439.34115,-7.8229167 443.98698,-6.203125 449.94531,-6.203125 C 453.39323,-6.203125 456.73698,-6.625 459.97656,-7.46875 C 463.21615,-8.3125 466.4349,-9.5833333 469.63281,-11.28125 L 469.63281,-2.78125 C 466.40365,-1.4166667 463.09635,-0.375 459.71094,0.34375 C 456.32552,1.0625 452.89323,1.421875 449.41406,1.421875 C 440.6849,1.421875 433.77344,-1.1145833 428.67969,-6.1875 C 423.58594,-11.270833 421.03906,-18.145833 421.03906,-26.8125 C 421.03906,-35.760417 423.45573,-42.859375 428.28906,-48.109375 C 433.1224,-53.369792 439.64323,-56 447.85156,-56 C 455.20573,-56 461.02344,-53.630208 465.30469,-48.890625 C 469.58594,-44.161458 471.72656,-37.729167 471.72656,-29.59375 M 462.74219,-32.234375 C 462.67969,-37.140625 461.30469,-41.057292 458.61719,-43.984375 C 455.92969,-46.921875 452.3724,-48.390625 447.94531,-48.390625 C 442.9349,-48.390625 438.92448,-46.973958 435.91406,-44.140625 C 432.90365,-41.307292 431.16927,-37.317708 430.71094,-32.171875 L 462.74219,-32.234375 z" />
        <path
           id="use405"
           d="M 521.32812,-53.078125 L 521.32812,-44.578125 C 518.79688,-45.880208 516.16146,-46.854167 513.42188,-47.5 C 510.69271,-48.15625 507.85938,-48.484375 504.92188,-48.484375 C 500.46354,-48.484375 497.11979,-47.802083 494.89062,-46.4375 C 492.66146,-45.072917 491.54688,-43.020833 491.54688,-40.28125 C 491.54688,-38.197917 492.34375,-36.5625 493.9375,-35.375 C 495.53125,-34.1875 498.73958,-33.057292 503.5625,-31.984375 L 506.64062,-31.296875 C 513.01562,-29.932292 517.54688,-28.005208 520.23438,-25.515625 C 522.92188,-23.026042 524.26562,-19.552083 524.26562,-15.09375 C 524.26562,-10.010417 522.25521,-5.984375 518.23438,-3.015625 C 514.21354,-0.057291667 508.6875,1.421875 501.65625,1.421875 C 498.72917,1.421875 495.67708,1.1354167 492.5,0.5625 C 489.32292,-0.010416667 485.97917,-0.86458333 482.46875,-2 L 482.46875,-11.28125 C 485.79167,-9.5520833 489.0625,-8.2552083 492.28125,-7.390625 C 495.5,-6.5364583 498.69271,-6.109375 501.85938,-6.109375 C 506.08854,-6.109375 509.33854,-6.8333333 511.60938,-8.28125 C 513.89062,-9.7291667 515.03125,-11.770833 515.03125,-14.40625 C 515.03125,-16.84375 514.20833,-18.713542 512.5625,-20.015625 C 510.92708,-21.317708 507.32292,-22.572917 501.75,-23.78125 L 498.625,-24.515625 C 493.0625,-25.682292 489.04167,-27.479167 486.5625,-29.90625 C 484.09375,-32.333333 482.85938,-35.661458 482.85938,-39.890625 C 482.85938,-45.036458 484.68229,-49.005208 488.32812,-51.796875 C 491.97396,-54.598958 497.15104,-56 503.85938,-56 C 507.17188,-56 510.29167,-55.755208 513.21875,-55.265625 C 516.15625,-54.786458 518.85938,-54.057292 521.32812,-53.078125" />
        <path
           id="use407"
           d="M 573.42773,-53.078125 L 573.42773,-44.578125 C 570.89648,-45.880208 568.26107,-46.854167 565.52148,-47.5 C 562.79232,-48.15625 559.95898,-48.484375 557.02148,-48.484375 C 552.56315,-48.484375 549.2194,-47.802083 546.99023,-46.4375 C 544.76107,-45.072917 543.64648,-43.020833 543.64648,-40.28125 C 543.64648,-38.197917 544.44336,-36.5625 546.03711,-35.375 C 547.63086,-34.1875 550.83919,-33.057292 555.66211,-31.984375 L 558.74023,-31.296875 C 565.11523,-29.932292 569.64648,-28.005208 572.33398,-25.515625 C 575.02148,-23.026042 576.36523,-19.552083 576.36523,-15.09375 C 576.36523,-10.010417 574.35482,-5.984375 570.33398,-3.015625 C 566.31315,-0.057291667 560.78711,1.421875 553.75586,1.421875 C 550.82878,1.421875 547.77669,1.1354167 544.59961,0.5625 C 541.42253,-0.010416667 538.07878,-0.86458333 534.56836,-2 L 534.56836,-11.28125 C 537.89128,-9.5520833 541.16211,-8.2552083 544.38086,-7.390625 C 547.59961,-6.5364583 550.79232,-6.109375 553.95898,-6.109375 C 558.18815,-6.109375 561.43815,-6.8333333 563.70898,-8.28125 C 565.99023,-9.7291667 567.13086,-11.770833 567.13086,-14.40625 C 567.13086,-16.84375 566.30794,-18.713542 564.66211,-20.015625 C 563.02669,-21.317708 559.42253,-22.572917 553.84961,-23.78125 L 550.72461,-24.515625 C 545.16211,-25.682292 541.14128,-27.479167 538.66211,-29.90625 C 536.19336,-32.333333 534.95898,-35.661458 534.95898,-39.890625 C 534.95898,-45.036458 536.7819,-49.005208 540.42773,-51.796875 C 544.07357,-54.598958 549.25065,-56 555.95898,-56 C 559.27148,-56 562.39128,-55.755208 565.31836,-55.265625 C 568.25586,-54.786458 570.95898,-54.057292 573.42773,-53.078125" />
        <path
           id="use409"
           d="M 637.44922,-29.59375 L 637.44922,-25.203125 L 596.13672,-25.203125 C 596.53255,-19.015625 598.39714,-14.302083 601.73047,-11.0625 C 605.0638,-7.8229167 609.70964,-6.203125 615.66797,-6.203125 C 619.11589,-6.203125 622.45964,-6.625 625.69922,-7.46875 C 628.9388,-8.3125 632.15755,-9.5833333 635.35547,-11.28125 L 635.35547,-2.78125 C 632.1263,-1.4166667 628.81901,-0.375 625.43359,0.34375 C 622.04818,1.0625 618.61589,1.421875 615.13672,1.421875 C 606.40755,1.421875 599.49609,-1.1145833 594.40234,-6.1875 C 589.30859,-11.270833 586.76172,-18.145833 586.76172,-26.8125 C 586.76172,-35.760417 589.17839,-42.859375 594.01172,-48.109375 C 598.84505,-53.369792 605.36589,-56 613.57422,-56 C 620.92839,-56 626.74609,-53.630208 631.02734,-48.890625 C 635.30859,-44.161458 637.44922,-37.729167 637.44922,-29.59375 M 628.46484,-32.234375 C 628.40234,-37.140625 627.02734,-41.057292 624.33984,-43.984375 C 621.65234,-46.921875 618.09505,-48.390625 613.66797,-48.390625 C 608.65755,-48.390625 604.64714,-46.973958 601.63672,-44.140625 C 598.6263,-41.307292 596.89193,-37.317708 596.43359,-32.171875 L 628.46484,-32.234375 z" />
        <path
           id="use411"
           d="" />
        <path
           id="use413"
           d="M 729.44727,-54.6875 L 709.66602,-28.078125 L 730.46289,3.5527137e-15 L 719.86914,3.5527137e-15 L 703.94727,-21.484375 L 688.04102,3.5527137e-15 L 677.43164,3.5527137e-15 L 698.68164,-28.609375 L 679.24414,-54.6875 L 689.83789,-54.6875 L 704.33789,-35.203125 L 718.83789,-54.6875 L 729.44727,-54.6875 z" />
      </g>
    </g>
    <g
       id="matplotlib.axis4">
      <g
         id="ytick6">
        <g
           id="line2d33">
          <g
             id="g418">
            <path
               id="use420"
               d="M 235.56522,194.39999 L 239.56522,194.39999"
               style="opacity:1;stroke:#000000;stroke-width:0.5;stroke-linecap:butt;stroke-linejoin:miter" />
          </g>
        </g>
        <g
           id="line2d34">
          <g
             id="g423">
            <path
               id="use425"
               d="M 356.86957,194.39999 L 352.86957,194.39999"
               style="opacity:1;stroke:#000000;stroke-width:0.5;stroke-linecap:butt;stroke-linejoin:miter" />
          </g>
        </g>
        <g
           id="g427"
           transform="matrix(0.12,0,0,0.12,214.06522,198.76719)"
           style="opacity:1;fill:#000000">
          <path
             id="use429"
             d="M 31.78125,-66.40625 C 26.708333,-66.40625 22.890625,-63.90625 20.328125,-58.90625 C 17.776042,-53.916667 16.5,-46.40625 16.5,-36.375 C 16.5,-26.385417 17.776042,-18.890625 20.328125,-13.890625 C 22.890625,-8.890625 26.708333,-6.390625 31.78125,-6.390625 C 36.895833,-6.390625 40.729167,-8.890625 43.28125,-13.890625 C 45.84375,-18.890625 47.125,-26.385417 47.125,-36.375 C 47.125,-46.40625 45.84375,-53.916667 43.28125,-58.90625 C 40.729167,-63.90625 36.895833,-66.40625 31.78125,-66.40625 M 31.78125,-74.21875 C 39.958333,-74.21875 46.203125,-70.984375 50.515625,-64.515625 C 54.828125,-58.057292 56.984375,-48.677083 56.984375,-36.375 C 56.984375,-24.104167 54.828125,-14.734375 50.515625,-8.265625 C 46.203125,-1.8072917 39.958333,1.421875 31.78125,1.421875 C 23.614583,1.421875 17.375,-1.8072917 13.0625,-8.265625 C 8.75,-14.734375 6.59375,-24.104167 6.59375,-36.375 C 6.59375,-48.677083 8.75,-58.057292 13.0625,-64.515625 C 17.375,-70.984375 23.614583,-74.21875 31.78125,-74.21875" />
          <path
             id="use431"
             d="M 74.310547,-12.40625 L 84.623047,-12.40625 L 84.623047,0 L 74.310547,0 L 74.310547,-12.40625 z" />
          <path
             id="use433"
             d="M 127.19141,-66.40625 C 122.11849,-66.40625 118.30078,-63.90625 115.73828,-58.90625 C 113.1862,-53.916667 111.91016,-46.40625 111.91016,-36.375 C 111.91016,-26.385417 113.1862,-18.890625 115.73828,-13.890625 C 118.30078,-8.890625 122.11849,-6.390625 127.19141,-6.390625 C 132.30599,-6.390625 136.13932,-8.890625 138.69141,-13.890625 C 141.25391,-18.890625 142.53516,-26.385417 142.53516,-36.375 C 142.53516,-46.40625 141.25391,-53.916667 138.69141,-58.90625 C 136.13932,-63.90625 132.30599,-66.40625 127.19141,-66.40625 M 127.19141,-74.21875 C 135.36849,-74.21875 141.61328,-70.984375 145.92578,-64.515625 C 150.23828,-58.057292 152.39453,-48.677083 152.39453,-36.375 C 152.39453,-24.104167 150.23828,-14.734375 145.92578,-8.265625 C 141.61328,-1.8072917 135.36849,1.421875 127.19141,1.421875 C 119.02474,1.421875 112.78516,-1.8072917 108.47266,-8.265625 C 104.16016,-14.734375 102.00391,-24.104167 102.00391,-36.375 C 102.00391,-48.677083 104.16016,-58.057292 108.47266,-64.515625 C 112.78516,-70.984375 119.02474,-74.21875 127.19141,-74.21875" />
        </g>
      </g>
      <g
         id="ytick7">
        <g
           id="line2d35">
          <g
             id="g437">
            <path
               id="use439"
               d="M 235.56522,159.84 L 239.56522,159.84"
               style="opacity:1;stroke:#000000;stroke-width:0.5;stroke-linecap:butt;stroke-linejoin:miter" />
          </g>
        </g>
        <g
           id="line2d36">
          <g
             id="g442">
            <path
               id="use444"
               d="M 356.86957,159.84 L 352.86957,159.84"
               style="opacity:1;stroke:#000000;stroke-width:0.5;stroke-linecap:butt;stroke-linejoin:miter" />
          </g>
        </g>
        <g
           id="g446"
           transform="matrix(0.12,0,0,0.12,214.47147,164.20719)"
           style="opacity:1;fill:#000000">
          <path
             id="use448"
             d="M 31.78125,-66.40625 C 26.708333,-66.40625 22.890625,-63.90625 20.328125,-58.90625 C 17.776042,-53.916667 16.5,-46.40625 16.5,-36.375 C 16.5,-26.385417 17.776042,-18.890625 20.328125,-13.890625 C 22.890625,-8.890625 26.708333,-6.390625 31.78125,-6.390625 C 36.895833,-6.390625 40.729167,-8.890625 43.28125,-13.890625 C 45.84375,-18.890625 47.125,-26.385417 47.125,-36.375 C 47.125,-46.40625 45.84375,-53.916667 43.28125,-58.90625 C 40.729167,-63.90625 36.895833,-66.40625 31.78125,-66.40625 M 31.78125,-74.21875 C 39.958333,-74.21875 46.203125,-70.984375 50.515625,-64.515625 C 54.828125,-58.057292 56.984375,-48.677083 56.984375,-36.375 C 56.984375,-24.104167 54.828125,-14.734375 50.515625,-8.265625 C 46.203125,-1.8072917 39.958333,1.421875 31.78125,1.421875 C 23.614583,1.421875 17.375,-1.8072917 13.0625,-8.265625 C 8.75,-14.734375 6.59375,-24.104167 6.59375,-36.375 C 6.59375,-48.677083 8.75,-58.057292 13.0625,-64.515625 C 17.375,-70.984375 23.614583,-74.21875 31.78125,-74.21875" />
          <path
             id="use450"
             d="M 74.310547,-12.40625 L 84.623047,-12.40625 L 84.623047,0 L 74.310547,0 L 74.310547,-12.40625 z" />
          <path
             id="use452"
             d="M 114.59766,-8.296875 L 149.01953,-8.296875 L 149.01953,0 L 102.73828,0 L 102.73828,-8.296875 C 106.47786,-12.171875 111.57682,-17.369792 118.03516,-23.890625 C 124.50391,-30.421875 128.56641,-34.635417 130.22266,-36.53125 C 133.37891,-40.072917 135.58203,-43.072917 136.83203,-45.53125 C 138.09245,-47.989583 138.72266,-50.40625 138.72266,-52.78125 C 138.72266,-56.65625 137.36328,-59.8125 134.64453,-62.25 C 131.92578,-64.697917 128.38411,-65.921875 124.01953,-65.921875 C 120.92578,-65.921875 117.66016,-65.385417 114.22266,-64.3125 C 110.79557,-63.239583 107.12891,-61.609375 103.22266,-59.421875 L 103.22266,-69.390625 C 107.19141,-70.984375 110.89974,-72.1875 114.34766,-73 C 117.80599,-73.8125 120.96745,-74.21875 123.83203,-74.21875 C 131.38411,-74.21875 137.40495,-72.328125 141.89453,-68.546875 C 146.38411,-64.776042 148.62891,-59.734375 148.62891,-53.421875 C 148.62891,-50.421875 148.06641,-47.578125 146.94141,-44.890625 C 145.82682,-42.213542 143.78516,-39.052083 140.81641,-35.40625 C 140.00391,-34.458333 137.41536,-31.729167 133.05078,-27.21875 C 128.69661,-22.708333 122.54557,-16.401042 114.59766,-8.296875" />
        </g>
      </g>
      <g
         id="ytick8">
        <g
           id="line2d37">
          <g
             id="g456">
            <path
               id="use458"
               d="M 235.56522,125.28 L 239.56522,125.28"
               style="opacity:1;stroke:#000000;stroke-width:0.5;stroke-linecap:butt;stroke-linejoin:miter" />
          </g>
        </g>
        <g
           id="line2d38">
          <g
             id="g461">
            <path
               id="use463"
               d="M 356.86957,125.28 L 352.86957,125.28"
               style="opacity:1;stroke:#000000;stroke-width:0.5;stroke-linecap:butt;stroke-linejoin:miter" />
          </g>
        </g>
        <g
           id="g465"
           transform="matrix(0.12,0,0,0.12,213.94022,129.64719)"
           style="opacity:1;fill:#000000">
          <path
             id="use467"
             d="M 31.78125,-66.40625 C 26.708333,-66.40625 22.890625,-63.90625 20.328125,-58.90625 C 17.776042,-53.916667 16.5,-46.40625 16.5,-36.375 C 16.5,-26.385417 17.776042,-18.890625 20.328125,-13.890625 C 22.890625,-8.890625 26.708333,-6.390625 31.78125,-6.390625 C 36.895833,-6.390625 40.729167,-8.890625 43.28125,-13.890625 C 45.84375,-18.890625 47.125,-26.385417 47.125,-36.375 C 47.125,-46.40625 45.84375,-53.916667 43.28125,-58.90625 C 40.729167,-63.90625 36.895833,-66.40625 31.78125,-66.40625 M 31.78125,-74.21875 C 39.958333,-74.21875 46.203125,-70.984375 50.515625,-64.515625 C 54.828125,-58.057292 56.984375,-48.677083 56.984375,-36.375 C 56.984375,-24.104167 54.828125,-14.734375 50.515625,-8.265625 C 46.203125,-1.8072917 39.958333,1.421875 31.78125,1.421875 C 23.614583,1.421875 17.375,-1.8072917 13.0625,-8.265625 C 8.75,-14.734375 6.59375,-24.104167 6.59375,-36.375 C 6.59375,-48.677083 8.75,-58.057292 13.0625,-64.515625 C 17.375,-70.984375 23.614583,-74.21875 31.78125,-74.21875" />
          <path
             id="use469"
             d="M 74.310547,-12.40625 L 84.623047,-12.40625 L 84.623047,0 L 74.310547,0 L 74.310547,-12.40625 z" />
          <path
             id="use471"
             d="M 133.20703,-64.3125 L 108.30078,-25.390625 L 133.20703,-25.390625 L 133.20703,-64.3125 z M 130.61328,-72.90625 L 143.01953,-72.90625 L 143.01953,-25.390625 L 153.42578,-25.390625 L 153.42578,-17.1875 L 143.01953,-17.1875 L 143.01953,-1.4210855e-14 L 133.20703,-1.4210855e-14 L 133.20703,-17.1875 L 100.30078,-17.1875 L 100.30078,-26.703125 L 130.61328,-72.90625 z" />
        </g>
      </g>
      <g
         id="ytick9">
        <g
           id="line2d39">
          <g
             id="g475">
            <path
               id="use477"
               d="M 235.56522,90.720001 L 239.56522,90.720001"
               style="opacity:1;stroke:#000000;stroke-width:0.5;stroke-linecap:butt;stroke-linejoin:miter" />
          </g>
        </g>
        <g
           id="line2d40">
          <g
             id="g480">
            <path
               id="use482"
               d="M 356.86957,90.720001 L 352.86957,90.720001"
               style="opacity:1;stroke:#000000;stroke-width:0.5;stroke-linecap:butt;stroke-linejoin:miter" />
          </g>
        </g>
        <g
           id="g484"
           transform="matrix(0.12,0,0,0.12,214.03397,95.087187)"
           style="opacity:1;fill:#000000">
          <path
             id="use486"
             d="M 31.78125,-66.40625 C 26.708333,-66.40625 22.890625,-63.90625 20.328125,-58.90625 C 17.776042,-53.916667 16.5,-46.40625 16.5,-36.375 C 16.5,-26.385417 17.776042,-18.890625 20.328125,-13.890625 C 22.890625,-8.890625 26.708333,-6.390625 31.78125,-6.390625 C 36.895833,-6.390625 40.729167,-8.890625 43.28125,-13.890625 C 45.84375,-18.890625 47.125,-26.385417 47.125,-36.375 C 47.125,-46.40625 45.84375,-53.916667 43.28125,-58.90625 C 40.729167,-63.90625 36.895833,-66.40625 31.78125,-66.40625 M 31.78125,-74.21875 C 39.958333,-74.21875 46.203125,-70.984375 50.515625,-64.515625 C 54.828125,-58.057292 56.984375,-48.677083 56.984375,-36.375 C 56.984375,-24.104167 54.828125,-14.734375 50.515625,-8.265625 C 46.203125,-1.8072917 39.958333,1.421875 31.78125,1.421875 C 23.614583,1.421875 17.375,-1.8072917 13.0625,-8.265625 C 8.75,-14.734375 6.59375,-24.104167 6.59375,-36.375 C 6.59375,-48.677083 8.75,-58.057292 13.0625,-64.515625 C 17.375,-70.984375 23.614583,-74.21875 31.78125,-74.21875" />
          <path
             id="use488"
             d="M 74.310547,-12.40625 L 84.623047,-12.40625 L 84.623047,0 L 74.310547,0 L 74.310547,-12.40625 z" />
          <path
             id="use490"
             d="M 128.42578,-40.375 C 123.9987,-40.375 120.48828,-38.859375 117.89453,-35.828125 C 115.3112,-32.807292 114.01953,-28.661458 114.01953,-23.390625 C 114.01953,-18.151042 115.3112,-14.005208 117.89453,-10.953125 C 120.48828,-7.9114583 123.9987,-6.390625 128.42578,-6.390625 C 132.85286,-6.390625 136.35807,-7.9114583 138.94141,-10.953125 C 141.52474,-14.005208 142.81641,-18.151042 142.81641,-23.390625 C 142.81641,-28.661458 141.52474,-32.807292 138.94141,-35.828125 C 136.35807,-38.859375 132.85286,-40.375 128.42578,-40.375 M 148.00391,-71.296875 L 148.00391,-62.3125 C 145.52474,-63.479167 143.02474,-64.369792 140.50391,-64.984375 C 137.98307,-65.609375 135.48307,-65.921875 133.00391,-65.921875 C 126.49349,-65.921875 121.51953,-63.723958 118.08203,-59.328125 C 114.65495,-54.932292 112.69661,-48.291667 112.20703,-39.40625 C 114.1237,-42.239583 116.52995,-44.411458 119.42578,-45.921875 C 122.33203,-47.432292 125.52474,-48.1875 129.00391,-48.1875 C 136.32682,-48.1875 142.11328,-45.963542 146.36328,-41.515625 C 150.61328,-37.078125 152.73828,-31.036458 152.73828,-23.390625 C 152.73828,-15.901042 150.52474,-9.890625 146.09766,-5.359375 C 141.67057,-0.83854167 135.77995,1.421875 128.42578,1.421875 C 119.98828,1.421875 113.54036,-1.8072917 109.08203,-8.265625 C 104.6237,-14.734375 102.39453,-24.104167 102.39453,-36.375 C 102.39453,-47.895833 105.12891,-57.083333 110.59766,-63.9375 C 116.06641,-70.791667 123.40495,-74.21875 132.61328,-74.21875 C 135.09245,-74.21875 137.59245,-73.973958 140.11328,-73.484375 C 142.63411,-72.994792 145.26432,-72.265625 148.00391,-71.296875" />
        </g>
      </g>
      <g
         id="ytick10">
        <g
           id="line2d41">
          <g
             id="g494">
            <path
               id="use496"
               d="M 235.56522,56.16 L 239.56522,56.16"
               style="opacity:1;stroke:#000000;stroke-width:0.5;stroke-linecap:butt;stroke-linejoin:miter" />
          </g>
        </g>
        <g
           id="line2d42">
          <g
             id="g499">
            <path
               id="use501"
               d="M 356.86957,56.16 L 352.86957,56.16"
               style="opacity:1;stroke:#000000;stroke-width:0.5;stroke-linecap:butt;stroke-linejoin:miter" />
          </g>
        </g>
        <g
           id="g503"
           transform="matrix(0.12,0,0,0.12,214.09647,60.527187)"
           style="opacity:1;fill:#000000">
          <path
             id="use505"
             d="M 31.78125,-66.40625 C 26.708333,-66.40625 22.890625,-63.90625 20.328125,-58.90625 C 17.776042,-53.916667 16.5,-46.40625 16.5,-36.375 C 16.5,-26.385417 17.776042,-18.890625 20.328125,-13.890625 C 22.890625,-8.890625 26.708333,-6.390625 31.78125,-6.390625 C 36.895833,-6.390625 40.729167,-8.890625 43.28125,-13.890625 C 45.84375,-18.890625 47.125,-26.385417 47.125,-36.375 C 47.125,-46.40625 45.84375,-53.916667 43.28125,-58.90625 C 40.729167,-63.90625 36.895833,-66.40625 31.78125,-66.40625 M 31.78125,-74.21875 C 39.958333,-74.21875 46.203125,-70.984375 50.515625,-64.515625 C 54.828125,-58.057292 56.984375,-48.677083 56.984375,-36.375 C 56.984375,-24.104167 54.828125,-14.734375 50.515625,-8.265625 C 46.203125,-1.8072917 39.958333,1.421875 31.78125,1.421875 C 23.614583,1.421875 17.375,-1.8072917 13.0625,-8.265625 C 8.75,-14.734375 6.59375,-24.104167 6.59375,-36.375 C 6.59375,-48.677083 8.75,-58.057292 13.0625,-64.515625 C 17.375,-70.984375 23.614583,-74.21875 31.78125,-74.21875" />
          <path
             id="use507"
             d="M 74.310547,-12.40625 L 84.623047,-12.40625 L 84.623047,0 L 74.310547,0 L 74.310547,-12.40625 z" />
          <path
             id="use509"
             d="M 127.19141,-34.625 C 122.50391,-34.625 118.81641,-33.369792 116.12891,-30.859375 C 113.45182,-28.348958 112.11328,-24.901042 112.11328,-20.515625 C 112.11328,-16.119792 113.45182,-12.666667 116.12891,-10.15625 C 118.81641,-7.6458333 122.50391,-6.390625 127.19141,-6.390625 C 131.87891,-6.390625 135.57161,-7.6510417 138.26953,-10.171875 C 140.97786,-12.703125 142.33203,-16.151042 142.33203,-20.515625 C 142.33203,-24.901042 140.98828,-28.348958 138.30078,-30.859375 C 135.6237,-33.369792 131.92057,-34.625 127.19141,-34.625 M 117.33203,-38.8125 C 113.10286,-39.854167 109.80599,-41.822917 107.44141,-44.71875 C 105.08724,-47.625 103.91016,-51.161458 103.91016,-55.328125 C 103.91016,-61.151042 105.98307,-65.755208 110.12891,-69.140625 C 114.28516,-72.526042 119.97266,-74.21875 127.19141,-74.21875 C 134.45182,-74.21875 140.14974,-72.526042 144.28516,-69.140625 C 148.42057,-65.755208 150.48828,-61.151042 150.48828,-55.328125 C 150.48828,-51.161458 149.30599,-47.625 146.94141,-44.71875 C 144.58724,-41.822917 141.3112,-39.854167 137.11328,-38.8125 C 141.86328,-37.708333 145.5612,-35.541667 148.20703,-32.3125 C 150.86328,-29.09375 152.19141,-25.161458 152.19141,-20.515625 C 152.19141,-13.442708 150.03516,-8.015625 145.72266,-4.234375 C 141.41016,-0.46354167 135.23307,1.421875 127.19141,1.421875 C 119.16016,1.421875 112.98307,-0.46354167 108.66016,-4.234375 C 104.34766,-8.015625 102.19141,-13.442708 102.19141,-20.515625 C 102.19141,-25.161458 103.52474,-29.09375 106.19141,-32.3125 C 108.86849,-35.541667 112.58203,-37.708333 117.33203,-38.8125 M 113.72266,-54.390625 C 113.72266,-50.619792 114.89974,-47.677083 117.25391,-45.5625 C 119.61849,-43.447917 122.93099,-42.390625 127.19141,-42.390625 C 131.43099,-42.390625 134.74349,-43.447917 137.12891,-45.5625 C 139.52474,-47.677083 140.72266,-50.619792 140.72266,-54.390625 C 140.72266,-58.171875 139.52474,-61.119792 137.12891,-63.234375 C 134.74349,-65.348958 131.43099,-66.40625 127.19141,-66.40625 C 122.93099,-66.40625 119.61849,-65.348958 117.25391,-63.234375 C 114.89974,-61.119792 113.72266,-58.171875 113.72266,-54.390625" />
        </g>
      </g>
      <g
         id="ytick11">
        <g
           id="line2d43">
          <g
             id="g513">
            <path
               id="use515"
               d="M 235.56522,21.6 L 239.56522,21.6"
               style="opacity:1;stroke:#000000;stroke-width:0.5;stroke-linecap:butt;stroke-linejoin:miter" />
          </g>
        </g>
        <g
           id="line2d44">
          <g
             id="g518">
            <path
               id="use520"
               d="M 356.86957,21.6 L 352.86957,21.6"
               style="opacity:1;stroke:#000000;stroke-width:0.5;stroke-linecap:butt;stroke-linejoin:miter" />
          </g>
        </g>
        <g
           id="g522"
           transform="matrix(0.12,0,0,0.12,214.58084,25.967187)"
           style="opacity:1;fill:#000000">
          <path
             id="use524"
             d="M 12.40625,-8.296875 L 28.515625,-8.296875 L 28.515625,-63.921875 L 10.984375,-60.40625 L 10.984375,-69.390625 L 28.421875,-72.90625 L 38.28125,-72.90625 L 38.28125,-8.296875 L 54.390625,-8.296875 L 54.390625,-1.5987212e-14 L 12.40625,-1.5987212e-14 L 12.40625,-8.296875 z" />
          <path
             id="use526"
             d="M 74.310547,-12.40625 L 84.623047,-12.40625 L 84.623047,0 L 74.310547,0 L 74.310547,-12.40625 z" />
          <path
             id="use528"
             d="M 127.19141,-66.40625 C 122.11849,-66.40625 118.30078,-63.90625 115.73828,-58.90625 C 113.1862,-53.916667 111.91016,-46.40625 111.91016,-36.375 C 111.91016,-26.385417 113.1862,-18.890625 115.73828,-13.890625 C 118.30078,-8.890625 122.11849,-6.390625 127.19141,-6.390625 C 132.30599,-6.390625 136.13932,-8.890625 138.69141,-13.890625 C 141.25391,-18.890625 142.53516,-26.385417 142.53516,-36.375 C 142.53516,-46.40625 141.25391,-53.916667 138.69141,-58.90625 C 136.13932,-63.90625 132.30599,-66.40625 127.19141,-66.40625 M 127.19141,-74.21875 C 135.36849,-74.21875 141.61328,-70.984375 145.92578,-64.515625 C 150.23828,-58.057292 152.39453,-48.677083 152.39453,-36.375 C 152.39453,-24.104167 150.23828,-14.734375 145.92578,-8.265625 C 141.61328,-1.8072917 135.36849,1.421875 127.19141,1.421875 C 119.02474,1.421875 112.78516,-1.8072917 108.47266,-8.265625 C 104.16016,-14.734375 102.00391,-24.104167 102.00391,-36.375 C 102.00391,-48.677083 104.16016,-58.057292 108.47266,-64.515625 C 112.78516,-70.984375 119.02474,-74.21875 127.19141,-74.21875" />
        </g>
      </g>
      <defs
         id="defs530">
        <path
           d="M 53.515625,-70.515625 L 53.515625,-60.890625 C 49.776042,-62.682292 46.244792,-64.015625 42.921875,-64.890625 C 39.598958,-65.776042 36.390625,-66.21875 33.296875,-66.21875 C 27.932292,-66.21875 23.791667,-65.177083 20.875,-63.09375 C 17.958333,-61.010417 16.5,-58.046875 16.5,-54.203125 C 16.5,-50.973958 17.46875,-48.536458 19.40625,-46.890625 C 21.34375,-45.255208 25.015625,-43.932292 30.421875,-42.921875 L 36.375,-41.703125 C 43.729167,-40.296875 49.15625,-37.828125 52.65625,-34.296875 C 56.15625,-30.765625 57.90625,-26.041667 57.90625,-20.125 C 57.90625,-13.052083 55.536458,-7.6927083 50.796875,-4.046875 C 46.067708,-0.40104167 39.130208,1.421875 29.984375,1.421875 C 26.536458,1.421875 22.864583,1.03125 18.96875,0.25 C 15.083333,-0.53125 11.057292,-1.6875 6.890625,-3.21875 L 6.890625,-13.375 C 10.890625,-11.135417 14.8125,-9.4427083 18.65625,-8.296875 C 22.5,-7.1614583 26.276042,-6.59375 29.984375,-6.59375 C 35.609375,-6.59375 39.953125,-7.6979167 43.015625,-9.90625 C 46.078125,-12.125 47.609375,-15.286458 47.609375,-19.390625 C 47.609375,-22.963542 46.510417,-25.760417 44.3125,-27.78125 C 42.114583,-29.802083 38.510417,-31.317708 33.5,-32.328125 L 27.484375,-33.5 C 20.130208,-34.958333 14.807292,-37.25 11.515625,-40.375 C 8.234375,-43.5 6.59375,-47.848958 6.59375,-53.421875 C 6.59375,-59.869792 8.8645833,-64.947917 13.40625,-68.65625 C 17.947917,-72.364583 24.203125,-74.21875 32.171875,-74.21875 C 35.598958,-74.21875 39.083333,-73.90625 42.625,-73.28125 C 46.177083,-72.666667 49.807292,-71.744792 53.515625,-70.515625"
           id="c_b672e4bee30772019085dff1098f516d" />
      </defs>
      <g
         id="g533"
         transform="matrix(0,-0.12,0.12,0,208.94022,117.5625)"
         style="opacity:1;fill:#000000">
        <use
           height="216"
           width="720"
           y="0"
           x="0"
           id="use535"
           xlink:href="#c_b672e4bee30772019085dff1098f516d" />
        <path
           id="use537"
           d="M 94.476562,-75.875 C 90.122395,-68.395833 86.882812,-60.989583 84.757812,-53.65625 C 82.64323,-46.333333 81.585938,-38.911458 81.585938,-31.390625 C 81.585938,-23.880208 82.653646,-16.4375 84.789062,-9.0625 C 86.92448,-1.6875 90.153646,5.7291667 94.476562,13.1875 L 86.664062,13.1875 C 81.789062,5.53125 78.13802,-1.9895833 75.710938,-9.375 C 73.283854,-16.760417 72.070312,-24.098958 72.070312,-31.390625 C 72.070312,-38.651042 73.273438,-45.958333 75.679688,-53.3125 C 78.096355,-60.677083 81.757812,-68.197917 86.664062,-75.875 L 94.476562,-75.875 z" />
        <path
           id="use539"
           d="M 157.38085,-54.6875 L 137.5996,-28.078125 L 158.39648,3.5527137e-15 L 147.80273,3.5527137e-15 L 131.88085,-21.484375 L 115.9746,3.5527137e-15 L 105.36523,3.5527137e-15 L 126.61523,-28.609375 L 107.17773,-54.6875 L 117.77148,-54.6875 L 132.27148,-35.203125 L 146.77148,-54.6875 L 157.38085,-54.6875 z" />
        <path
           id="use541"
           d="M 169.68555,-75.875 L 177.49805,-75.875 C 182.37305,-68.197917 186.02409,-60.677083 188.45117,-53.3125 C 190.87825,-45.958333 192.0918,-38.651042 192.0918,-31.390625 C 192.0918,-24.098958 190.87825,-16.760417 188.45117,-9.375 C 186.02409,-1.9895833 182.37305,5.53125 177.49805,13.1875 L 169.68555,13.1875 C 174.00846,5.7291667 177.23763,-1.6875 179.37305,-9.0625 C 181.50846,-16.4375 182.57617,-23.880208 182.57617,-31.390625 C 182.57617,-38.911458 181.50846,-46.333333 179.37305,-53.65625 C 177.23763,-60.989583 174.00846,-68.395833 169.68555,-75.875" />
      </g>
    </g>
    <path
       id="path543"
       d="M 235.56522,194.4 L 356.86957,194.4 L 356.86957,21.6 L 235.56522,21.6 L 235.56522,194.4"
       style="opacity:1;fill:none;stroke:#000000;stroke-width:1;stroke-linecap:square;stroke-linejoin:miter" />
  </g>
</svg>
