<?xml version="1.0" encoding="UTF-8" standalone="no"?>
<!-- Created with matplotlib (http://matplotlib.sourceforge.net/) -->
<svg
   xmlns:dc="http://purl.org/dc/elements/1.1/"
   xmlns:cc="http://creativecommons.org/ns#"
   xmlns:rdf="http://www.w3.org/1999/02/22-rdf-syntax-ns#"
   xmlns:svg="http://www.w3.org/2000/svg"
   xmlns="http://www.w3.org/2000/svg"
   xmlns:xlink="http://www.w3.org/1999/xlink"
   xmlns:sodipodi="http://sodipodi.sourceforge.net/DTD/sodipodi-0.dtd"
   xmlns:inkscape="http://www.inkscape.org/namespaces/inkscape"
   width="206.31247"
   height="258.32852"
   viewBox="0 0 720 216"
   version="1.0"
   id="svg1"
   sodipodi:version="0.32"
   inkscape:version="0.46"
   sodipodi:docname="GP1-FA-Kurven1.svg"
   inkscape:output_extension="org.inkscape.output.svg.inkscape">
  <metadata
     id="metadata1256">
    <rdf:RDF>
      <cc:Work
         rdf:about="">
        <dc:format>image/svg+xml</dc:format>
        <dc:type
           rdf:resource="http://purl.org/dc/dcmitype/StillImage" />
      </cc:Work>
    </rdf:RDF>
  </metadata>
  <defs
     id="defs1254">
    <inkscape:perspective
       sodipodi:type="inkscape:persp3d"
       inkscape:vp_x="0 : 135 : 1"
       inkscape:vp_y="0 : 1000 : 0"
       inkscape:vp_z="900 : 135 : 1"
       inkscape:persp3d-origin="450 : 90 : 1"
       id="perspective1258" />
  </defs>
  <sodipodi:namedview
     inkscape:window-height="736"
     inkscape:window-width="1280"
     inkscape:pageshadow="2"
     inkscape:pageopacity="0.0"
     guidetolerance="10.0"
     gridtolerance="10.0"
     objecttolerance="10.0"
     borderopacity="1.0"
     bordercolor="#666666"
     pagecolor="#ffffff"
     id="base"
     showgrid="false"
     inkscape:zoom="0.87366971"
     inkscape:cx="371.83693"
     inkscape:cy="178.9919"
     inkscape:window-x="0"
     inkscape:window-y="0"
     inkscape:current-layer="svg1" />
  <g
     id="axes1"
     transform="matrix(4.3622629,0,0,4.3623403,-203.95488,-417.19236)">
    <path
       id="path7"
       d="M 90,194.4 L 211.30435,194.4 L 211.30435,21.6 L 90,21.6 L 90,194.4"
       style="opacity:1;fill:#ffffff" />
    <g
       id="line2d1">
      <defs
         id="defs10">
        <clipPath
           id="p32a252c91153e8a9aff10697c66139eb">
          <rect
             id="rect13"
             height="172.8"
             width="121.30435"
             y="21.6"
             x="90" />
        </clipPath>
      </defs>
      <path
         id="path15"
         d="M 90,186.82777 L 90.60957,186.33942 L 91.219139,185.82499 L 91.828709,185.28348 L 92.438278,184.71389 L 93.047848,184.11521 L 93.657418,183.48642 L 94.266987,182.82649 L 94.876557,182.13441 L 95.486126,181.40914 L 96.095696,180.64967 L 96.705265,179.85498 L 97.314835,179.02408 L 97.924405,178.15597 L 98.533974,177.24968 L 99.143544,176.30425 L 99.753113,175.31875 L 100.36268,174.29228 L 100.97225,173.22396 L 101.58182,172.11296 L 102.19139,170.95848 L 102.80096,169.75974 L 103.41053,168.51606 L 104.0201,167.22676 L 104.62967,165.89125 L 105.23924,164.50897 L 105.84881,163.07945 L 106.45838,161.60228 L 107.06795,160.07711 L 107.67752,158.50369 L 108.28709,156.88183 L 108.89666,155.21144 L 109.50623,153.49251 L 110.1158,151.72514 L 110.72537,149.9095 L 111.33494,148.04589 L 111.94451,146.13469 L 112.55407,144.17641 L 113.16364,142.17166 L 113.77321,140.12117 L 114.38278,138.02577 L 114.99235,135.88643 L 115.60192,133.70424 L 116.21149,131.48039 L 116.82106,129.21623 L 117.43063,126.91321 L 118.0402,124.57292 L 118.64977,122.19707 L 119.25934,119.7875 L 119.86891,117.34617 L 120.47848,114.87519 L 121.08805,112.37676 L 121.69762,109.85323 L 122.30719,107.30706 L 122.91676,104.74082 L 123.52633,102.15723 L 124.1359,99.559076 L 124.74547,96.949283 L 125.35504,94.330868 L 125.96461,91.706949 L 126.57417,89.080737 L 127.18374,86.45553 L 127.79331,83.834709 L 128.40288,81.221727 L 129.01245,78.620107 L 129.62202,76.033432 L 130.23159,73.465338 L 130.84116,70.919503 L 131.45073,68.399643 L 132.0603,65.909503 L 132.66987,63.452842 L 133.27944,61.033432 L 133.88901,58.655043 L 134.49858,56.321436 L 135.10815,54.03635 L 135.71772,51.803497 L 136.32729,49.626548 L 136.93686,47.509126 L 137.54643,45.454794 L 138.156,43.467045 L 138.76557,41.549293 L 139.37514,39.704863 L 139.98471,37.936982 L 140.59428,36.24877 L 141.20384,34.643229 L 141.81341,33.123233 L 142.42298,31.691526 L 143.03255,30.350705 L 143.64212,29.103219 L 144.25169,27.951359 L 144.86126,26.89725 L 145.47083,25.942845 L 146.0804,25.089921 L 146.68997,24.34007 L 147.29954,23.694699 L 147.90911,23.155019 L 148.51868,22.722046 L 149.12825,22.396599 L 149.73782,22.179291 L 150.34739,22.070534 L 150.95696,22.070534 L 151.56653,22.179291 L 152.1761,22.396599 L 152.78567,22.722046 L 153.39524,23.155019 L 154.00481,23.694699 L 154.61438,24.34007 L 155.22395,25.089921 L 155.83351,25.942845 L 156.44308,26.89725 L 157.05265,27.951359 L 157.66222,29.103219 L 158.27179,30.350705 L 158.88136,31.691526 L 159.49093,33.123233 L 160.1005,34.643229 L 160.71007,36.24877 L 161.31964,37.936982 L 161.92921,39.704863 L 162.53878,41.549293 L 163.14835,43.467045 L 163.75792,45.454794 L 164.36749,47.509126 L 164.97706,49.626548 L 165.58663,51.803497 L 166.1962,54.03635 L 166.80577,56.321436 L 167.41534,58.655043 L 168.02491,61.033432 L 168.63448,63.452842 L 169.24405,65.909503 L 169.85362,68.399643 L 170.46318,70.919503 L 171.07275,73.465338 L 171.68233,76.033432 L 172.29189,78.620107 L 172.90146,81.221727 L 173.51103,83.834709 L 174.1206,86.45553 L 174.73017,89.080737 L 175.33974,91.706949 L 175.94931,94.330868 L 176.55888,96.949283 L 177.16845,99.559076 L 177.77802,102.15723 L 178.38759,104.74082 L 178.99716,107.30706 L 179.60673,109.85323 L 180.2163,112.37676 L 180.82587,114.87519 L 181.43544,117.34617 L 182.04501,119.7875 L 182.65458,122.19707 L 183.26415,124.57292 L 183.87372,126.91321 L 184.48329,129.21623 L 185.09286,131.48039 L 185.70243,133.70424 L 186.31199,135.88643 L 186.92156,138.02577 L 187.53113,140.12117 L 188.1407,142.17166 L 188.75027,144.17641 L 189.35984,146.13469 L 189.96941,148.04589 L 190.57898,149.9095 L 191.18855,151.72514 L 191.79812,153.49251 L 192.40769,155.21144 L 193.01726,156.88183 L 193.62683,158.50369 L 194.2364,160.07711 L 194.84597,161.60228 L 195.45554,163.07945 L 196.06511,164.50897 L 196.67468,165.89125 L 197.28425,167.22676 L 197.89382,168.51606 L 198.50339,169.75974 L 199.11296,170.95848 L 199.72253,172.11296 L 200.3321,173.22396 L 200.94166,174.29228 L 201.55123,175.31875 L 202.1608,176.30425 L 202.77037,177.24968 L 203.37994,178.15597 L 203.98951,179.02408 L 204.59908,179.85498 L 205.20865,180.64967 L 205.81822,181.40914 L 206.42779,182.13441 L 207.03736,182.82649 L 207.64693,183.48642 L 208.2565,184.11521 L 208.86607,184.71389 L 209.47564,185.28348 L 210.08521,185.82499 L 210.69478,186.33942 L 211.30435,186.82777"
         clip-path="url(#p32a252c91153e8a9aff10697c66139eb)"
         style="opacity:1;fill:none;stroke:#0000ff;stroke-width:1;stroke-linecap:square;stroke-linejoin:miter" />
    </g>
    <g
       id="matplotlib.axis1">
      <g
         id="xtick1">
        <g
           id="line2d2">
          <defs
             id="defs20">
            <path
               d="M 0,0 L 0,-4"
               id="m30e32995789d870ad79a2e54c91cf9c6" />
          </defs>
          <g
             id="g23">
            <use
               height="216"
               width="720"
               id="use25"
               y="194.39999"
               x="102.13043"
               xlink:href="#m30e32995789d870ad79a2e54c91cf9c6"
               style="opacity:1;fill:none;stroke:#000000;stroke-width:0.5;stroke-linecap:butt;stroke-linejoin:miter" />
          </g>
        </g>
        <g
           id="line2d3">
          <defs
             id="defs28">
            <path
               d="M 0,0 L 0,4"
               id="m9281cae24120827b11d5ea8a7ad3e96b" />
          </defs>
          <g
             id="g31">
            <use
               height="216"
               width="720"
               id="use33"
               y="21.6"
               x="102.13043"
               xlink:href="#m9281cae24120827b11d5ea8a7ad3e96b"
               style="opacity:1;fill:none;stroke:#000000;stroke-width:0.5;stroke-linecap:butt;stroke-linejoin:miter" />
          </g>
        </g>
        <defs
           id="defs35">
          <path
             d="M 33.015625,-40.375 C 28.588542,-40.375 25.078125,-38.859375 22.484375,-35.828125 C 19.901042,-32.807292 18.609375,-28.661458 18.609375,-23.390625 C 18.609375,-18.151042 19.901042,-14.005208 22.484375,-10.953125 C 25.078125,-7.9114583 28.588542,-6.390625 33.015625,-6.390625 C 37.442708,-6.390625 40.947917,-7.9114583 43.53125,-10.953125 C 46.114583,-14.005208 47.40625,-18.151042 47.40625,-23.390625 C 47.40625,-28.661458 46.114583,-32.807292 43.53125,-35.828125 C 40.947917,-38.859375 37.442708,-40.375 33.015625,-40.375 M 52.59375,-71.296875 L 52.59375,-62.3125 C 50.114583,-63.479167 47.614583,-64.369792 45.09375,-64.984375 C 42.572917,-65.609375 40.072917,-65.921875 37.59375,-65.921875 C 31.083333,-65.921875 26.109375,-63.723958 22.671875,-59.328125 C 19.244792,-54.932292 17.286458,-48.291667 16.796875,-39.40625 C 18.713542,-42.239583 21.119792,-44.411458 24.015625,-45.921875 C 26.921875,-47.432292 30.114583,-48.1875 33.59375,-48.1875 C 40.916667,-48.1875 46.703125,-45.963542 50.953125,-41.515625 C 55.203125,-37.078125 57.328125,-31.036458 57.328125,-23.390625 C 57.328125,-15.901042 55.114583,-9.890625 50.6875,-5.359375 C 46.260417,-0.83854167 40.369792,1.421875 33.015625,1.421875 C 24.578125,1.421875 18.130208,-1.8072917 13.671875,-8.265625 C 9.2135417,-14.734375 6.984375,-24.104167 6.984375,-36.375 C 6.984375,-47.895833 9.71875,-57.083333 15.1875,-63.9375 C 20.65625,-70.791667 27.994792,-74.21875 37.203125,-74.21875 C 39.682292,-74.21875 42.182292,-73.973958 44.703125,-73.484375 C 47.223958,-72.994792 49.854167,-72.265625 52.59375,-71.296875"
             id="c_cc8d6d580d1b10c8632f7a42cd53db8a" />
        </defs>
        <g
           id="g38"
           transform="matrix(0.12,0,0,0.12,99.11481,207.30625)"
           style="opacity:1;fill:#000000">
          <use
             height="216"
             width="720"
             y="0"
             x="0"
             id="use40"
             xlink:href="#c_cc8d6d580d1b10c8632f7a42cd53db8a" />
        </g>
      </g>
      <g
         id="xtick2">
        <g
           id="line2d4">
          <g
             id="g44">
            <use
               height="216"
               width="720"
               id="use46"
               y="194.39999"
               x="126.3913"
               xlink:href="#m30e32995789d870ad79a2e54c91cf9c6"
               style="opacity:1;fill:none;stroke:#000000;stroke-width:0.5;stroke-linecap:butt;stroke-linejoin:miter" />
          </g>
        </g>
        <g
           id="line2d5">
          <g
             id="g49">
            <use
               height="216"
               width="720"
               id="use51"
               y="21.6"
               x="126.3913"
               xlink:href="#m9281cae24120827b11d5ea8a7ad3e96b"
               style="opacity:1;fill:none;stroke:#000000;stroke-width:0.5;stroke-linecap:butt;stroke-linejoin:miter" />
          </g>
        </g>
        <defs
           id="defs53">
          <path
             d="M 31.78125,-34.625 C 27.09375,-34.625 23.40625,-33.369792 20.71875,-30.859375 C 18.041667,-28.348958 16.703125,-24.901042 16.703125,-20.515625 C 16.703125,-16.119792 18.041667,-12.666667 20.71875,-10.15625 C 23.40625,-7.6458333 27.09375,-6.390625 31.78125,-6.390625 C 36.46875,-6.390625 40.161458,-7.6510417 42.859375,-10.171875 C 45.567708,-12.703125 46.921875,-16.151042 46.921875,-20.515625 C 46.921875,-24.901042 45.578125,-28.348958 42.890625,-30.859375 C 40.213542,-33.369792 36.510417,-34.625 31.78125,-34.625 M 21.921875,-38.8125 C 17.692708,-39.854167 14.395833,-41.822917 12.03125,-44.71875 C 9.6770833,-47.625 8.5,-51.161458 8.5,-55.328125 C 8.5,-61.151042 10.572917,-65.755208 14.71875,-69.140625 C 18.875,-72.526042 24.5625,-74.21875 31.78125,-74.21875 C 39.041667,-74.21875 44.739583,-72.526042 48.875,-69.140625 C 53.010417,-65.755208 55.078125,-61.151042 55.078125,-55.328125 C 55.078125,-51.161458 53.895833,-47.625 51.53125,-44.71875 C 49.177083,-41.822917 45.901042,-39.854167 41.703125,-38.8125 C 46.453125,-37.708333 50.151042,-35.541667 52.796875,-32.3125 C 55.453125,-29.09375 56.78125,-25.161458 56.78125,-20.515625 C 56.78125,-13.442708 54.625,-8.015625 50.3125,-4.234375 C 46,-0.46354167 39.822917,1.421875 31.78125,1.421875 C 23.75,1.421875 17.572917,-0.46354167 13.25,-4.234375 C 8.9375,-8.015625 6.78125,-13.442708 6.78125,-20.515625 C 6.78125,-25.161458 8.1145833,-29.09375 10.78125,-32.3125 C 13.458333,-35.541667 17.171875,-37.708333 21.921875,-38.8125 M 18.3125,-54.390625 C 18.3125,-50.619792 19.489583,-47.677083 21.84375,-45.5625 C 24.208333,-43.447917 27.520833,-42.390625 31.78125,-42.390625 C 36.020833,-42.390625 39.333333,-43.447917 41.71875,-45.5625 C 44.114583,-47.677083 45.3125,-50.619792 45.3125,-54.390625 C 45.3125,-58.171875 44.114583,-61.119792 41.71875,-63.234375 C 39.333333,-65.348958 36.020833,-66.40625 31.78125,-66.40625 C 27.520833,-66.40625 24.208333,-65.348958 21.84375,-63.234375 C 19.489583,-61.119792 18.3125,-58.171875 18.3125,-54.390625"
             id="c_bef35738d52871942e50b9de9b122bab" />
        </defs>
        <g
           id="g56"
           transform="matrix(0.12,0,0,0.12,123.3913,207.30625)"
           style="opacity:1;fill:#000000">
          <use
             height="216"
             width="720"
             y="0"
             x="0"
             id="use58"
             xlink:href="#c_bef35738d52871942e50b9de9b122bab" />
        </g>
      </g>
      <g
         id="xtick3">
        <g
           id="line2d6">
          <g
             id="g62">
            <use
               height="216"
               width="720"
               id="use64"
               y="194.39999"
               x="150.65218"
               xlink:href="#m30e32995789d870ad79a2e54c91cf9c6"
               style="opacity:1;fill:none;stroke:#000000;stroke-width:0.5;stroke-linecap:butt;stroke-linejoin:miter" />
          </g>
        </g>
        <g
           id="line2d7">
          <g
             id="g67">
            <use
               height="216"
               width="720"
               id="use69"
               y="21.6"
               x="150.65218"
               xlink:href="#m9281cae24120827b11d5ea8a7ad3e96b"
               style="opacity:1;fill:none;stroke:#000000;stroke-width:0.5;stroke-linecap:butt;stroke-linejoin:miter" />
          </g>
        </g>
        <defs
           id="defs71">
          <path
             d="M 12.40625,-8.296875 L 28.515625,-8.296875 L 28.515625,-63.921875 L 10.984375,-60.40625 L 10.984375,-69.390625 L 28.421875,-72.90625 L 38.28125,-72.90625 L 38.28125,-8.296875 L 54.390625,-8.296875 L 54.390625,-1.5987212e-14 L 12.40625,-1.5987212e-14 L 12.40625,-8.296875 z"
             id="c_42baa63129a918535c52adb20d687ea7" />
          <path
             d="M 31.78125,-66.40625 C 26.708333,-66.40625 22.890625,-63.90625 20.328125,-58.90625 C 17.776042,-53.916667 16.5,-46.40625 16.5,-36.375 C 16.5,-26.385417 17.776042,-18.890625 20.328125,-13.890625 C 22.890625,-8.890625 26.708333,-6.390625 31.78125,-6.390625 C 36.895833,-6.390625 40.729167,-8.890625 43.28125,-13.890625 C 45.84375,-18.890625 47.125,-26.385417 47.125,-36.375 C 47.125,-46.40625 45.84375,-53.916667 43.28125,-58.90625 C 40.729167,-63.90625 36.895833,-66.40625 31.78125,-66.40625 M 31.78125,-74.21875 C 39.958333,-74.21875 46.203125,-70.984375 50.515625,-64.515625 C 54.828125,-58.057292 56.984375,-48.677083 56.984375,-36.375 C 56.984375,-24.104167 54.828125,-14.734375 50.515625,-8.265625 C 46.203125,-1.8072917 39.958333,1.421875 31.78125,1.421875 C 23.614583,1.421875 17.375,-1.8072917 13.0625,-8.265625 C 8.75,-14.734375 6.59375,-24.104167 6.59375,-36.375 C 6.59375,-48.677083 8.75,-58.057292 13.0625,-64.515625 C 17.375,-70.984375 23.614583,-74.21875 31.78125,-74.21875"
             id="c_7a2040fe3b94fcd41d0a72c84e93b115" />
        </defs>
        <g
           id="g75"
           transform="matrix(0.12,0,0,0.12,144.06624,207.30625)"
           style="opacity:1;fill:#000000">
          <use
             height="216"
             width="720"
             y="0"
             x="0"
             id="use77"
             xlink:href="#c_42baa63129a918535c52adb20d687ea7" />
          <use
             height="216"
             width="720"
             y="0"
             id="use79"
             x="63.623047"
             xlink:href="#c_7a2040fe3b94fcd41d0a72c84e93b115" />
        </g>
      </g>
      <g
         id="xtick4">
        <g
           id="line2d8">
          <g
             id="g83">
            <use
               height="216"
               width="720"
               id="use85"
               y="194.39999"
               x="174.91304"
               xlink:href="#m30e32995789d870ad79a2e54c91cf9c6"
               style="opacity:1;fill:none;stroke:#000000;stroke-width:0.5;stroke-linecap:butt;stroke-linejoin:miter" />
          </g>
        </g>
        <g
           id="line2d9">
          <g
             id="g88">
            <use
               height="216"
               width="720"
               id="use90"
               y="21.6"
               x="174.91304"
               xlink:href="#m9281cae24120827b11d5ea8a7ad3e96b"
               style="opacity:1;fill:none;stroke:#000000;stroke-width:0.5;stroke-linecap:butt;stroke-linejoin:miter" />
          </g>
        </g>
        <defs
           id="defs92">
          <path
             d="M 19.1875,-8.296875 L 53.609375,-8.296875 L 53.609375,0 L 7.328125,0 L 7.328125,-8.296875 C 11.067708,-12.171875 16.166667,-17.369792 22.625,-23.890625 C 29.09375,-30.421875 33.15625,-34.635417 34.8125,-36.53125 C 37.96875,-40.072917 40.171875,-43.072917 41.421875,-45.53125 C 42.682292,-47.989583 43.3125,-50.40625 43.3125,-52.78125 C 43.3125,-56.65625 41.953125,-59.8125 39.234375,-62.25 C 36.515625,-64.697917 32.973958,-65.921875 28.609375,-65.921875 C 25.515625,-65.921875 22.25,-65.385417 18.8125,-64.3125 C 15.385417,-63.239583 11.71875,-61.609375 7.8125,-59.421875 L 7.8125,-69.390625 C 11.78125,-70.984375 15.489583,-72.1875 18.9375,-73 C 22.395833,-73.8125 25.557292,-74.21875 28.421875,-74.21875 C 35.973958,-74.21875 41.994792,-72.328125 46.484375,-68.546875 C 50.973958,-64.776042 53.21875,-59.734375 53.21875,-53.421875 C 53.21875,-50.421875 52.65625,-47.578125 51.53125,-44.890625 C 50.416667,-42.213542 48.375,-39.052083 45.40625,-35.40625 C 44.59375,-34.458333 42.005208,-31.729167 37.640625,-27.21875 C 33.286458,-22.708333 27.135417,-16.401042 19.1875,-8.296875"
             id="c_ed3f3ed3ebfbd18bcb9c012009a68ad1" />
        </defs>
        <g
           id="g95"
           transform="matrix(0.12,0,0,0.12,168.53023,207.30625)"
           style="opacity:1;fill:#000000">
          <use
             height="216"
             width="720"
             y="0"
             x="0"
             id="use97"
             xlink:href="#c_42baa63129a918535c52adb20d687ea7" />
          <use
             height="216"
             width="720"
             y="0"
             id="use99"
             x="63.623047"
             xlink:href="#c_ed3f3ed3ebfbd18bcb9c012009a68ad1" />
        </g>
      </g>
      <g
         id="xtick5">
        <g
           id="line2d10">
          <g
             id="g103">
            <use
               height="216"
               width="720"
               id="use105"
               y="194.39999"
               x="199.17392"
               xlink:href="#m30e32995789d870ad79a2e54c91cf9c6"
               style="opacity:1;fill:none;stroke:#000000;stroke-width:0.5;stroke-linecap:butt;stroke-linejoin:miter" />
          </g>
        </g>
        <g
           id="line2d11">
          <g
             id="g108">
            <use
               height="216"
               width="720"
               id="use110"
               y="21.6"
               x="199.17392"
               xlink:href="#m9281cae24120827b11d5ea8a7ad3e96b"
               style="opacity:1;fill:none;stroke:#000000;stroke-width:0.5;stroke-linecap:butt;stroke-linejoin:miter" />
          </g>
        </g>
        <defs
           id="defs112">
          <path
             d="M 37.796875,-64.3125 L 12.890625,-25.390625 L 37.796875,-25.390625 L 37.796875,-64.3125 z M 35.203125,-72.90625 L 47.609375,-72.90625 L 47.609375,-25.390625 L 58.015625,-25.390625 L 58.015625,-17.1875 L 47.609375,-17.1875 L 47.609375,-1.4210855e-14 L 37.796875,-1.4210855e-14 L 37.796875,-17.1875 L 4.890625,-17.1875 L 4.890625,-26.703125 L 35.203125,-72.90625 z"
             id="c_a0416418d96557a09b8c1332d34883ba" />
        </defs>
        <g
           id="g115"
           transform="matrix(0.12,0,0,0.12,192.52548,207.15)"
           style="opacity:1;fill:#000000">
          <use
             height="216"
             width="720"
             y="0"
             x="0"
             id="use117"
             xlink:href="#c_42baa63129a918535c52adb20d687ea7" />
          <use
             height="216"
             width="720"
             y="0"
             id="use119"
             x="63.623047"
             xlink:href="#c_a0416418d96557a09b8c1332d34883ba" />
        </g>
      </g>
      <defs
         id="defs121">
        <path
           d="M 9.8125,-72.90625 L 24.515625,-72.90625 L 43.109375,-23.296875 L 61.8125,-72.90625 L 76.515625,-72.90625 L 76.515625,0 L 66.890625,0 L 66.890625,-64.015625 L 48.09375,-14.015625 L 38.1875,-14.015625 L 19.390625,-64.015625 L 19.390625,0 L 9.8125,0 L 9.8125,-72.90625 z"
           id="c_72234ddc5dcad8d05c893ef0371171da" />
        <path
           d="M 56.203125,-29.59375 L 56.203125,-25.203125 L 14.890625,-25.203125 C 15.286458,-19.015625 17.151042,-14.302083 20.484375,-11.0625 C 23.817708,-7.8229167 28.463542,-6.203125 34.421875,-6.203125 C 37.869792,-6.203125 41.213542,-6.625 44.453125,-7.46875 C 47.692708,-8.3125 50.911458,-9.5833333 54.109375,-11.28125 L 54.109375,-2.78125 C 50.880208,-1.4166667 47.572917,-0.375 44.1875,0.34375 C 40.802083,1.0625 37.369792,1.421875 33.890625,1.421875 C 25.161458,1.421875 18.25,-1.1145833 13.15625,-6.1875 C 8.0625,-11.270833 5.515625,-18.145833 5.515625,-26.8125 C 5.515625,-35.760417 7.9322917,-42.859375 12.765625,-48.109375 C 17.598958,-53.369792 24.119792,-56 32.328125,-56 C 39.682292,-56 45.5,-53.630208 49.78125,-48.890625 C 54.0625,-44.161458 56.203125,-37.729167 56.203125,-29.59375 M 47.21875,-32.234375 C 47.15625,-37.140625 45.78125,-41.057292 43.09375,-43.984375 C 40.40625,-46.921875 36.848958,-48.390625 32.421875,-48.390625 C 27.411458,-48.390625 23.401042,-46.973958 20.390625,-44.140625 C 17.380208,-41.307292 15.645833,-37.317708 15.1875,-32.171875 L 47.21875,-32.234375 z"
           id="c_0bce5afba2dc6b9024b26277c38ad8e8" />
        <path
           d="M 44.28125,-53.078125 L 44.28125,-44.578125 C 41.75,-45.880208 39.114583,-46.854167 36.375,-47.5 C 33.645833,-48.15625 30.8125,-48.484375 27.875,-48.484375 C 23.416667,-48.484375 20.072917,-47.802083 17.84375,-46.4375 C 15.614583,-45.072917 14.5,-43.020833 14.5,-40.28125 C 14.5,-38.197917 15.296875,-36.5625 16.890625,-35.375 C 18.484375,-34.1875 21.692708,-33.057292 26.515625,-31.984375 L 29.59375,-31.296875 C 35.96875,-29.932292 40.5,-28.005208 43.1875,-25.515625 C 45.875,-23.026042 47.21875,-19.552083 47.21875,-15.09375 C 47.21875,-10.010417 45.208333,-5.984375 41.1875,-3.015625 C 37.166667,-0.057291667 31.640625,1.421875 24.609375,1.421875 C 21.682292,1.421875 18.630208,1.1354167 15.453125,0.5625 C 12.276042,-0.010416667 8.9322917,-0.86458333 5.421875,-2 L 5.421875,-11.28125 C 8.7447917,-9.5520833 12.015625,-8.2552083 15.234375,-7.390625 C 18.453125,-6.5364583 21.645833,-6.109375 24.8125,-6.109375 C 29.041667,-6.109375 32.291667,-6.8333333 34.5625,-8.28125 C 36.84375,-9.7291667 37.984375,-11.770833 37.984375,-14.40625 C 37.984375,-16.84375 37.161458,-18.713542 35.515625,-20.015625 C 33.880208,-21.317708 30.276042,-22.572917 24.703125,-23.78125 L 21.578125,-24.515625 C 16.015625,-25.682292 11.994792,-27.479167 9.515625,-29.90625 C 7.046875,-32.333333 5.8125,-35.661458 5.8125,-39.890625 C 5.8125,-45.036458 7.6354167,-49.005208 11.28125,-51.796875 C 14.927083,-54.598958 20.104167,-56 26.8125,-56 C 30.125,-56 33.244792,-55.755208 36.171875,-55.265625 C 39.109375,-54.786458 41.8125,-54.057292 44.28125,-53.078125"
           id="c_8e0810ad13fe20a2a87a2619799b154d" />
        <path
           d="M 45.40625,-27.984375 C 45.40625,-34.494792 44.0625,-39.536458 41.375,-43.109375 C 38.697917,-46.692708 34.932292,-48.484375 30.078125,-48.484375 C 25.265625,-48.484375 21.515625,-46.692708 18.828125,-43.109375 C 16.140625,-39.536458 14.796875,-34.494792 14.796875,-27.984375 C 14.796875,-21.505208 16.140625,-16.473958 18.828125,-12.890625 C 21.515625,-9.3072917 25.265625,-7.515625 30.078125,-7.515625 C 34.932292,-7.515625 38.697917,-9.3072917 41.375,-12.890625 C 44.0625,-16.473958 45.40625,-21.505208 45.40625,-27.984375 M 54.390625,-6.78125 C 54.390625,2.5208333 52.322917,9.4427083 48.1875,13.984375 C 44.0625,18.526042 37.734375,20.796875 29.203125,20.796875 C 26.046875,20.796875 23.067708,20.5625 20.265625,20.09375 C 17.463542,19.625 14.744792,18.901042 12.109375,17.921875 L 12.109375,9.1875 C 14.744792,10.614583 17.348958,11.666667 19.921875,12.34375 C 22.494792,13.03125 25.114583,13.375 27.78125,13.375 C 33.677083,13.375 38.088542,11.838542 41.015625,8.765625 C 43.942708,5.6927083 45.40625,1.046875 45.40625,-5.171875 L 45.40625,-9.625 C 43.552083,-6.3958333 41.177083,-3.984375 38.28125,-2.390625 C 35.385417,-0.796875 31.916667,-4.4408921e-16 27.875,-4.4408921e-16 C 21.177083,-4.4408921e-16 15.776042,-2.5520833 11.671875,-7.65625 C 7.5677083,-12.770833 5.515625,-19.546875 5.515625,-27.984375 C 5.515625,-36.442708 7.5677083,-43.223958 11.671875,-48.328125 C 15.776042,-53.442708 21.177083,-56 27.875,-56 C 31.916667,-56 35.385417,-55.203125 38.28125,-53.609375 C 41.177083,-52.015625 43.552083,-49.609375 45.40625,-46.390625 L 45.40625,-54.6875 L 54.390625,-54.6875 L 54.390625,-6.78125 z"
           id="c_e3864de5dabf2f8dd9eee74726882ec1" />
        <path
           d="M 41.109375,-46.296875 C 40.098958,-46.880208 39,-47.307292 37.8125,-47.578125 C 36.625,-47.859375 35.317708,-48 33.890625,-48 C 28.807292,-48 24.90625,-46.348958 22.1875,-43.046875 C 19.46875,-39.744792 18.109375,-35 18.109375,-28.8125 L 18.109375,-1.0658141e-14 L 9.078125,-1.0658141e-14 L 9.078125,-54.6875 L 18.109375,-54.6875 L 18.109375,-46.1875 C 20.005208,-49.510417 22.463542,-51.973958 25.484375,-53.578125 C 28.515625,-55.192708 32.197917,-56 36.53125,-56 C 37.145833,-56 37.828125,-55.958333 38.578125,-55.875 C 39.328125,-55.802083 40.15625,-55.682292 41.0625,-55.515625 L 41.109375,-46.296875 z"
           id="c_6ec8d5749226675394676a5d2a3b468b" />
        <path
           d="M 30.609375,-48.390625 C 25.796875,-48.390625 21.989583,-46.510417 19.1875,-42.75 C 16.385417,-38.989583 14.984375,-33.838542 14.984375,-27.296875 C 14.984375,-20.755208 16.375,-15.604167 19.15625,-11.84375 C 21.947917,-8.0833333 25.765625,-6.203125 30.609375,-6.203125 C 35.401042,-6.203125 39.192708,-8.0885417 41.984375,-11.859375 C 44.786458,-15.640625 46.1875,-20.786458 46.1875,-27.296875 C 46.1875,-33.776042 44.786458,-38.911458 41.984375,-42.703125 C 39.192708,-46.494792 35.401042,-48.390625 30.609375,-48.390625 M 30.609375,-56 C 38.421875,-56 44.557292,-53.458333 49.015625,-48.375 C 53.484375,-43.302083 55.71875,-36.276042 55.71875,-27.296875 C 55.71875,-18.348958 53.484375,-11.322917 49.015625,-6.21875 C 44.557292,-1.125 38.421875,1.421875 30.609375,1.421875 C 22.765625,1.421875 16.619792,-1.125 12.171875,-6.21875 C 7.734375,-11.322917 5.515625,-18.348958 5.515625,-27.296875 C 5.515625,-36.276042 7.734375,-43.302083 12.171875,-48.375 C 16.619792,-53.458333 22.765625,-56 30.609375,-56"
           id="c_f05dd90d41f04bb96ef1ca503cc2044b" />
        <path
           d=""
           id="c_d41d8cd98f00b204e9800998ecf8427e" />
        <path
           d="M 54.890625,-54.6875 L 35.109375,-28.078125 L 55.90625,3.5527137e-15 L 45.3125,3.5527137e-15 L 29.390625,-21.484375 L 13.484375,3.5527137e-15 L 2.875,3.5527137e-15 L 24.125,-28.609375 L 4.6875,-54.6875 L 15.28125,-54.6875 L 29.78125,-35.203125 L 44.28125,-54.6875 L 54.890625,-54.6875 z"
           id="c_801fe2e877fad46da27c898b407b3b54" />
      </defs>
      <g
         id="g131"
         transform="matrix(0.12,0,0,0.12,106.80061,221.22812)"
         style="opacity:1;fill:#000000">
        <use
           height="216"
           width="720"
           y="0"
           x="0"
           id="use133"
           xlink:href="#c_72234ddc5dcad8d05c893ef0371171da" />
        <use
           height="216"
           width="720"
           y="0"
           id="use135"
           x="86.279297"
           xlink:href="#c_0bce5afba2dc6b9024b26277c38ad8e8" />
        <use
           height="216"
           width="720"
           y="0"
           id="use137"
           x="147.80273"
           xlink:href="#c_8e0810ad13fe20a2a87a2619799b154d" />
        <use
           height="216"
           width="720"
           y="0"
           id="use139"
           x="199.90234"
           xlink:href="#c_8e0810ad13fe20a2a87a2619799b154d" />
        <use
           height="216"
           width="720"
           y="0"
           id="use141"
           x="252.00195"
           xlink:href="#c_e3864de5dabf2f8dd9eee74726882ec1" />
        <use
           height="216"
           width="720"
           y="0"
           id="use143"
           x="315.47852"
           xlink:href="#c_6ec8d5749226675394676a5d2a3b468b" />
        <use
           height="216"
           width="720"
           y="0"
           id="use145"
           x="354.3418"
           xlink:href="#c_f05dd90d41f04bb96ef1ca503cc2044b" />
        <use
           height="216"
           width="720"
           y="0"
           id="use147"
           x="415.52344"
           xlink:href="#c_0bce5afba2dc6b9024b26277c38ad8e8" />
        <use
           height="216"
           width="720"
           y="0"
           id="use149"
           x="477.04688"
           xlink:href="#c_8e0810ad13fe20a2a87a2619799b154d" />
        <use
           height="216"
           width="720"
           y="0"
           id="use151"
           x="529.14648"
           xlink:href="#c_8e0810ad13fe20a2a87a2619799b154d" />
        <use
           height="216"
           width="720"
           y="0"
           id="use153"
           x="581.24609"
           xlink:href="#c_0bce5afba2dc6b9024b26277c38ad8e8" />
        <use
           height="216"
           width="720"
           y="0"
           id="use155"
           x="642.76953"
           xlink:href="#c_d41d8cd98f00b204e9800998ecf8427e" />
        <use
           height="216"
           width="720"
           y="0"
           id="use157"
           x="674.55664"
           xlink:href="#c_801fe2e877fad46da27c898b407b3b54" />
      </g>
    </g>
    <g
       id="matplotlib.axis2">
      <g
         id="ytick1">
        <g
           id="line2d12">
          <defs
             id="defs162">
            <path
               d="M 0,0 L 4,0"
               id="m3400efa6b1638b3fea9e19e898273957" />
          </defs>
          <g
             id="g165">
            <use
               height="216"
               width="720"
               id="use167"
               y="194.39999"
               x="90"
               xlink:href="#m3400efa6b1638b3fea9e19e898273957"
               style="opacity:1;fill:none;stroke:#000000;stroke-width:0.5;stroke-linecap:butt;stroke-linejoin:miter" />
          </g>
        </g>
        <g
           id="line2d13">
          <defs
             id="defs170">
            <path
               d="M 0,0 L -4,0"
               id="m20b58b2501143cb5e0a5e8f1ef6f1643" />
          </defs>
          <g
             id="g173">
            <use
               height="216"
               width="720"
               id="use175"
               y="194.39999"
               x="211.30435"
               xlink:href="#m20b58b2501143cb5e0a5e8f1ef6f1643"
               style="opacity:1;fill:none;stroke:#000000;stroke-width:0.5;stroke-linecap:butt;stroke-linejoin:miter" />
          </g>
        </g>
        <defs
           id="defs177">
          <path
             d="M 10.6875,-12.40625 L 21,-12.40625 L 21,0 L 10.6875,0 L 10.6875,-12.40625 z"
             id="c_ed3e21196fb739f392806f09ca0594ef" />
        </defs>
        <g
           id="g180"
           transform="matrix(0.12,0,0,0.12,60.859375,198.76719)"
           style="opacity:1;fill:#000000">
          <use
             height="216"
             width="720"
             y="0"
             x="0"
             id="use182"
             xlink:href="#c_7a2040fe3b94fcd41d0a72c84e93b115" />
          <use
             height="216"
             width="720"
             y="0"
             id="use184"
             x="63.623047"
             xlink:href="#c_ed3e21196fb739f392806f09ca0594ef" />
          <use
             height="216"
             width="720"
             y="0"
             id="use186"
             x="95.410156"
             xlink:href="#c_7a2040fe3b94fcd41d0a72c84e93b115" />
          <use
             height="216"
             width="720"
             y="0"
             id="use188"
             x="159.0332"
             xlink:href="#c_7a2040fe3b94fcd41d0a72c84e93b115" />
        </g>
      </g>
      <g
         id="ytick2">
        <g
           id="line2d14">
          <g
             id="g192">
            <use
               height="216"
               width="720"
               id="use194"
               y="151.2"
               x="90"
               xlink:href="#m3400efa6b1638b3fea9e19e898273957"
               style="opacity:1;fill:none;stroke:#000000;stroke-width:0.5;stroke-linecap:butt;stroke-linejoin:miter" />
          </g>
        </g>
        <g
           id="line2d15">
          <g
             id="g197">
            <use
               height="216"
               width="720"
               id="use199"
               y="151.2"
               x="211.30435"
               xlink:href="#m20b58b2501143cb5e0a5e8f1ef6f1643"
               style="opacity:1;fill:none;stroke:#000000;stroke-width:0.5;stroke-linecap:butt;stroke-linejoin:miter" />
          </g>
        </g>
        <defs
           id="defs201">
          <path
             d="M 10.796875,-72.90625 L 49.515625,-72.90625 L 49.515625,-64.59375 L 19.828125,-64.59375 L 19.828125,-46.734375 C 21.255208,-47.223958 22.682292,-47.588542 24.109375,-47.828125 C 25.546875,-48.067708 26.984375,-48.1875 28.421875,-48.1875 C 36.557292,-48.1875 43,-45.958333 47.75,-41.5 C 52.510417,-37.041667 54.890625,-31.005208 54.890625,-23.390625 C 54.890625,-15.546875 52.447917,-9.4479167 47.5625,-5.09375 C 42.677083,-0.75 35.791667,1.421875 26.90625,1.421875 C 23.84375,1.421875 20.723958,1.1614583 17.546875,0.640625 C 14.380208,0.11979167 11.104167,-0.66145833 7.71875,-1.703125 L 7.71875,-11.625 C 10.645833,-10.03125 13.671875,-8.84375 16.796875,-8.0625 C 19.921875,-7.28125 23.223958,-6.890625 26.703125,-6.890625 C 32.338542,-6.890625 36.796875,-8.3697917 40.078125,-11.328125 C 43.369792,-14.286458 45.015625,-18.307292 45.015625,-23.390625 C 45.015625,-28.463542 43.369792,-32.479167 40.078125,-35.4375 C 36.796875,-38.40625 32.338542,-39.890625 26.703125,-39.890625 C 24.067708,-39.890625 21.4375,-39.598958 18.8125,-39.015625 C 16.197917,-38.432292 13.526042,-37.520833 10.796875,-36.28125 L 10.796875,-72.90625 z"
             id="c_1260a2df50f305f3db244e29828f968e" />
        </defs>
        <g
           id="g204"
           transform="matrix(0.12,0,0,0.12,61.109375,155.56719)"
           style="opacity:1;fill:#000000">
          <use
             height="216"
             width="720"
             y="0"
             x="0"
             id="use206"
             xlink:href="#c_7a2040fe3b94fcd41d0a72c84e93b115" />
          <use
             height="216"
             width="720"
             y="0"
             id="use208"
             x="63.623047"
             xlink:href="#c_ed3e21196fb739f392806f09ca0594ef" />
          <use
             height="216"
             width="720"
             y="0"
             id="use210"
             x="95.410156"
             xlink:href="#c_7a2040fe3b94fcd41d0a72c84e93b115" />
          <use
             height="216"
             width="720"
             y="0"
             id="use212"
             x="159.0332"
             xlink:href="#c_1260a2df50f305f3db244e29828f968e" />
        </g>
      </g>
      <g
         id="ytick3">
        <g
           id="line2d16">
          <g
             id="g216">
            <use
               height="216"
               width="720"
               id="use218"
               y="108"
               x="90"
               xlink:href="#m3400efa6b1638b3fea9e19e898273957"
               style="opacity:1;fill:none;stroke:#000000;stroke-width:0.5;stroke-linecap:butt;stroke-linejoin:miter" />
          </g>
        </g>
        <g
           id="line2d17">
          <g
             id="g221">
            <use
               height="216"
               width="720"
               id="use223"
               y="108"
               x="211.30435"
               xlink:href="#m20b58b2501143cb5e0a5e8f1ef6f1643"
               style="opacity:1;fill:none;stroke:#000000;stroke-width:0.5;stroke-linecap:butt;stroke-linejoin:miter" />
          </g>
        </g>
        <g
           id="g225"
           transform="matrix(0.12,0,0,0.12,60.859375,112.36719)"
           style="opacity:1;fill:#000000">
          <use
             height="216"
             width="720"
             y="0"
             x="0"
             id="use227"
             xlink:href="#c_7a2040fe3b94fcd41d0a72c84e93b115" />
          <use
             height="216"
             width="720"
             y="0"
             id="use229"
             x="63.623047"
             xlink:href="#c_ed3e21196fb739f392806f09ca0594ef" />
          <use
             height="216"
             width="720"
             y="0"
             id="use231"
             x="95.410156"
             xlink:href="#c_42baa63129a918535c52adb20d687ea7" />
          <use
             height="216"
             width="720"
             y="0"
             id="use233"
             x="159.0332"
             xlink:href="#c_7a2040fe3b94fcd41d0a72c84e93b115" />
        </g>
      </g>
      <g
         id="ytick4">
        <g
           id="line2d18">
          <g
             id="g237">
            <use
               height="216"
               width="720"
               id="use239"
               y="64.800003"
               x="90"
               xlink:href="#m3400efa6b1638b3fea9e19e898273957"
               style="opacity:1;fill:none;stroke:#000000;stroke-width:0.5;stroke-linecap:butt;stroke-linejoin:miter" />
          </g>
        </g>
        <g
           id="line2d19">
          <g
             id="g242">
            <use
               height="216"
               width="720"
               id="use244"
               y="64.800003"
               x="211.30435"
               xlink:href="#m20b58b2501143cb5e0a5e8f1ef6f1643"
               style="opacity:1;fill:none;stroke:#000000;stroke-width:0.5;stroke-linecap:butt;stroke-linejoin:miter" />
          </g>
        </g>
        <g
           id="g246"
           transform="matrix(0.12,0,0,0.12,61.109375,69.167187)"
           style="opacity:1;fill:#000000">
          <use
             height="216"
             width="720"
             y="0"
             x="0"
             id="use248"
             xlink:href="#c_7a2040fe3b94fcd41d0a72c84e93b115" />
          <use
             height="216"
             width="720"
             y="0"
             id="use250"
             x="63.623047"
             xlink:href="#c_ed3e21196fb739f392806f09ca0594ef" />
          <use
             height="216"
             width="720"
             y="0"
             id="use252"
             x="95.410156"
             xlink:href="#c_42baa63129a918535c52adb20d687ea7" />
          <use
             height="216"
             width="720"
             y="0"
             id="use254"
             x="159.0332"
             xlink:href="#c_1260a2df50f305f3db244e29828f968e" />
        </g>
      </g>
      <g
         id="ytick5">
        <g
           id="line2d20">
          <g
             id="g258">
            <use
               height="216"
               width="720"
               id="use260"
               y="21.6"
               x="90"
               xlink:href="#m3400efa6b1638b3fea9e19e898273957"
               style="opacity:1;fill:none;stroke:#000000;stroke-width:0.5;stroke-linecap:butt;stroke-linejoin:miter" />
          </g>
        </g>
        <g
           id="line2d21">
          <g
             id="g263">
            <use
               height="216"
               width="720"
               id="use265"
               y="21.6"
               x="211.30435"
               xlink:href="#m20b58b2501143cb5e0a5e8f1ef6f1643"
               style="opacity:1;fill:none;stroke:#000000;stroke-width:0.5;stroke-linecap:butt;stroke-linejoin:miter" />
          </g>
        </g>
        <g
           id="g267"
           transform="matrix(0.12,0,0,0.12,60.859375,25.967187)"
           style="opacity:1;fill:#000000">
          <use
             height="216"
             width="720"
             y="0"
             x="0"
             id="use269"
             xlink:href="#c_7a2040fe3b94fcd41d0a72c84e93b115" />
          <use
             height="216"
             width="720"
             y="0"
             id="use271"
             x="63.623047"
             xlink:href="#c_ed3e21196fb739f392806f09ca0594ef" />
          <use
             height="216"
             width="720"
             y="0"
             id="use273"
             x="95.410156"
             xlink:href="#c_ed3f3ed3ebfbd18bcb9c012009a68ad1" />
          <use
             height="216"
             width="720"
             y="0"
             id="use275"
             x="159.0332"
             xlink:href="#c_7a2040fe3b94fcd41d0a72c84e93b115" />
        </g>
      </g>
      <defs
         id="defs277">
        <path
           d="M 3.328125,-72.90625 L 13.28125,-72.90625 L 28.609375,-11.28125 L 43.890625,-72.90625 L 54.984375,-72.90625 L 70.3125,-11.28125 L 85.59375,-72.90625 L 95.609375,-72.90625 L 77.296875,0 L 64.890625,0 L 49.515625,-63.28125 L 33.984375,0 L 21.578125,0 L 3.328125,-72.90625 z"
           id="c_a61a29e824874b7d7ff806198f94f785" />
        <path
           d="M 31,-75.875 C 26.645833,-68.395833 23.40625,-60.989583 21.28125,-53.65625 C 19.166667,-46.333333 18.109375,-38.911458 18.109375,-31.390625 C 18.109375,-23.880208 19.177083,-16.4375 21.3125,-9.0625 C 23.447917,-1.6875 26.677083,5.7291667 31,13.1875 L 23.1875,13.1875 C 18.3125,5.53125 14.661458,-1.9895833 12.234375,-9.375 C 9.8072917,-16.760417 8.59375,-24.098958 8.59375,-31.390625 C 8.59375,-38.651042 9.796875,-45.958333 12.203125,-53.3125 C 14.619792,-60.677083 18.28125,-68.197917 23.1875,-75.875 L 31,-75.875 z"
           id="c_7efa9804c2b4c09a4b614b91fdebee3d" />
        <path
           d="M 8.015625,-75.875 L 15.828125,-75.875 C 20.703125,-68.197917 24.354167,-60.677083 26.78125,-53.3125 C 29.208333,-45.958333 30.421875,-38.651042 30.421875,-31.390625 C 30.421875,-24.098958 29.208333,-16.760417 26.78125,-9.375 C 24.354167,-1.9895833 20.703125,5.53125 15.828125,13.1875 L 8.015625,13.1875 C 12.338542,5.7291667 15.567708,-1.6875 17.703125,-9.0625 C 19.838542,-16.4375 20.90625,-23.880208 20.90625,-31.390625 C 20.90625,-38.911458 19.838542,-46.333333 17.703125,-53.65625 C 15.567708,-60.989583 12.338542,-68.395833 8.015625,-75.875"
           id="c_e96974be642f6eac0427d72f9cec6c19" />
      </defs>
      <g
         id="g282"
         transform="matrix(0,-0.12,0.12,0,55.859375,119.875)"
         style="opacity:1;fill:#000000">
        <use
           height="216"
           width="720"
           y="0"
           x="0"
           id="use284"
           xlink:href="#c_a61a29e824874b7d7ff806198f94f785" />
        <use
           height="216"
           width="720"
           y="0"
           id="use286"
           x="98.876953"
           xlink:href="#c_7efa9804c2b4c09a4b614b91fdebee3d" />
        <use
           height="216"
           width="720"
           y="0"
           id="use288"
           x="137.89062"
           xlink:href="#c_801fe2e877fad46da27c898b407b3b54" />
        <use
           height="216"
           width="720"
           y="0"
           id="use290"
           x="197.07031"
           xlink:href="#c_e96974be642f6eac0427d72f9cec6c19" />
      </g>
    </g>
    <path
       id="path292"
       d="M 90,194.4 L 211.30435,194.4 L 211.30435,21.6 L 90,21.6 L 90,194.4"
       style="opacity:1;fill:none;stroke:#000000;stroke-width:1;stroke-linecap:square;stroke-linejoin:miter" />
  </g>
</svg>
