<?xml version="1.0" encoding="UTF-8" standalone="no"?>
<!-- Created with Inkscape (http://www.inkscape.org/) -->
<svg
   xmlns:svg="http://www.w3.org/2000/svg"
   xmlns="http://www.w3.org/2000/svg"
   version="1.0"
   width="280.86035"
   height="176.51875"
   id="svg3210">
  <defs
     id="defs3212" />
  <g
     transform="translate(-148.14125,-309.81709)"
     id="layer1">
    <path
       d="M 159.2266,317.91709 L 159.3016,485.84209 M 159.2266,485.84209 L 160.6516,485.99209 M 159.2266,464.76709 L 160.6516,464.84209 M 159.2266,443.99209 L 160.6516,444.06709 M 159.2266,422.99209 L 160.6516,422.99209 M 159.2266,401.91709 L 160.6516,401.99209 M 159.2266,380.84209 L 160.6516,380.91709 M 159.2266,360.06709 L 160.6516,360.14209 M 159.2266,338.99209 L 160.6516,339.06709 M 159.2266,317.91709 L 160.6516,317.99209 M 159.2266,443.99209 L 422.2516,444.06709 M 159.2266,445.41709 L 159.3016,442.71709 M 183.1516,445.41709 L 183.2266,442.71709 M 207.0016,445.41709 L 207.0766,442.71709 M 230.9266,445.41709 L 231.0016,442.71709 M 254.8516,445.41709 L 254.9266,442.71709 M 278.6266,445.41709 L 278.7016,442.71709 M 302.9266,445.41709 L 303.0016,442.71709 M 326.7766,445.41709 L 326.8516,442.71709 M 350.6266,445.41709 L 350.7016,442.71709 M 374.5516,445.41709 L 374.6266,442.71709 M 398.4766,445.41709 L 398.5516,442.71709 M 422.2516,445.41709 L 422.3266,442.71709"
       id="path463"
       style="fill:none;stroke:#000000;stroke-width:0.6875;stroke-linecap:round;stroke-linejoin:round;stroke-miterlimit:10;stroke-dasharray:none;stroke-opacity:1" />
    <path
       d="M 159.2266,432.36709 L 158.92659,432.36709 L 158.92659,432.66708 L 159.2266,432.66708 L 159.2266,432.36709 z M 167.1766,416.99209 L 166.8016,416.99209 L 166.8016,417.29208 L 167.1766,417.29208 L 167.1766,416.99209 z M 175.2766,400.56709 L 174.97659,400.56709 L 174.97659,400.86708 L 175.2766,400.86708 L 175.2766,400.56709 z M 183.1516,384.44209 L 182.85159,384.44209 L 182.85159,384.81708 L 183.1516,384.81708 L 183.1516,384.44209 z M 190.9516,369.44209 L 190.65162,369.44209 L 190.65162,369.74216 L 190.9516,369.74216 L 190.9516,369.44209 z M 199.1266,356.39209 L 198.82659,356.39209 L 198.82659,356.69208 L 199.1266,356.69208 L 199.1266,356.39209 z M 207.0016,346.71709 L 206.6266,346.71709 L 206.6266,347.01708 L 207.0016,347.01708 L 207.0016,346.71709 z M 215.2516,340.34209 L 214.87662,340.34209 L 214.87662,340.64208 L 215.2516,340.64208 L 215.2516,340.34209 z"
       id="path465"
       style="fill:none;stroke:#ccffff;stroke-width:0.375;stroke-linecap:round;stroke-linejoin:miter;stroke-miterlimit:8;stroke-dasharray:none;stroke-opacity:1" />
    <path
       d="M 222.7516,339.06709 L 223.1266,339.06709 L 223.1266,338.69211 L 222.7516,338.69211 L 222.7516,339.06709 z"
       id="path467"
       style="fill:#00ff00;fill-opacity:1;fill-rule:nonzero;stroke:none" />
    <path
       d="M 223.1266,338.61709 L 222.7516,338.61709 L 222.7516,338.99208 L 223.1266,338.99208 L 223.1266,338.61709 z"
       id="path469"
       style="fill:none;stroke:#ffffcc;stroke-width:0.375;stroke-linecap:round;stroke-linejoin:miter;stroke-miterlimit:8;stroke-dasharray:none;stroke-opacity:1" />
    <path
       d="M 230.9266,341.01709 L 230.5516,341.01709 L 230.5516,341.31708 L 230.9266,341.31708 L 230.9266,341.01709 z"
       id="path471"
       style="fill:none;stroke:#ccffff;stroke-width:0.375;stroke-linecap:round;stroke-linejoin:miter;stroke-miterlimit:8;stroke-dasharray:none;stroke-opacity:1" />
    <path
       d="M 239.1016,346.71709 L 240.0766,347.69209 L 239.1016,348.74209 L 238.1266,347.69209 L 239.1016,346.71709"
       id="path473"
       style="fill:#ff00ff;fill-opacity:1;fill-rule:evenodd;stroke:none" />
    <path
       d="M 239.1016,346.71709 L 240.0766,347.69209 L 239.1016,348.74209 L 238.1266,347.69209 L 239.1016,346.71709 z"
       id="path475"
       style="fill:none;stroke:#00ff00;stroke-width:0.375;stroke-linecap:round;stroke-linejoin:round;stroke-miterlimit:10;stroke-dasharray:none;stroke-opacity:1" />
    <path
       d="M 241.5016,350.39209 L 241.12662,350.39209 L 241.12662,350.69208 L 241.5016,350.69208 L 241.5016,350.39209 z M 244.2016,354.06709 L 243.8266,354.06709 L 243.8266,354.36716 L 244.2016,354.36716 L 244.2016,354.06709 z M 246.9016,357.74209 L 246.60159,357.74209 L 246.60159,358.11716 L 246.9016,358.11716 L 246.9016,357.74209 z M 249.6766,361.71709 L 249.3016,361.71709 L 249.3016,362.09208 L 249.6766,362.09208 L 249.6766,361.71709 z M 252.3766,366.06709 L 252.0016,366.06709 L 252.0016,366.44208 L 252.3766,366.44208 L 252.3766,366.06709 z M 254.8516,370.86709 L 254.4766,370.86709 L 254.4766,371.09216 L 254.8516,371.09216 L 254.8516,370.86709 z M 262.9516,386.24209 L 262.65162,386.24209 L 262.65162,386.46708 L 262.9516,386.46708 L 262.9516,386.24209 z M 270.7516,402.59209 L 270.52659,402.59209 L 270.52659,402.89208 L 270.7516,402.89208 L 270.7516,402.59209 z M 278.6266,418.56709 L 278.32662,418.56709 L 278.32662,418.94208 L 278.6266,418.94208 L 278.6266,418.56709 z M 286.8766,433.64209 L 286.50162,433.64209 L 286.50162,434.01708 L 286.8766,434.01708 L 286.8766,433.64209 z M 294.7516,446.69209 L 294.3766,446.69209 L 294.3766,446.99208 L 294.7516,446.99208 L 294.7516,446.69209 z M 302.9266,456.36709 L 302.55162,456.36709 L 302.55162,456.74208 L 302.9266,456.74208 L 302.9266,456.36709 z M 310.8016,462.74209 L 310.42658,462.74209 L 310.42658,463.11708 L 310.8016,463.11708 L 310.8016,462.74209 z M 318.6016,464.39209 L 318.2266,464.39209 L 318.2266,464.76712 L 318.6016,464.76712 L 318.6016,464.39209 z M 326.7766,462.14209 L 326.47659,462.14209 L 326.47659,462.36708 L 326.7766,462.36708 L 326.7766,462.14209 z M 334.5766,455.76709 L 334.27662,455.76709 L 334.27662,455.99212 L 334.5766,455.99212 L 334.5766,455.76709 z M 337.3516,452.76709 L 336.9766,452.76709 L 336.9766,452.99208 L 337.3516,452.99208 L 337.3516,452.76709 z M 340.1266,449.01709 L 339.7516,449.01709 L 339.7516,449.39208 L 340.1266,449.39208 L 340.1266,449.01709 z M 342.4516,445.41709 L 342.15159,445.41709 L 342.15159,445.71708 L 342.4516,445.71708 L 342.4516,445.41709 z M 345.2266,441.36709 L 344.8516,441.36709 L 344.8516,441.66708 L 345.2266,441.66708 L 345.2266,441.36709 z M 348.0016,437.01709 L 347.6266,437.01709 L 347.6266,437.31712 L 348.0016,437.31712 L 348.0016,437.01709 z M 350.6266,432.36709 L 350.32662,432.36709 L 350.32662,432.66708 L 350.6266,432.66708 L 350.6266,432.36709 z M 358.5016,416.99209 L 358.1266,416.99209 L 358.1266,417.29208 L 358.5016,417.29208 L 358.5016,416.99209 z M 366.3766,400.56709 L 366.0016,400.56709 L 366.0016,400.86708 L 366.3766,400.86708 L 366.3766,400.56709 z M 374.5516,384.44209 L 374.17662,384.44209 L 374.17662,384.81708 L 374.5516,384.81708 L 374.5516,384.44209 z M 382.4266,369.44209 L 382.05158,369.44209 L 382.05158,369.74216 L 382.4266,369.74216 L 382.4266,369.44209 z M 390.6016,356.39209 L 390.22662,356.39209 L 390.22662,356.69208 L 390.6016,356.69208 L 390.6016,356.39209 z"
       id="path477"
       style="fill:none;stroke:#ccffff;stroke-width:0.375;stroke-linecap:round;stroke-linejoin:miter;stroke-miterlimit:8;stroke-dasharray:none;stroke-opacity:1" />
    <path
       d="M 159.2266,401.91709 L 390.6016,401.99209"
       id="path479"
       style="fill:none;stroke:#ff0000;stroke-width:1.0625;stroke-linecap:round;stroke-linejoin:round;stroke-miterlimit:10;stroke-dasharray:none;stroke-opacity:1" />
    <path
       d="M 159.2266,430.64209 C 165.39535,423.30584 169.6516,414.60584 173.5516,405.89209 C 176.77535,401.02209 177.9966,395.18209 181.0516,390.21709 C 183.3266,385.45834 185.57285,379.52084 188.2516,375.14209 C 190.32535,369.91209 192.90035,366.16834 195.3766,361.41709 C 197.37785,357.46459 200.3441,354.20084 202.5766,350.39209 C 204.6791,347.96084 207.3441,344.88084 209.7016,342.74209 C 211.89785,340.87709 214.40035,340.03334 216.9016,338.69209 C 223.5141,336.98084 225.87785,338.57959 231.6016,341.69209 C 233.4891,343.13959 237.5316,346.23084 238.7266,348.06709 C 241.40535,351.30709 243.69035,353.77084 245.9266,357.44209 C 248.63535,361.12959 251.11535,364.98459 253.0516,369.14209 C 255.8341,373.62334 257.95285,377.43459 260.2516,382.19209 C 263.21785,386.76584 264.9991,392.03459 267.7516,396.51709 C 269.9466,401.42084 272.5316,406.10334 274.8766,410.91709 C 277.0841,415.61209 279.5616,420.11709 282.0766,424.64209 L 283.4266,427.26709 L 284.7766,429.96709 L 286.5016,432.29209 L 287.8516,434.99209 L 289.2766,437.31709 C 293.4641,443.96584 298.07535,450.75209 303.6016,456.36709 C 308.12535,460.40709 311.99535,463.61334 318.2266,464.39209 L 319.6516,464.39209 L 321.0016,464.09209 L 322.6516,464.09209 L 324.0766,463.71709 L 325.4266,463.04209 C 327.9716,461.73084 330.68285,460.68209 332.5516,458.39209 C 335.7116,455.59584 337.4516,454.09209 339.7516,450.36709 C 343.06035,447.11834 344.32285,442.72709 347.2516,439.34209 C 349.93785,435.02584 351.76785,430.29584 354.4516,425.99209 C 356.6391,420.50459 359.1116,416.10209 361.5766,410.91709 C 363.57785,405.25709 366.60285,401.00209 368.7766,395.16709 C 370.7141,389.81959 373.50035,385.44084 375.9016,380.16709 C 377.8741,375.96334 380.73785,371.18084 383.1016,367.11709 C 385.6041,364.60584 387.4641,360.34084 390.6016,358.41709"
       id="path481"
       style="fill:none;stroke:#000000;stroke-width:1.0625;stroke-linecap:round;stroke-linejoin:round;stroke-miterlimit:10;stroke-dasharray:none;stroke-opacity:1" />
    <text
       x="403.9516"
       y="456.14172"
       id="text483"
       style="font-size:15px">
      <tspan
         x="403.9516"
         y="456.14172"
         id="tspan485"
         style="font-size:15px;font-variant:normal;font-weight:normal;font-stretch:normal;writing-mode:lr-tb;fill:#000000;fill-opacity:1;fill-rule:nonzero;stroke:none;font-family:Times New Roman;-inkscape-font-specification:TimesNewRomanPSMT">t</tspan>
    </text>
    <path
       d="M 158.7766,317.76709 L 158.7766,316.11709 L 158.9266,315.74209 L 159.2266,315.59209 L 159.6016,315.74209 L 159.7516,316.11709 L 159.6766,317.76709 L 159.5266,318.14209 L 159.2266,318.21709 L 158.8516,318.14209 L 158.7766,317.76709 z M 156.7516,317.31709 L 159.3766,309.81709 L 161.7016,317.39209"
       id="path487"
       style="fill:#000000;fill-opacity:1;fill-rule:nonzero;stroke:none" />
    <path
       d="M 421.5766,441.44209 L 429.0016,443.99209 L 421.5016,446.46709"
       id="path489"
       style="fill:#000000;fill-opacity:1;fill-rule:nonzero;stroke:none" />
    <path
       d="M 221.1766,344.09209 L 221.9266,394.34209 L 221.7766,394.64209 L 221.4766,394.79209 L 221.1016,394.71709 L 220.9516,394.34209 L 220.2016,344.09209 L 220.3516,343.79209 L 220.6516,343.64209 L 221.0266,343.71709 L 221.1766,344.09209 z M 218.1766,345.36709 L 220.5766,337.86709 L 223.2016,345.29209 L 218.1766,345.36709 z M 223.9516,393.06709 L 221.5516,400.56709 L 218.9266,393.14209"
       id="path491"
       style="fill:#000000;fill-opacity:1;fill-rule:nonzero;stroke:none" />
    <path
       d="M 384.7516,408.44209 L 384.8266,439.49209 L 384.6766,439.79209 L 384.3766,439.94209 L 384.0016,439.79209 L 383.8516,439.49209 L 383.8516,408.44209 L 383.9266,408.14209 L 384.3016,407.99209 L 384.6016,408.14209 L 384.7516,408.44209 z M 381.8266,409.71709 L 384.3016,402.21709 L 386.7766,409.71709 L 381.8266,409.71709 z M 386.8516,438.21709 L 384.3766,445.71709 L 381.8266,438.21709"
       id="path493"
       style="fill:#000000;fill-opacity:1;fill-rule:nonzero;stroke:none" />
    <path
       d="M 319.0516,407.46709 L 319.5016,457.64209 L 319.3516,458.01709 L 319.0516,458.09209 L 318.7516,458.01709 L 318.6016,457.64209 L 318.1516,407.46709 L 318.2266,407.16709 L 318.6016,407.01709 L 318.9016,407.09209 L 319.0516,407.46709 z M 316.1266,408.74209 L 318.5266,401.24209 L 321.0766,408.66709 L 316.1266,408.74209 z M 321.5266,456.36709 L 319.1266,463.86709 L 316.5016,456.44209"
       id="path495"
       style="fill:#000000;fill-opacity:1;fill-rule:nonzero;stroke:none" />
    <path
       d="M 389.7016,435.44209 L 416.4016,435.44209 L 416.4016,414.06709 L 389.7016,414.06709 L 389.7016,435.44209 z"
       id="path497"
       style="fill:#ffffff;fill-opacity:1;fill-rule:nonzero;stroke:none" />
    <text
       x="389.62662"
       y="428.09171"
       id="text499"
       style="font-size:15px">
      <tspan
         x="389.62662"
         y="428.09171"
         id="tspan501"
         style="font-size:15px;font-variant:normal;font-weight:normal;font-stretch:normal;writing-mode:lr-tb;fill:#000000;fill-opacity:1;fill-rule:nonzero;stroke:none;font-family:Times New Roman;-inkscape-font-specification:TimesNewRomanPSMT">U</tspan>
    </text>
    <text
       x="400.42661"
       y="429.96671"
       id="text503"
       style="font-size:15px">
      <tspan
         x="400.42661 407.62457 410.99911"
         y="429.96671"
         id="tspan505"
         style="font-size:9.97500038px;font-variant:normal;font-weight:normal;font-stretch:normal;writing-mode:lr-tb;fill:#000000;fill-opacity:1;fill-rule:nonzero;stroke:none;font-family:Times New Roman;-inkscape-font-specification:TimesNewRomanPSMT">Off</tspan>
    </text>
    <text
       x="222.8266"
       y="375.96671"
       id="text507"
       style="font-size:15px">
      <tspan
         x="222.8266"
         y="375.96671"
         id="tspan509"
         style="font-size:15px;font-variant:normal;font-weight:normal;font-stretch:normal;writing-mode:lr-tb;fill:#000000;fill-opacity:1;fill-rule:nonzero;stroke:none;font-family:Times New Roman;-inkscape-font-specification:TimesNewRomanPSMT">U</tspan>
    </text>
    <text
       x="233.7016"
       y="377.84171"
       id="text511"
       style="font-size:15px">
      <tspan
         x="233.7016 241.35342"
         y="377.84171"
         id="tspan513"
         style="font-size:9.97500038px;font-variant:normal;font-weight:normal;font-stretch:normal;writing-mode:lr-tb;fill:#000000;fill-opacity:1;fill-rule:nonzero;stroke:none;font-family:Times New Roman;-inkscape-font-specification:TimesNewRomanPSMT">m</tspan>
    </text>
    <text
       x="322.12662"
       y="427.41672"
       id="text515"
       style="font-size:15px">
      <tspan
         x="322.12662 327.15161"
         y="427.41672"
         id="tspan517"
         style="font-size:15px;font-variant:normal;font-weight:normal;font-stretch:normal;writing-mode:lr-tb;fill:#000000;fill-opacity:1;fill-rule:nonzero;stroke:none;font-family:Times New Roman;-inkscape-font-specification:TimesNewRomanPSMT">-U</tspan>
    </text>
    <text
       x="338.02661"
       y="429.29172"
       id="text519"
       style="font-size:15px">
      <tspan
         x="338.02661 345.67844"
         y="429.29172"
         id="tspan521"
         style="font-size:9.97500038px;font-variant:normal;font-weight:normal;font-stretch:normal;writing-mode:lr-tb;fill:#000000;fill-opacity:1;fill-rule:nonzero;stroke:none;font-family:Times New Roman;-inkscape-font-specification:TimesNewRomanPSMT">m</tspan>
    </text>
    <text
       x="148.1266"
       y="327.14172"
       id="text523"
       style="font-size:15px">
      <tspan
         x="148.1266 155.6266"
         y="327.14172"
         id="tspan525"
         style="font-size:15px;font-variant:normal;font-weight:normal;font-stretch:normal;writing-mode:lr-tb;fill:#000000;fill-opacity:1;fill-rule:nonzero;stroke:none;font-family:Times New Roman;-inkscape-font-specification:TimesNewRomanPSMT">u</tspan>
    </text>
  </g>
</svg>
