<?xml version="1.0" encoding="UTF-8" standalone="no"?>
<!-- Created with Inkscape (http://www.inkscape.org/) -->
<svg
   xmlns:dc="http://purl.org/dc/elements/1.1/"
   xmlns:cc="http://creativecommons.org/ns#"
   xmlns:rdf="http://www.w3.org/1999/02/22-rdf-syntax-ns#"
   xmlns:svg="http://www.w3.org/2000/svg"
   xmlns="http://www.w3.org/2000/svg"
   xmlns:sodipodi="http://sodipodi.sourceforge.net/DTD/sodipodi-0.dtd"
   xmlns:inkscape="http://www.inkscape.org/namespaces/inkscape"
   width="343.5"
   height="234.99374"
   id="svg2580"
   sodipodi:version="0.32"
   inkscape:version="0.46"
   version="1.0"
   sodipodi:docname="GP1-OM-RealerImpuls.svg"
   inkscape:output_extension="org.inkscape.output.svg.inkscape">
  <defs
     id="defs2582">
    <inkscape:perspective
       sodipodi:type="inkscape:persp3d"
       inkscape:vp_x="0 : 526.18109 : 1"
       inkscape:vp_y="0 : 1000 : 0"
       inkscape:vp_z="744.09448 : 526.18109 : 1"
       inkscape:persp3d-origin="372.04724 : 350.78739 : 1"
       id="perspective2588" />
  </defs>
  <sodipodi:namedview
     id="base"
     pagecolor="#ffffff"
     bordercolor="#666666"
     borderopacity="1.0"
     gridtolerance="10000"
     guidetolerance="10"
     objecttolerance="10"
     inkscape:pageopacity="0.0"
     inkscape:pageshadow="2"
     inkscape:zoom="0.35"
     inkscape:cx="375"
     inkscape:cy="520"
     inkscape:document-units="px"
     inkscape:current-layer="layer1"
     showgrid="false"
     inkscape:window-width="640"
     inkscape:window-height="672"
     inkscape:window-x="1280"
     inkscape:window-y="0" />
  <metadata
     id="metadata2585">
    <rdf:RDF>
      <cc:Work
         rdf:about="">
        <dc:format>image/svg+xml</dc:format>
        <dc:type
           rdf:resource="http://purl.org/dc/dcmitype/StillImage" />
      </cc:Work>
    </rdf:RDF>
  </metadata>
  <g
     inkscape:label="Layer 1"
     inkscape:groupmode="layer"
     id="layer1"
     transform="translate(-128.25,-109.15102)">
    <path
       d="M 396.525,224.65102 L 452.475,224.65102 L 452.475,193.15102 L 396.525,193.15102 L 396.525,224.65102 z"
       style="fill:#ffffff;fill-opacity:1;fill-rule:nonzero;stroke:none"
       id="path107" />
    <text
       id="text109"
       x="405.52499"
       y="211.75064"
       style="font-size:15px">
      <tspan
         style="font-size:15px;font-variant:normal;font-weight:normal;font-stretch:normal;writing-mode:lr-tb;fill:#000000;fill-opacity:1;fill-rule:nonzero;stroke:none;font-family:Times New Roman;-inkscape-font-specification:TimesNewRomanPSMT"
         x="405.52499 416.3385 423.82199"
         y="211.75064"
         sodipodi:role="line"
         id="tspan111">Uo</tspan>
    </text>
    <path
       d="M 158.475,140.65102 L 195.225,140.65102 L 195.225,109.15102 L 158.475,109.15102 L 158.475,140.65102 z"
       style="fill:#ffffff;fill-opacity:1;fill-rule:nonzero;stroke:none"
       id="path113" />
    <text
       id="text115"
       x="167.47501"
       y="127.75065"
       style="font-size:15px">
      <tspan
         style="font-size:15px;font-variant:normal;font-weight:normal;font-stretch:normal;writing-mode:lr-tb;fill:#000000;fill-opacity:1;fill-rule:nonzero;stroke:none;font-family:Times New Roman;-inkscape-font-specification:TimesNewRomanPSMT"
         x="167.47501"
         y="127.75065"
         id="tspan117">U</tspan>
    </text>
    <text
       id="text119"
       x="178.27499"
       y="129.62566"
       style="font-size:15px">
      <tspan
         style="font-size:9.97500038px;font-variant:normal;font-weight:normal;font-stretch:normal;writing-mode:lr-tb;fill:#000000;fill-opacity:1;fill-rule:nonzero;stroke:none;font-family:Times New Roman;-inkscape-font-specification:TimesNewRomanPSMT"
         x="178.27499"
         y="129.62566"
         id="tspan121">ü</tspan>
    </text>
    <path
       d="M 179.475,224.65102 L 221.475,224.65102 L 221.475,200.20102 L 179.475,200.20102 L 179.475,224.65102 z"
       style="fill:#ffffff;fill-opacity:1;fill-rule:nonzero;stroke:none"
       id="path123" />
    <text
       id="text125"
       x="188.47501"
       y="214.00064"
       style="font-size:15px">
      <tspan
         style="font-size:9.97500038px;font-variant:normal;font-weight:normal;font-stretch:normal;writing-mode:lr-tb;fill:#000000;fill-opacity:1;fill-rule:nonzero;stroke:none;font-family:Times New Roman;-inkscape-font-specification:TimesNewRomanPSMT"
         x="188.47501 193.49342 198.51184 206.85194"
         y="214.00064"
         sodipodi:role="line"
         id="tspan127">50%</tspan>
    </text>
    <path
       d="M 184.725,172.15102 L 233.775,172.15102 L 233.775,144.17602 L 184.725,144.17602 L 184.725,172.15102 z"
       style="fill:#ffffff;fill-opacity:1;fill-rule:nonzero;stroke:none"
       id="path129" />
    <text
       id="text131"
       x="193.72501"
       y="157.97565"
       style="font-size:15px">
      <tspan
         style="font-size:9.97500038px;font-variant:normal;font-weight:normal;font-stretch:normal;writing-mode:lr-tb;fill:#000000;fill-opacity:1;fill-rule:nonzero;stroke:none;font-family:Times New Roman;-inkscape-font-specification:TimesNewRomanPSMT"
         x="193.72501 198.74342 203.76184 212.10194"
         y="157.97565"
         sodipodi:role="line"
         id="tspan133">90%</tspan>
    </text>
    <path
       d="M 441.975,315.70102 L 471.75,315.70102 L 471.75,284.20102 L 441.975,284.20102 L 441.975,315.70102 z"
       style="fill:#ffffff;fill-opacity:1;fill-rule:nonzero;stroke:none"
       id="path135" />
    <text
       id="text137"
       x="450.97501"
       y="305.35065"
       style="font-size:15px">
      <tspan
         style="font-size:17.47499847px;font-variant:normal;font-weight:bold;font-stretch:normal;writing-mode:lr-tb;fill:#000000;fill-opacity:1;fill-rule:nonzero;stroke:none;font-family:Times New Roman;-inkscape-font-specification:TimesNewRomanPS-BoldMT"
         x="450.97501 456.82562"
         y="305.35065"
         sodipodi:role="line"
         id="tspan139">t</tspan>
    </text>
    <path
       d="M 202.275,336.70102 L 231.975,336.70102 L 231.975,305.20102 L 202.275,305.20102 L 202.275,336.70102 z"
       style="fill:#ffffff;fill-opacity:1;fill-rule:nonzero;stroke:none"
       id="path141" />
    <text
       id="text143"
       x="211.27499"
       y="323.72565"
       style="font-size:15px">
      <tspan
         style="font-size:15px;font-variant:normal;font-weight:normal;font-stretch:normal;writing-mode:lr-tb;fill:#000000;fill-opacity:1;fill-rule:nonzero;stroke:none;font-family:Times New Roman;-inkscape-font-specification:TimesNewRomanPSMT"
         x="211.27499"
         y="323.72565"
         id="tspan145">t</tspan>
    </text>
    <text
       id="text147"
       x="215.47501"
       y="325.60065"
       style="font-size:15px">
      <tspan
         style="font-size:9.97500038px;font-variant:normal;font-weight:normal;font-stretch:normal;writing-mode:lr-tb;fill:#000000;fill-opacity:1;fill-rule:nonzero;stroke:none;font-family:Times New Roman;-inkscape-font-specification:TimesNewRomanPSMT"
         x="215.47501"
         y="325.60065"
         id="tspan149">r</tspan>
    </text>
    <path
       d="M 270.525,219.40102 L 300.225,219.40102 L 300.225,187.90102 L 270.525,187.90102 L 270.525,219.40102 z"
       style="fill:#ffffff;fill-opacity:1;fill-rule:nonzero;stroke:none"
       id="path151" />
    <text
       id="text153"
       x="279.45001"
       y="206.50064"
       style="font-size:15px">
      <tspan
         style="font-size:15px;font-variant:normal;font-weight:normal;font-stretch:normal;writing-mode:lr-tb;fill:#000000;fill-opacity:1;fill-rule:nonzero;stroke:none;font-family:Times New Roman;-inkscape-font-specification:TimesNewRomanPSMT"
         x="279.45001"
         y="206.50064"
         id="tspan155">t</tspan>
    </text>
    <text
       id="text157"
       x="283.64999"
       y="208.37564"
       style="font-size:15px">
      <tspan
         style="font-size:9.97500038px;font-variant:normal;font-weight:normal;font-stretch:normal;writing-mode:lr-tb;fill:#000000;fill-opacity:1;fill-rule:nonzero;stroke:none;font-family:Times New Roman;-inkscape-font-specification:TimesNewRomanPSMT"
         x="283.64999"
         y="208.37564"
         id="tspan159">I</tspan>
    </text>
    <path
       d="M 335.25,141.47602 C 336.9,140.65102 338.625,139.82602 342,151.60102 C 345.375,163.45102 351,190.37602 355.5,212.35102 C 360,234.25102 365.625,269.65102 369,283.15102 C 372.375,296.65102 373.5,293.27602 375.75,293.27602 C 378,293.27602 380.25,284.87602 382.5,283.15102 C 384.75,281.50102 385.875,281.50102 389.25,283.15102 C 392.625,284.87602 398.25,293.27602 402.75,293.27602 C 407.25,293.27602 410.625,284.87602 416.25,283.15102 C 421.875,281.50102 429.15,282.32602 436.5,283.15102"
       style="fill:none;stroke:#000000;stroke-width:2.8125;stroke-linecap:butt;stroke-linejoin:round;stroke-miterlimit:10;stroke-dasharray:none;stroke-opacity:1"
       id="path161" />
    <path
       d="M 128.7,285.47602 L 463.725,285.47602 L 464.1,285.62602 L 464.175,285.92602 L 464.1,286.22602 L 463.725,286.37602 L 128.7,286.37602 L 128.4,286.22602 L 128.25,285.92602 L 128.4,285.62602 L 128.7,285.47602 z M 462.45,282.17602 L 469.95,285.92602 L 462.45,289.67602"
       style="fill:#000000;fill-opacity:1;fill-rule:nonzero;stroke:none"
       id="path163" />
    <path
       d="M 220.725,217.30102 L 350.025,217.52602 L 350.325,217.67602 L 350.475,217.97602 L 350.325,218.27602 L 349.95,218.42602 L 220.725,218.20102 L 220.425,218.05102 L 220.275,217.75102 L 220.425,217.45102 L 220.725,217.30102 z M 222,221.50102 L 214.5,217.75102 L 222,214.00102 L 222,221.50102 z M 348.75,214.22602 L 356.25,217.97602 L 348.75,221.72602"
       style="fill:#000000;fill-opacity:1;fill-rule:nonzero;stroke:none"
       id="path165" />
    <path
       d="M 209.25,264.92602 L 209.25,334.90102 M 223.2,149.42602 L 223.2,336.70102"
       style="fill:none;stroke:#000000;stroke-width:0.9375;stroke-linecap:round;stroke-linejoin:round;stroke-miterlimit:10;stroke-dasharray:none;stroke-opacity:1"
       id="path167" />
    <path
       d="M 181.2,327.47602 L 202.95,327.47602 L 203.325,327.62602 L 203.475,327.92602 L 203.325,328.22602 L 202.95,328.37602 L 181.2,328.37602 L 180.9,328.22602 L 180.75,327.92602 L 180.9,327.62602 L 181.2,327.47602 z M 201.75,324.17602 L 209.25,327.92602 L 201.75,331.67602"
       style="fill:#000000;fill-opacity:1;fill-rule:nonzero;stroke:none"
       id="path169" />
    <path
       d="M 246,328.37602 L 227.7,328.37602 L 227.4,328.22602 L 227.25,327.92602 L 227.4,327.62602 L 227.7,327.47602 L 246,327.47602 L 246.3,327.62602 L 246.45,327.92602 L 246.3,328.22602 L 246,328.37602 z M 228.975,331.67602 L 221.475,327.92602 L 228.975,324.17602"
       style="fill:#000000;fill-opacity:1;fill-rule:nonzero;stroke:none"
       id="path171" />
    <path
       d="M 209.25,327.92602 L 223.2,327.92602"
       style="fill:none;stroke:#000000;stroke-width:0.9375;stroke-linecap:round;stroke-linejoin:round;stroke-miterlimit:10;stroke-dasharray:none;stroke-opacity:1"
       id="path173" />
    <path
       d="M 342.225,336.70102 L 372,336.70102 L 372,305.20102 L 342.225,305.20102 L 342.225,336.70102 z"
       style="fill:#ffffff;fill-opacity:1;fill-rule:nonzero;stroke:none"
       id="path175" />
    <text
       id="text177"
       x="351.22501"
       y="323.72565"
       style="font-size:15px">
      <tspan
         style="font-size:15px;font-variant:normal;font-weight:normal;font-stretch:normal;writing-mode:lr-tb;fill:#000000;fill-opacity:1;fill-rule:nonzero;stroke:none;font-family:Times New Roman;-inkscape-font-specification:TimesNewRomanPSMT"
         x="351.22501"
         y="323.72565"
         id="tspan179">t</tspan>
    </text>
    <text
       id="text181"
       x="355.42499"
       y="325.60065"
       style="font-size:15px">
      <tspan
         style="font-size:9.97500038px;font-variant:normal;font-weight:normal;font-stretch:normal;writing-mode:lr-tb;fill:#000000;fill-opacity:1;fill-rule:nonzero;stroke:none;font-family:Times New Roman;-inkscape-font-specification:TimesNewRomanPSMT"
         x="355.42499"
         y="325.60065"
         id="tspan183">f</tspan>
    </text>
    <path
       d="M 343.95,156.40102 L 343.95,343.67602 M 366.75,270.17602 L 366.75,340.15102"
       style="fill:none;stroke:#000000;stroke-width:0.9375;stroke-linecap:round;stroke-linejoin:round;stroke-miterlimit:10;stroke-dasharray:none;stroke-opacity:1"
       id="path185" />
    <path
       d="M 315.975,327.47602 L 337.725,327.47602 L 338.1,327.62602 L 338.175,327.92602 L 338.1,328.22602 L 337.725,328.37602 L 315.975,328.37602 L 315.675,328.22602 L 315.525,327.92602 L 315.675,327.62602 L 315.975,327.47602 z M 336.45,324.17602 L 343.95,327.92602 L 336.45,331.67602"
       style="fill:#000000;fill-opacity:1;fill-rule:nonzero;stroke:none"
       id="path187" />
    <path
       d="M 391.2,328.37602 L 372.975,328.37602 L 372.675,328.22602 L 372.525,327.92602 L 372.675,327.62602 L 372.975,327.47602 L 391.2,327.47602 L 391.575,327.62602 L 391.725,327.92602 L 391.575,328.22602 L 391.2,328.37602 z M 374.25,331.67602 L 366.75,327.92602 L 374.25,324.17602"
       style="fill:#000000;fill-opacity:1;fill-rule:nonzero;stroke:none"
       id="path189" />
    <path
       d="M 343.95,327.92602 L 366.75,327.92602"
       style="fill:none;stroke:#000000;stroke-width:0.9375;stroke-linecap:round;stroke-linejoin:round;stroke-miterlimit:10;stroke-dasharray:none;stroke-opacity:1"
       id="path191" />
    <path
       d="M 170.775,259.67602 L 216.225,259.67602 L 216.225,235.15102 L 170.775,235.15102 L 170.775,259.67602 z"
       style="fill:#ffffff;fill-opacity:1;fill-rule:nonzero;stroke:none"
       id="path193" />
    <text
       id="text195"
       x="179.7"
       y="248.95065"
       style="font-size:15px">
      <tspan
         style="font-size:9.97500038px;font-variant:normal;font-weight:normal;font-stretch:normal;writing-mode:lr-tb;fill:#000000;fill-opacity:1;fill-rule:nonzero;stroke:none;font-family:Times New Roman;-inkscape-font-specification:TimesNewRomanPSMT"
         x="179.7 184.71843 189.73685 198.07695"
         y="248.95065"
         sodipodi:role="line"
         id="tspan197">10%</tspan>
    </text>
    <path
       d="M 186.45,217.67602 L 214.5,217.67602 M 198.75,252.70102 L 207.45,268.45102 M 193.5,161.65102 L 221.475,161.65102 M 181.2,252.70102 L 198.75,252.70102"
       style="fill:none;stroke:#000000;stroke-width:0.9375;stroke-linecap:round;stroke-linejoin:round;stroke-miterlimit:10;stroke-dasharray:none;stroke-opacity:1"
       id="path199" />
    <path
       d="M 158.475,286.90102 C 161.4,287.87602 164.325,288.77602 167.25,286.90102 C 170.175,285.02602 173.1,273.77602 176.025,275.65102 C 178.95,277.52602 181.875,300.02602 184.8,298.15102 C 187.725,296.27602 190.65,262.52602 193.575,264.40102 C 196.5,266.27602 196.5,333.77602 202.425,309.40102 C 208.275,285.02602 222.9,144.40102 228.75,118.15102 C 234.6,91.901022 234.6,151.90102 237.525,151.90102 C 240.45,151.90102 243.375,120.02602 246.3,118.15102 C 249.225,116.27602 252.15,138.77602 255.075,140.65102 C 258,142.52602 260.925,129.40102 263.85,129.40102 C 266.775,129.40102 269.7,138.77602 272.625,140.65102 C 275.55,142.52602 278.475,140.65102 281.4,140.65102 C 284.325,140.65102 287.25,140.65102 290.175,140.65102 C 293.1,140.65102 291.675,140.65102 298.95,140.65102 C 306.3,140.65102 329.7,140.65102 334.125,140.65102 C 338.475,140.65102 322.425,142.52602 325.35,140.65102"
       style="fill:none;stroke:#000000;stroke-width:2.8125;stroke-linecap:butt;stroke-linejoin:round;stroke-miterlimit:10;stroke-dasharray:none;stroke-opacity:1"
       id="path201" />
    <path
       d="M 175.95,140.50102 L 427.95,140.50102 M 174.225,110.95102 L 230.25,110.95102"
       style="fill:none;stroke:#000000;stroke-width:0.9375;stroke-linecap:round;stroke-linejoin:round;stroke-miterlimit:10;stroke-dasharray:none;stroke-opacity:1"
       id="path203" />
    <path
       d="M 188.7,117.17602 L 188.7,134.42602 L 188.55,134.72602 L 188.25,134.87602 L 187.875,134.72602 L 187.8,134.42602 L 187.8,117.17602 L 187.875,116.87602 L 188.25,116.72602 L 188.55,116.87602 L 188.7,117.17602 z M 184.5,118.45102 L 188.25,110.95102 L 192,118.45102 L 184.5,118.45102 z M 192,133.15102 L 188.25,140.65102 L 184.5,133.15102"
       style="fill:#000000;fill-opacity:1;fill-rule:nonzero;stroke:none"
       id="path205" />
    <path
       d="M 402.225,146.95102 L 402.225,279.70102 L 402.075,280.00102 L 401.7,280.15102 L 401.4,280.00102 L 401.25,279.70102 L 401.25,146.95102 L 401.4,146.57602 L 401.7,146.42602 L 402.075,146.57602 L 402.225,146.95102 z M 397.95,148.15102 L 401.7,140.65102 L 405.45,148.15102 L 397.95,148.15102 z M 405.45,278.42602 L 401.7,285.92602 L 397.95,278.42602"
       style="fill:#000000;fill-opacity:1;fill-rule:nonzero;stroke:none"
       id="path207" />
  </g>
</svg>
