<?xml version="1.0" encoding="UTF-8" standalone="no"?>
<!-- Created with Inkscape (http://www.inkscape.org/) -->
<svg
   xmlns:dc="http://purl.org/dc/elements/1.1/"
   xmlns:cc="http://creativecommons.org/ns#"
   xmlns:rdf="http://www.w3.org/1999/02/22-rdf-syntax-ns#"
   xmlns:svg="http://www.w3.org/2000/svg"
   xmlns="http://www.w3.org/2000/svg"
   xmlns:sodipodi="http://sodipodi.sourceforge.net/DTD/sodipodi-0.dtd"
   xmlns:inkscape="http://www.inkscape.org/namespaces/inkscape"
   width="495.51035"
   height="141.14999"
   id="svg4974"
   sodipodi:version="0.32"
   inkscape:version="0.46"
   version="1.0"
   sodipodi:docname="GP1-OM-RandomImpulse.svg"
   inkscape:output_extension="org.inkscape.output.svg.inkscape">
  <defs
     id="defs4976">
    <clipPath
       clipPathUnits="userSpaceOnUse"
       id="clipPath1627">
      <path
         d="M 446.28,99.32 L 449.64,99.32 L 449.64,110.18 L 446.28,110.18 L 446.28,99.32 z"
         id="path1629" />
    </clipPath>
    <clipPath
       clipPathUnits="userSpaceOnUse"
       id="clipPath1639">
      <path
         d="M 66.12,188.36 L 71.64,188.36 L 71.64,199.22 L 66.12,199.22 L 66.12,188.36 z"
         id="path1641" />
    </clipPath>
    <inkscape:perspective
       sodipodi:type="inkscape:persp3d"
       inkscape:vp_x="0 : 526.18109 : 1"
       inkscape:vp_y="0 : 1000 : 0"
       inkscape:vp_z="744.09448 : 526.18109 : 1"
       inkscape:persp3d-origin="372.04724 : 350.78739 : 1"
       id="perspective4982" />
  </defs>
  <sodipodi:namedview
     id="base"
     pagecolor="#ffffff"
     bordercolor="#666666"
     borderopacity="1.0"
     gridtolerance="10000"
     guidetolerance="10"
     objecttolerance="10"
     inkscape:pageopacity="0.0"
     inkscape:pageshadow="2"
     inkscape:zoom="0.35"
     inkscape:cx="375"
     inkscape:cy="520"
     inkscape:document-units="px"
     inkscape:current-layer="layer1"
     showgrid="false"
     inkscape:window-width="640"
     inkscape:window-height="672"
     inkscape:window-x="1280"
     inkscape:window-y="0" />
  <metadata
     id="metadata4979">
    <rdf:RDF>
      <cc:Work
         rdf:about="">
        <dc:format>image/svg+xml</dc:format>
        <dc:type
           rdf:resource="http://purl.org/dc/dcmitype/StillImage" />
      </cc:Work>
    </rdf:RDF>
  </metadata>
  <g
     inkscape:label="Layer 1"
     inkscape:groupmode="layer"
     id="layer1"
     transform="translate(-197.95911,-430.35861)">
    <path
       d="M 211.59446,548.10861 L 687.24446,548.18361 L 687.54446,548.33361 L 687.69446,548.63361 L 687.54446,549.00861 L 687.24446,549.08361 L 211.59446,549.08361 L 211.29446,548.93361 L 211.14446,548.55861 L 211.29446,548.25861 L 211.59446,548.10861 z M 685.96946,546.15861 L 693.46946,548.63361 L 685.96946,551.10861"
       style="fill:#000000;fill-opacity:1;fill-rule:nonzero;stroke:none"
       id="path1617" />
    <path
       d="M 211.44446,571.05861 L 211.21946,436.58361 L 211.36946,436.28361 L 211.66946,436.13361 L 212.04446,436.28361 L 212.11946,436.58361 L 212.41946,570.98361 L 212.26946,571.35861 L 211.89446,571.50861 L 211.59446,571.35861 L 211.44446,571.05861 z M 209.19446,437.85861 L 211.66946,430.35861 L 214.21946,437.85861"
       style="fill:#000000;fill-opacity:1;fill-rule:nonzero;stroke:none"
       id="path1619" />
    <path
       d="M 224.79446,548.55861 L 224.79446,472.05861 M 231.31946,472.05861 L 224.79446,472.13361 M 231.31946,472.05861 L 231.31946,548.55861 M 237.84446,548.10861 L 237.91946,472.05861 M 244.44446,472.05861 L 244.51946,548.55861 M 297.09446,548.03361 L 297.24446,472.05861 M 297.01946,472.05861 L 310.21946,472.13361 M 310.21946,472.05861 L 310.29446,548.03361 M 244.44446,472.05861 L 237.84446,472.13361 M 251.11946,548.55861 L 251.04446,472.05861 M 257.56946,472.05861 L 251.04446,472.13361 M 257.64446,472.05861 L 257.64446,548.55861 M 264.24446,548.55861 L 264.16946,472.05861 M 270.69446,472.05861 L 264.16946,472.13361 M 270.76946,472.05861 L 270.84446,548.55861 M 316.81946,548.55861 L 316.81946,472.05861 M 323.34446,472.05861 L 316.81946,472.13361 M 323.41946,472.05861 L 323.49446,548.55861 M 330.01946,548.55861 L 329.94446,472.05861 M 336.54446,472.05861 L 329.94446,472.13361 M 336.61946,472.05861 L 336.69446,548.55861 M 349.81946,548.03361 L 349.89446,472.05861 M 349.74446,472.05861 L 362.94446,472.13361 M 362.94446,472.05861 L 362.94446,548.03361 M 369.46946,548.55861 L 369.39446,472.05861 M 375.99446,472.05861 L 369.39446,472.13361 M 376.06946,471.83361 L 376.06946,548.33361 M 382.66946,548.55861 L 382.59446,472.05861 M 389.19446,472.05861 L 382.59446,472.13361 M 389.19446,472.05861 L 389.26946,548.55861 M 395.79446,548.55861 L 395.71946,472.05861 M 402.31946,472.05861 L 395.71946,472.13361 M 402.31946,472.05861 L 402.39446,548.55861 M 408.99446,548.55861 L 408.91946,472.05861 M 415.44446,472.05861 L 408.91946,472.13361 M 415.51946,472.05861 L 415.59446,548.55861 M 468.24446,548.03361 L 468.31946,472.05861 M 468.16946,472.05861 L 481.29446,472.13361 M 481.29446,472.05861 L 481.29446,548.03361 M 499.29446,548.78361 L 501.16946,492.08361 M 502.44446,548.33361 L 501.31946,492.23361 M 520.14446,548.55861 L 520.29446,472.65861 M 520.06946,472.65861 L 533.26946,472.73361 M 533.26946,472.65861 L 533.34446,548.55861 M 540.54446,548.03361 L 540.69446,472.05861 M 540.46946,472.05861 L 553.66946,472.13361 M 553.66946,472.05861 L 553.74446,548.03361 M 580.06946,548.03361 L 580.06946,472.05861 M 579.99446,472.05861 L 593.11946,472.13361 M 593.11946,472.05861 L 593.19446,548.03361 M 560.19446,548.55861 L 560.19446,472.05861 M 566.71946,472.05861 L 560.19446,472.13361 M 566.79446,472.05861 L 566.86946,548.55861 M 599.71946,548.55861 L 599.64446,472.05861 M 606.24446,472.05861 L 599.64446,472.13361 M 606.31946,472.05861 L 606.31946,548.55861 M 612.84446,548.55861 L 612.76946,472.05861 M 619.36946,472.05861 L 612.76946,472.13361 M 619.44446,472.05861 L 619.44446,548.55861 M 626.04446,548.55861 L 625.96946,472.05861 M 632.56946,472.05861 L 625.96946,472.13361 M 632.56946,472.05861 L 632.64446,548.55861 M 658.96946,548.55861 L 658.89446,472.05861 M 665.34446,472.05861 L 658.89446,472.13361 M 665.41946,472.05861 L 665.49446,548.55861"
       style="fill:none;stroke:#000000;stroke-width:1.875;stroke-linecap:butt;stroke-linejoin:round;stroke-miterlimit:10;stroke-dasharray:none;stroke-opacity:1"
       id="path1621" />
    <g
       transform="matrix(1.25,0,0,-1.25,115.29446,686.58361)"
       id="g1623">
      <g
         id="g1625"
         clip-path="url(#clipPath1627)">
        <text
           transform="matrix(1,0,0,-1,446.28,99.3803)"
           id="text1631">
          <tspan
             style="font-size:12px;font-variant:normal;font-weight:normal;font-stretch:normal;writing-mode:lr-tb;fill:#000000;fill-opacity:1;fill-rule:nonzero;stroke:none;font-family:Times New Roman;-inkscape-font-specification:TimesNewRomanPSMT"
             x="0"
             y="0"
             id="tspan1633">t</tspan>
        </text>
      </g>
    </g>
    <g
       transform="matrix(1.25,0,0,-1.25,115.29446,686.58361)"
       id="g1635">
      <g
         id="g1637"
         clip-path="url(#clipPath1639)">
        <text
           transform="matrix(1,0,0,-1,66.12,188.4203)"
           id="text1643">
          <tspan
             style="font-size:12px;font-variant:normal;font-weight:normal;font-stretch:normal;writing-mode:lr-tb;fill:#000000;fill-opacity:1;fill-rule:nonzero;stroke:none;font-family:Times New Roman;-inkscape-font-specification:TimesNewRomanPSMT"
             x="0"
             y="0"
             id="tspan1645">u</tspan>
        </text>
      </g>
    </g>
  </g>
</svg>
