<?xml version="1.0" encoding="UTF-8" standalone="no"?>
<!-- Created with Inkscape (http://www.inkscape.org/) -->
<svg
   xmlns:dc="http://purl.org/dc/elements/1.1/"
   xmlns:cc="http://creativecommons.org/ns#"
   xmlns:rdf="http://www.w3.org/1999/02/22-rdf-syntax-ns#"
   xmlns:svg="http://www.w3.org/2000/svg"
   xmlns="http://www.w3.org/2000/svg"
   xmlns:sodipodi="http://sodipodi.sourceforge.net/DTD/sodipodi-0.dtd"
   xmlns:inkscape="http://www.inkscape.org/namespaces/inkscape"
   width="580.71033"
   height="177.09375"
   id="svg2700"
   sodipodi:version="0.32"
   inkscape:version="0.46"
   version="1.0"
   sodipodi:docname="GP1-OM-SignalUeberlagerung.svg"
   inkscape:output_extension="org.inkscape.output.svg.inkscape">
  <defs
     id="defs2702">
    <clipPath
       clipPathUnits="userSpaceOnUse"
       id="clipPath213">
      <path
         d="M 521.46,579.74 L 525.06,579.74 L 525.06,591.32 L 521.46,591.32 L 521.46,579.74 z"
         id="path215" />
    </clipPath>
    <inkscape:perspective
       sodipodi:type="inkscape:persp3d"
       inkscape:vp_x="0 : 526.18109 : 1"
       inkscape:vp_y="0 : 1000 : 0"
       inkscape:vp_z="744.09448 : 526.18109 : 1"
       inkscape:persp3d-origin="372.04724 : 350.78739 : 1"
       id="perspective2708" />
  </defs>
  <sodipodi:namedview
     id="base"
     pagecolor="#ffffff"
     bordercolor="#666666"
     borderopacity="1.0"
     gridtolerance="10000"
     guidetolerance="10"
     objecttolerance="10"
     inkscape:pageopacity="0.0"
     inkscape:pageshadow="2"
     inkscape:zoom="0.35"
     inkscape:cx="375"
     inkscape:cy="520"
     inkscape:document-units="px"
     inkscape:current-layer="layer1"
     showgrid="false"
     inkscape:window-width="640"
     inkscape:window-height="672"
     inkscape:window-x="1280"
     inkscape:window-y="0" />
  <metadata
     id="metadata2705">
    <rdf:RDF>
      <cc:Work
         rdf:about="">
        <dc:format>image/svg+xml</dc:format>
        <dc:type
           rdf:resource="http://purl.org/dc/dcmitype/StillImage" />
      </cc:Work>
    </rdf:RDF>
  </metadata>
  <g
     inkscape:label="Layer 1"
     inkscape:groupmode="layer"
     id="layer1"
     transform="translate(-306.78769,-612.38674)">
    <path
       d="M 318.39803,619.21174 L 318.39803,789.01174"
       style="fill:none;stroke:#000000;stroke-width:0.9375;stroke-linecap:round;stroke-linejoin:round;stroke-miterlimit:10;stroke-dasharray:none;stroke-opacity:1"
       id="path147" />
    <path
       d="M 318.32303,789.01174 L 320.19803,789.01174 M 318.39803,767.93674 L 320.27303,767.93674 M 318.32303,746.56174 L 320.19803,746.56174 M 318.39803,725.48674 L 320.27303,725.56174 M 318.39803,704.11174 L 320.27303,704.18674 M 318.39803,683.03674 L 320.27303,683.11174 M 318.32303,661.66174 L 320.19803,661.66174 M 318.39803,640.51174 L 320.27303,640.58674 M 318.32303,619.21174 L 320.19803,619.21174 M 318.39803,704.11174 L 587.27303,704.18674 M 318.39803,705.46174 L 318.39803,702.76174 M 360.54803,705.46174 L 360.62303,702.76174 M 402.39803,705.46174 L 402.39803,702.76174 M 444.54803,705.46174 L 444.62303,702.76174 M 486.39803,705.46174 L 486.47303,702.76174 M 528.62303,705.46174 L 528.62303,702.76174 M 570.39803,705.46174 L 570.39803,702.76174"
       style="fill:none;stroke:#000000;stroke-width:0.075;stroke-linecap:round;stroke-linejoin:round;stroke-miterlimit:10;stroke-dasharray:none;stroke-opacity:1"
       id="path149" />
    <path
       d="M 320.27303,687.61174 L 320.87303,683.71174 L 321.77303,687.31174 L 322.67303,697.51174 L 323.57303,710.71174 L 324.47303,721.88674 L 325.07303,726.46174 L 325.97303,722.56174 L 326.87303,711.31174 L 327.77303,696.53674 L 328.37303,683.71174 L 329.27303,678.08674 L 330.17303,682.36174 L 331.07303,695.56174 L 331.97303,713.33674 L 332.57303,728.48674 L 333.47303,735.38674 L 334.37303,730.13674 L 335.27303,714.31174 L 336.17303,693.23674 L 336.77303,674.78674 L 337.67303,666.91174 L 338.64803,673.13674 L 339.54803,691.88674 L 340.44803,716.93674 L 341.04803,738.31174 L 341.94803,747.53674 L 342.84803,740.33674 L 343.74803,718.28674 L 344.64803,689.26174 L 345.24803,664.88674 L 346.14803,654.38674 C 349.65178,689.05924 347.03178,724.09049 350.34803,758.78674 C 353.81803,722.10299 351.19803,682.64299 354.54803,645.83674 C 358.07053,684.25924 355.24053,725.92924 358.82303,764.33674 C 362.25803,725.09049 359.59178,683.06424 363.02303,643.81174 L 363.92303,655.36174 L 364.52303,685.66174 L 365.42303,722.56174 L 366.32303,751.81174 L 367.22303,762.38674 L 368.12303,750.83674 L 368.72303,721.88674 L 369.62303,686.63674 L 370.52303,659.33674 L 371.42303,649.43674 L 372.32303,660.61174 L 372.92303,687.61174 L 373.82303,719.93674 L 374.72303,744.91174 L 375.62303,753.83674 L 376.52303,743.26174 L 377.12303,718.88674 L 378.02303,689.93674 L 378.99803,667.88674 L 379.89803,660.61174 L 380.79803,669.83674 L 381.39803,691.28674 L 382.29803,716.26174 L 383.19803,735.01174 L 384.09803,741.31174 L 384.69803,733.36174 L 385.59803,714.98674 L 386.49803,693.91174 L 387.39803,678.08674 L 388.29803,672.83674 L 388.89803,679.73674 L 389.79803,694.88674 L 390.69803,712.66174 L 391.59803,725.86174 L 392.49803,730.13674 L 393.09803,724.51174 L 393.99803,711.68674 L 394.89803,696.83674 L 395.79803,685.66174 L 396.69803,681.68674 C 398.67553,695.41549 398.45928,710.91674 400.67303,724.51174 L 401.57303,720.53674 L 402.47303,710.33674 L 403.37303,697.81174 L 404.27303,687.61174 L 404.87303,683.71174 L 405.77303,687.31174 L 406.67303,697.51174 L 407.57303,710.71174 L 408.47303,721.88674 L 409.07303,726.46174 L 409.97303,722.56174 L 410.87303,711.31174 L 411.77303,696.53674 L 412.67303,683.71174 L 413.27303,678.08674 L 414.17303,682.36174 L 415.07303,695.56174 L 415.97303,713.33674 L 416.87303,728.48674 L 417.47303,735.38674 L 418.37303,730.13674 L 419.34803,714.31174 L 420.24803,693.23674 L 420.84803,674.78674 L 421.74803,666.91174 L 422.64803,673.13674 L 423.54803,691.88674 L 424.44803,716.93674 L 425.04803,738.31174 L 425.94803,747.53674 L 426.84803,740.33674 L 427.74803,718.28674 L 428.64803,689.26174 L 429.24803,664.88674 L 430.14803,654.38674 L 431.04803,663.23674 L 431.94803,688.28674 L 432.84803,720.53674 L 433.44803,747.53674 L 434.34803,758.78674 C 437.81803,722.10299 435.19803,682.64299 438.54803,645.83674 C 442.10928,684.46674 439.43178,725.67049 442.82303,764.33674 C 446.25803,725.09049 443.59178,683.06424 447.02303,643.81174 C 450.41678,682.44299 447.75803,723.82424 451.22303,762.38674 C 454.56803,725.55549 451.95428,686.13549 455.42303,649.43674 L 456.32303,660.61174 L 456.92303,687.61174 L 457.82303,719.93674 L 458.72303,744.91174 L 459.62303,753.83674 L 460.59803,743.26174 L 461.19803,718.88674 L 462.09803,689.93674 L 462.99803,667.88674 L 463.89803,660.61174 L 464.79803,669.83674 L 465.39803,691.28674 L 466.29803,716.26174 L 467.19803,735.01174 L 468.09803,741.31174 L 468.99803,733.36174 L 469.59803,714.98674 L 470.49803,693.91174 L 471.39803,678.08674 L 472.29803,672.83674 L 472.89803,679.73674 L 473.79803,694.88674 L 474.69803,712.66174 L 475.59803,725.86174 L 476.49803,730.13674 L 477.09803,724.51174 L 477.99803,711.68674 L 478.89803,696.83674 L 479.79803,685.66174 L 480.77303,681.68674 L 481.37303,686.33674 L 482.27303,697.51174 L 483.17303,710.71174 L 484.07303,720.91174 L 484.97303,724.51174 C 487.10553,711.43299 486.73053,696.77174 488.87303,683.71174 L 489.77303,687.31174 L 490.67303,697.51174 L 491.57303,710.71174 L 492.47303,721.88674 L 493.07303,726.46174 L 493.97303,722.56174 L 494.87303,711.31174 L 495.77303,696.53674 L 496.67303,683.71174 L 497.27303,678.08674 L 498.17303,682.36174 L 499.07303,695.56174 L 499.97303,713.33674 L 500.94803,728.48674 L 501.54803,735.38674 L 502.44803,730.13674 L 503.34803,714.31174 L 504.24803,693.23674 L 505.14803,674.78674 L 505.74803,666.91174 L 506.64803,673.13674 L 507.54803,691.88674 L 508.44803,716.93674 L 509.04803,738.31174 L 509.94803,747.53674 L 510.84803,740.33674 L 511.74803,718.28674 L 512.64803,689.26174 L 513.24803,664.88674 L 514.14803,654.38674 L 515.04803,663.23674 L 515.94803,688.28674 L 516.84803,720.53674 L 517.44803,747.53674 L 518.34803,758.78674 L 519.24803,748.88674 L 520.14803,721.51174 L 521.04803,686.33674 L 521.72303,657.31174 L 522.62303,645.83674 C 526.09178,684.35424 523.42553,725.73799 526.82303,764.33674 C 530.25803,725.09049 527.59178,683.06424 531.02303,643.81174 C 534.41678,682.44299 531.75803,723.82424 535.22303,762.38674 C 538.56803,725.55549 535.95428,686.13549 539.42303,649.43674 C 542.68803,684.13299 540.24553,719.16174 543.69803,753.83674 L 544.59803,743.26174 L 545.19803,718.88674 L 546.09803,689.93674 L 546.99803,667.88674 L 547.89803,660.61174 L 548.79803,669.83674 L 549.39803,691.28674 L 550.29803,716.26174 L 551.19803,735.01174 L 552.09803,741.31174 L 552.99803,733.36174 L 553.59803,714.98674 L 554.49803,693.91174 L 555.39803,678.08674 L 556.29803,672.83674 L 557.19803,679.73674 L 557.79803,694.88674 L 558.69803,712.66174 L 559.59803,725.86174 L 560.49803,730.13674 L 561.09803,724.51174 L 562.07303,711.68674 L 562.97303,696.83674 L 563.87303,685.66174 L 564.77303,681.68674 L 565.37303,686.33674 L 566.27303,697.51174 L 567.17303,710.71174 L 568.07303,720.91174 L 568.97303,724.51174 L 569.57303,720.53674 L 570.47303,710.33674 L 571.37303,704.11174"
       style="fill:none;stroke:#000000;stroke-width:1.0625;stroke-linecap:round;stroke-linejoin:round;stroke-miterlimit:10;stroke-dasharray:none;stroke-opacity:1"
       id="path151" />
    <text
       id="text153"
       x="577.74805"
       y="717.46136"
       style="font-size:15px">
      <tspan
         style="font-size:15px;font-variant:normal;font-weight:normal;font-stretch:normal;writing-mode:lr-tb;fill:#000000;fill-opacity:1;fill-rule:nonzero;stroke:none;font-family:Times New Roman;-inkscape-font-specification:TimesNewRomanPSMT"
         x="577.74805"
         y="717.46136"
         id="tspan155">t</tspan>
      <tspan
         style="font-size:15px;font-variant:normal;font-weight:normal;font-stretch:normal;writing-mode:lr-tb;fill:#000000;fill-opacity:1;fill-rule:nonzero;stroke:none;font-family:Times New Roman;-inkscape-font-specification:TimesNewRomanPSMT"
         x="306.77304 314.27304"
         y="635.78638"
         sodipodi:role="line"
         id="tspan157">u</tspan>
    </text>
    <path
       d="M 581.79803,703.73674 L 583.22303,703.73674 L 583.59803,703.81174 L 583.74803,704.18674 L 583.59803,704.48674 L 583.29803,704.63674 L 581.79803,704.71174 L 581.49803,704.56174 L 581.34803,704.26174 L 581.49803,703.88674 L 581.79803,703.73674 z M 581.94803,701.71174 L 589.52303,703.96174 L 582.09803,706.73674"
       style="fill:#000000;fill-opacity:1;fill-rule:nonzero;stroke:none"
       id="path159" />
    <path
       d="M 315.69803,619.88674 L 318.24803,612.38674 L 320.64803,619.96174"
       style="fill:#000000;fill-opacity:1;fill-rule:nonzero;stroke:none"
       id="path161" />
    <path
       d="M 320.04803,687.46174 L 318.39803,701.48674"
       style="fill:none;stroke:#000000;stroke-width:0.9375;stroke-linecap:round;stroke-linejoin:round;stroke-miterlimit:10;stroke-dasharray:none;stroke-opacity:1"
       id="path163" />
    <path
       d="M 377.49803,783.16174 L 395.34803,783.16174 L 395.34803,764.33674 L 377.49803,764.33674 L 377.49803,783.16174 z"
       style="fill:#ffffff;fill-opacity:1;fill-rule:nonzero;stroke:none"
       id="path165" />
    <text
       id="text167"
       x="377.49805"
       y="778.43634"
       style="font-size:15px">
      <tspan
         style="font-size:15px;font-variant:normal;font-weight:normal;font-stretch:normal;writing-mode:lr-tb;fill:#000000;fill-opacity:1;fill-rule:nonzero;stroke:none;font-family:Times New Roman;-inkscape-font-specification:TimesNewRomanPSMT"
         x="377.49805"
         y="778.43634"
         id="tspan169">T</tspan>
    </text>
    <text
       id="text171"
       x="386.64804"
       y="780.31134"
       style="font-size:15px">
      <tspan
         style="font-size:9.97500038px;font-variant:normal;font-weight:normal;font-stretch:normal;writing-mode:lr-tb;fill:#000000;fill-opacity:1;fill-rule:nonzero;stroke:none;font-family:Times New Roman;-inkscape-font-specification:TimesNewRomanPSMT"
         x="386.64804"
         y="780.31134"
         id="tspan173">1</tspan>
    </text>
    <path
       d="M 481.67303,782.71174 L 499.52303,782.71174 L 499.52303,763.88674 L 481.67303,763.88674 L 481.67303,782.71174 z"
       style="fill:#ffffff;fill-opacity:1;fill-rule:nonzero;stroke:none"
       id="path175" />
    <text
       id="text177"
       x="481.67303"
       y="777.98633"
       style="font-size:15px">
      <tspan
         style="font-size:15px;font-variant:normal;font-weight:normal;font-stretch:normal;writing-mode:lr-tb;fill:#000000;fill-opacity:1;fill-rule:nonzero;stroke:none;font-family:Times New Roman;-inkscape-font-specification:TimesNewRomanPSMT"
         x="481.67303"
         y="777.98633"
         id="tspan179">T</tspan>
    </text>
    <text
       id="text181"
       x="490.82303"
       y="779.86133"
       style="font-size:15px">
      <tspan
         style="font-size:9.97500038px;font-variant:normal;font-weight:normal;font-stretch:normal;writing-mode:lr-tb;fill:#000000;fill-opacity:1;fill-rule:nonzero;stroke:none;font-family:Times New Roman;-inkscape-font-specification:TimesNewRomanPSMT"
         x="490.82303"
         y="779.86133"
         id="tspan183">2</tspan>
    </text>
    <path
       d="M 358.89803,762.61174 L 358.97303,787.43674 M 367.37303,762.68674 L 367.29803,786.98674 M 451.22303,762.53674 L 451.74803,785.48674 M 535.14803,762.83674 L 535.22303,784.43674"
       style="fill:none;stroke:#000000;stroke-width:0.625;stroke-linecap:round;stroke-linejoin:round;stroke-miterlimit:10;stroke-dasharray:none;stroke-opacity:1"
       id="path185" />
    <path
       d="M 335.57303,779.63674 L 352.67303,780.01174 L 353.04803,780.16174 L 353.12303,780.46174 L 352.97303,780.83674 L 352.67303,780.91174 L 335.57303,780.53674 L 335.19803,780.38674 L 335.12303,780.08674 L 335.27303,779.78674 L 335.57303,779.63674 z M 351.47303,777.91174 L 358.89803,780.61174 L 351.39803,782.93674"
       style="fill:#000000;fill-opacity:1;fill-rule:nonzero;stroke:none"
       id="path187" />
    <path
       d="M 391.44803,781.36174 L 374.27303,781.43674 L 373.89803,781.28674 L 373.74803,780.98674 L 373.89803,780.61174 L 374.27303,780.46174 L 391.44803,780.46174 L 391.74803,780.61174 L 391.89803,780.91174 L 391.74803,781.21174 L 391.44803,781.36174 z M 375.47303,783.46174 L 367.97303,780.98674 L 375.47303,778.43674"
       style="fill:#000000;fill-opacity:1;fill-rule:nonzero;stroke:none"
       id="path189" />
    <path
       d="M 457.52303,780.76174 L 528.39803,780.76174 L 528.77303,780.91174 L 528.92303,781.21174 L 528.77303,781.58674 L 528.39803,781.66174 L 457.52303,781.66174 L 457.14803,781.58674 L 456.99803,781.21174 L 457.14803,780.91174 L 457.52303,780.76174 z M 458.72303,783.68674 L 451.22303,781.21174 L 458.72303,778.73674 L 458.72303,783.68674 z M 527.19803,778.73674 L 534.69803,781.21174 L 527.19803,783.68674"
       style="fill:#000000;fill-opacity:1;fill-rule:nonzero;stroke:none"
       id="path191" />
    <path
       d="M 619.52303,625.81174 L 619.52303,781.13674 L 622.67303,781.13674"
       style="fill:none;stroke:#000000;stroke-width:1.0625;stroke-linecap:round;stroke-linejoin:round;stroke-miterlimit:10;stroke-dasharray:none;stroke-opacity:1"
       id="path193" />
    <path
       d="M 618.92303,761.93674 L 622.07303,762.01174 M 618.92303,742.13674 L 622.07303,742.21174 M 618.92303,722.93674 L 622.07303,722.93674 M 618.92303,703.73674 L 622.07303,703.81174 M 618.92303,684.01174 L 622.07303,684.08674 M 618.92303,664.81174 L 622.07303,664.81174 M 618.92303,644.93674 L 622.07303,645.01174 M 618.92303,625.81174 L 622.07303,626.41174"
       style="fill:none;stroke:#000000;stroke-width:0.5625;stroke-linecap:round;stroke-linejoin:round;stroke-miterlimit:10;stroke-dasharray:none;stroke-opacity:1"
       id="path195" />
    <path
       d="M 618.92303,703.73674 L 879.99803,703.81174"
       style="fill:none;stroke:#000000;stroke-width:1.0625;stroke-linecap:round;stroke-linejoin:round;stroke-miterlimit:10;stroke-dasharray:none;stroke-opacity:1"
       id="path197" />
    <path
       d="M 618.92303,706.88674 L 619.52303,700.66174 M 659.64803,706.88674 L 659.72303,700.66174 M 700.29803,706.88674 L 700.44803,700.66174 M 741.62303,706.88674 L 741.69803,700.66174 M 782.27303,706.88674 L 782.27303,700.66174 M 822.84803,706.88674 L 822.99803,700.66174"
       style="fill:none;stroke:#000000;stroke-width:0.5625;stroke-linecap:round;stroke-linejoin:round;stroke-miterlimit:10;stroke-dasharray:none;stroke-opacity:1"
       id="path199" />
    <path
       d="M 620.79803,671.56174 L 621.47303,663.46174 L 622.07303,669.08674 L 623.27303,686.48674 L 623.87303,708.08674 L 624.39803,725.41174 L 625.67303,731.63674 L 626.34803,723.61174 L 626.87303,703.81174 L 628.14803,680.26174 L 628.67303,660.46174 L 629.27303,652.96174 L 630.54803,659.18674 L 631.07303,676.51174 L 632.34803,698.86174 L 632.94803,716.78674 L 633.54803,723.01174 L 634.82303,715.58674 L 635.34803,696.31174 L 635.94803,673.43674 L 637.22303,654.83674 L 637.82303,647.41174 L 638.42303,654.23674 L 639.62303,672.83674 L 640.22303,695.71174 L 640.82303,714.31174 L 642.02303,721.13674 L 642.69803,714.31174 L 643.29803,696.31174 L 644.49803,674.03674 L 645.09803,655.51174 L 645.69803,649.28674 L 646.89803,656.71174 L 647.57303,675.91174 L 648.17303,699.46174 L 649.37303,718.66174 L 649.97303,726.68674 L 650.49803,720.46174 L 651.77303,703.13674 L 652.44803,680.86174 L 652.97303,663.46174 L 654.24803,657.91174 L 654.77303,666.01174 L 655.37303,685.21174 L 656.64803,709.36174 L 657.17303,729.16174 L 658.44803,737.26174 L 659.04803,731.63674 L 659.64803,714.31174 L 660.92303,692.63674 L 661.44803,675.31174 L 662.04803,669.68674 L 663.32303,677.78674 L 663.92303,697.58674 L 664.52303,721.73674 L 665.72303,740.93674 L 666.32303,749.03674 L 666.92303,743.48674 L 668.12303,726.08674 L 668.79803,703.81174 L 669.39803,686.48674 L 670.59803,680.26174 L 671.19803,688.28674 L 671.79803,707.48674 L 672.99803,731.03674 L 673.67303,750.23674 L 674.27303,757.66174 L 675.47303,751.43674 L 676.07303,732.91174 L 676.59803,710.63674 L 677.87303,692.63674 L 678.54803,685.81174 L 679.07303,692.63674 L 680.34803,711.23674 L 680.87303,734.11174 L 681.47303,752.71174 L 682.74803,759.53674 L 683.34803,752.11174 L 684.54803,733.51174 L 685.14803,710.63674 L 685.74803,691.43674 L 687.02303,683.93674 L 687.54803,690.16174 L 688.14803,708.08674 L 689.42303,730.43674 L 690.02303,747.76174 L 690.62303,753.98674 L 691.82303,746.56174 L 692.42303,726.68674 L 693.02303,703.13674 L 694.22303,683.33674 L 694.89803,675.31174 L 695.49803,681.46174 L 696.69803,698.86174 L 697.29803,720.46174 L 697.89803,737.86174 L 699.09803,743.48674 L 699.77303,735.38674 L 700.37303,715.58674 L 701.57303,691.43674 L 702.17303,671.56174 L 702.69803,663.46174 L 703.97303,669.08674 L 704.57303,686.48674 L 705.17303,708.08674 L 706.44803,725.41174 L 706.97303,731.63674 C 709.69803,704.63424 708.57678,679.85924 711.24803,652.96174 L 711.84803,659.18674 L 713.12303,676.51174 L 713.64803,698.86174 L 714.32303,716.78674 L 715.52303,723.01174 L 716.12303,715.58674 L 716.72303,696.31174 L 717.92303,673.43674 L 718.52303,654.83674 L 719.12303,647.41174 L 720.32303,654.23674 L 720.99803,672.83674 L 721.59803,695.71174 L 722.79803,714.31174 L 723.39803,721.13674 L 723.99803,714.31174 L 725.19803,696.31174 L 725.87303,674.03674 L 726.39803,655.51174 L 727.67303,649.28674 L 728.27303,656.71174 L 728.79803,675.91174 L 730.07303,699.46174 L 730.67303,718.66174 L 731.27303,726.68674 L 732.54803,720.46174 L 733.07303,703.13674 L 733.67303,680.86174 L 734.94803,663.46174 L 735.54803,657.91174 L 736.74803,666.01174 L 737.34803,685.21174 L 737.94803,709.36174 L 739.22303,729.16174 L 739.74803,737.26174 L 740.42303,731.63674 L 741.62303,714.31174 L 742.22303,692.63674 L 742.82303,675.31174 L 744.02303,669.68674 C 745.74928,695.67924 745.94053,723.03049 747.69803,749.03674 L 748.89803,743.48674 L 749.49803,726.08674 L 750.09803,703.81174 L 751.29803,686.48674 L 751.97303,680.26174 L 752.49803,688.28674 L 753.77303,707.48674 L 754.37303,731.03674 L 754.89803,750.23674 L 756.17303,757.66174 L 756.77303,751.43674 L 757.37303,732.91174 L 758.64803,710.63674 L 759.17303,692.63674 L 759.77303,685.81174 L 761.04803,692.63674 L 761.64803,711.23674 L 762.84803,734.11174 L 763.44803,752.71174 L 764.04803,759.53674 L 765.32303,752.11174 L 765.84803,733.51174 L 766.52303,710.63674 L 767.72303,691.43674 L 768.32303,683.93674 L 768.92303,690.16174 L 770.12303,708.08674 L 770.72303,730.43674 L 771.39803,747.76174 L 772.52303,753.98674 L 773.19803,746.56174 L 773.79803,726.68674 L 774.99803,703.13674 L 775.59803,683.33674 L 776.19803,675.31174 L 777.39803,681.46174 L 778.07303,698.86174 L 778.59803,720.46174 L 779.87303,737.86174 L 780.47303,743.48674 L 780.99803,735.38674 L 782.27303,715.58674 L 782.87303,691.43674 L 783.47303,671.56174 L 784.74803,663.46174 L 785.27303,669.08674 L 785.87303,686.48674 L 787.14803,708.08674 L 787.74803,725.41174 L 788.94803,731.63674 L 789.54803,723.61174 L 790.14803,703.81174 L 791.42303,680.26174 L 791.94803,660.46174 L 792.62303,652.96174 L 793.82303,659.18674 L 794.42303,676.51174 L 795.02303,698.86174 L 796.22303,716.78674 L 796.82303,723.01174 L 797.49803,715.58674 L 798.62303,696.31174 L 799.29803,673.43674 L 799.89803,654.83674 L 801.09803,647.41174 L 801.69803,654.23674 L 802.37303,672.83674 L 803.49803,695.71174 L 804.17303,714.31174 L 804.69803,721.13674 L 805.97303,714.31174 L 806.57303,696.31174 L 807.09803,674.03674 L 808.37303,655.51174 L 808.97303,649.28674 L 809.57303,656.71174 L 810.84803,675.91174 L 811.37303,699.46174 L 811.97303,718.66174 L 813.24803,726.68674 L 813.84803,720.46174 L 815.04803,703.13674 L 815.64803,680.86174 L 816.24803,663.46174 L 817.52303,657.91174 L 818.04803,666.01174 L 818.72303,685.21174 L 819.92303,709.36174 L 820.52303,729.16174 L 821.12303,737.26174 L 822.32303,731.63674 L 822.92303,714.31174 L 823.59803,692.63674 L 824.72303,675.31174 L 825.39803,669.68674 L 825.99803,677.78674 L 827.19803,697.58674 L 827.79803,721.73674 L 828.39803,740.93674 L 829.59803,749.03674 L 830.27303,743.48674 L 830.79803,726.08674 L 832.07303,703.81174 L 832.67303,686.48674 L 833.27303,680.26174 L 834.47303,688.28674 L 835.07303,707.48674 L 835.67303,731.03674 L 836.94803,750.23674 L 837.47303,757.66174 C 840.41053,733.01049 838.93678,710.51924 841.74803,685.81174 L 842.34803,692.63674 L 843.62303,711.23674 L 844.14803,734.11174 L 844.82303,752.71174 L 845.94803,759.53674 L 846.62303,752.11174 L 847.22303,733.51174 L 848.42303,710.63674 L 849.02303,691.43674 L 849.69803,683.93674 L 850.82303,690.16174 L 851.49803,708.08674 L 852.09803,730.43674 L 853.29803,747.76174 L 853.89803,753.98674 L 854.49803,746.56174 L 855.69803,726.68674 L 856.37303,703.13674 L 856.89803,683.33674 L 858.17303,675.31174 L 858.77303,681.46174 L 859.37303,698.86174 L 860.57303,720.46174 L 861.17303,737.86174 L 861.77303,743.48674 L 863.04803,735.38674 L 863.57303,715.58674 L 864.17303,703.81174"
       style="fill:none;stroke:#000000;stroke-width:0.9375;stroke-linecap:round;stroke-linejoin:round;stroke-miterlimit:10;stroke-dasharray:none;stroke-opacity:1"
       id="path201" />
    <path
       d="M 863.57303,706.88674 L 863.64803,700.66174"
       style="fill:none;stroke:#000000;stroke-width:0.5625;stroke-linecap:round;stroke-linejoin:round;stroke-miterlimit:10;stroke-dasharray:none;stroke-opacity:1"
       id="path203" />
    <text
       id="text205"
       x="604.67303"
       y="641.11133"
       style="font-size:15px">
      <tspan
         style="font-size:16.27500153px;font-variant:normal;font-weight:normal;font-stretch:normal;writing-mode:lr-tb;fill:#000000;fill-opacity:1;fill-rule:nonzero;stroke:none;font-family:Times New Roman;-inkscape-font-specification:TimesNewRomanPSMT"
         x="604.67303"
         y="641.11133"
         id="tspan207">u</tspan>
    </text>
    <g
       transform="matrix(1.25,0,0,-1.25,218.12303,1449.4117)"
       id="g209">
      <g
         id="g211"
         clip-path="url(#clipPath213)">
        <text
           transform="matrix(1,0,0,-1,521.46,579.6204)"
           id="text217">
          <tspan
             style="font-size:13.02000046px;font-variant:normal;font-weight:normal;font-stretch:normal;writing-mode:lr-tb;fill:#000000;fill-opacity:1;fill-rule:nonzero;stroke:none;font-family:Times New Roman;-inkscape-font-specification:TimesNewRomanPSMT"
             x="0"
             y="0"
             id="tspan219">t</tspan>
        </text>
      </g>
    </g>
    <path
       d="M 616.82303,626.93674 L 619.22303,619.43674 L 621.84803,626.86174"
       style="fill:#000000;fill-opacity:1;fill-rule:nonzero;stroke:none"
       id="path221" />
    <path
       d="M 879.84803,701.48674 L 887.49803,703.51174 L 880.14803,706.43674"
       style="fill:#000000;fill-opacity:1;fill-rule:nonzero;stroke:none"
       id="path223" />
    <path
       d="M 620.72303,671.26174 L 619.52303,683.78674"
       style="fill:none;stroke:#000000;stroke-width:1.0625;stroke-linecap:round;stroke-linejoin:round;stroke-miterlimit:10;stroke-dasharray:none;stroke-opacity:1"
       id="path225" />
    <path
       d="M 674.49803,757.73674 L 673.52303,782.93674 M 682.67303,760.06174 L 682.59803,783.08674 M 845.79803,760.06174 L 845.27303,783.61174 M 763.97303,760.06174 L 763.44803,783.61174"
       style="fill:none;stroke:#000000;stroke-width:0.625;stroke-linecap:round;stroke-linejoin:round;stroke-miterlimit:10;stroke-dasharray:none;stroke-opacity:1"
       id="path227" />
    <path
       d="M 769.59803,775.88674 L 838.44803,775.88674 L 838.74803,776.03674 L 838.89803,776.33674 L 838.74803,776.71174 L 838.44803,776.78674 L 769.59803,776.78674 L 769.29803,776.71174 L 769.14803,776.33674 L 769.29803,776.03674 L 769.59803,775.88674 z M 770.87303,778.81174 L 763.37303,776.33674 L 770.87303,773.86174 L 770.87303,778.81174 z M 837.17303,773.86174 L 844.67303,776.33674 L 837.17303,778.81174"
       style="fill:#000000;fill-opacity:1;fill-rule:nonzero;stroke:none"
       id="path229" />
    <path
       d="M 652.14803,776.48674 L 667.59803,776.48674 L 667.97303,776.63674 L 668.12303,776.93674 L 667.97303,777.31174 L 667.59803,777.46174 L 652.14803,777.46174 L 651.77303,777.31174 L 651.62303,776.93674 L 651.77303,776.63674 L 652.14803,776.48674 z M 666.39803,774.46174 L 673.89803,776.93674 L 666.39803,779.48674"
       style="fill:#000000;fill-opacity:1;fill-rule:nonzero;stroke:none"
       id="path231" />
    <path
       d="M 708.54803,777.53674 L 688.97303,777.61174 L 688.59803,777.46174 L 688.44803,777.16174 L 688.59803,776.78674 L 688.89803,776.71174 L 708.54803,776.63674 L 708.92303,776.78674 L 708.99803,777.08674 L 708.92303,777.46174 L 708.54803,777.53674 z M 690.17303,779.63674 L 682.67303,777.16174 L 690.17303,774.61174"
       style="fill:#000000;fill-opacity:1;fill-rule:nonzero;stroke:none"
       id="path233" />
    <text
       id="text235"
       x="795.77301"
       y="772.96136"
       style="font-size:15px">
      <tspan
         style="font-size:14.40000057px;font-variant:normal;font-weight:normal;font-stretch:normal;writing-mode:lr-tb;fill:#000000;fill-opacity:1;fill-rule:nonzero;stroke:none;font-family:Times New Roman;-inkscape-font-specification:TimesNewRomanPSMT"
         x="795.77301"
         y="772.96136"
         id="tspan237">T</tspan>
    </text>
    <text
       id="text239"
       x="804.54803"
       y="774.83636"
       style="font-size:15px">
      <tspan
         style="font-size:9.375px;font-variant:normal;font-weight:normal;font-stretch:normal;writing-mode:lr-tb;fill:#000000;fill-opacity:1;fill-rule:nonzero;stroke:none;font-family:Times New Roman;-inkscape-font-specification:TimesNewRomanPSMT"
         x="804.54803"
         y="774.83636"
         id="tspan241">2</tspan>
    </text>
    <text
       id="text243"
       x="696.24744"
       y="773.56183"
       style="font-size:15px">
      <tspan
         style="font-size:14.40000057px;font-variant:normal;font-weight:normal;font-stretch:normal;writing-mode:lr-tb;fill:#000000;fill-opacity:1;fill-rule:nonzero;stroke:none;font-family:Times New Roman;-inkscape-font-specification:TimesNewRomanPSMT"
         x="696.24744"
         y="773.56183"
         id="tspan245">T</tspan>
    </text>
    <text
       id="text247"
       x="705.02301"
       y="775.43634"
       style="font-size:15px">
      <tspan
         style="font-size:9.375px;font-variant:normal;font-weight:normal;font-stretch:normal;writing-mode:lr-tb;fill:#000000;fill-opacity:1;fill-rule:nonzero;stroke:none;font-family:Times New Roman;-inkscape-font-specification:TimesNewRomanPSMT"
         x="705.02301"
         y="775.43634"
         id="tspan249">1</tspan>
    </text>
  </g>
</svg>
